<svg version="1.1" id="mscgen_js-svg-__svg" xmlns="http://www.w3.org/2000/svg" xmlns:xlink="http://www.w3.org/1999/xlink" width="100%" height="100%" viewBox="0 0 816 452.5124969482422"><desc id="mscgen_js-svg-__svg__msc_source"></desc><defs><style type="text/css">svg{  font-family:Helvetica,sans-serif;  font-size:12px;  font-weight:normal;  font-style:normal;  text-decoration:none;  background-color:white;  stroke:black;  color:black;}rect{  fill:none;  stroke:black;  stroke-width:2;}.bglayer{  fill:white;  stroke:white;  stroke-width:0;}rect.textbg{  fill:white;  stroke:white;  stroke-width:0;  opacity:0.9;}line{  stroke:black;  stroke-width:2;}.arcrowomit{  stroke-dasharray:2,2;}text{  color:inherit;  stroke:none;  text-anchor:middle;}text.entity{  text-decoration:underline;}text.anchor-start{  text-anchor:start;}path{  stroke:black;  color:black;  stroke-width:2;  fill:none;}.dotted{  stroke-dasharray:5,2;}.striped{  stroke-dasharray:10,5;}.arrow-marker{  overflow:visible;}.arrow-style{  stroke-width:1;}.arcrowomit{  stroke-dasharray:2,2;}.box{  /* fill: #ffc;  no-inherit */  fill:white;  opacity:0.9;}.boxtext, .arctext{  font-size:0.8em;  text-anchor:middle;}.comment{  stroke-dasharray:5,2;} .inherit{  stroke:inherit;  color:inherit;} .inherit-fill{  fill:inherit;}.watermark{  stroke:black;  color:black;  fill:black;  font-size: 48pt;  font-weight:bold;  opacity:0.14;}</style><marker orient="auto" id="mscgen_js-svg-__svgcallback-black" class="arrow-marker" viewBox="0 0 10 10" refX="9" refY="3" markerUnits="strokeWidth" markerWidth="10" markerHeight="10"><path d="M 1,1 l 8,2 l-8,2" class="arrow-style" style="stroke-dasharray:100,1; stroke : black"></path></marker><marker orient="auto" id="mscgen_js-svg-__svgcallback-l-black" class="arrow-marker" viewBox="0 0 10 10" refX="9" refY="3" markerUnits="strokeWidth" markerWidth="10" markerHeight="10"><path d="M17,1 l-8,2 l 8,2" class="arrow-style" style="stroke-dasharray:100,1; stroke : black"></path></marker><marker orient="auto" id="mscgen_js-svg-__svgmethod-black" class="arrow-marker" viewBox="0 0 10 10" refX="9" refY="3" markerUnits="strokeWidth" markerWidth="10" markerHeight="10"><polygon points="1,1  9,3  1,5" class="arrow-style" stroke="black" fill="black"></polygon></marker><marker orient="auto" id="mscgen_js-svg-__svgmethod-l-black" class="arrow-marker" viewBox="0 0 10 10" refX="9" refY="3" markerUnits="strokeWidth" markerWidth="10" markerHeight="10"><polygon points="17,1 9,3 17,5" class="arrow-style" stroke="black" fill="black"></polygon></marker><g id="mscgen_js-svg-__svg__defs"><g id="mscgen_js-svg-__svga"><rect width="100" height="38"></rect><g><text x="50" y="21.99609375" class="entity"><tspan>a</tspan></text></g></g><g id="mscgen_js-svg-__svgb"><rect width="100" height="38"></rect><g><text x="50" y="21.99609375" class="entity"><tspan>b</tspan></text></g></g><g id="mscgen_js-svg-__svgc"><rect width="100" height="38"></rect><g><text x="50" y="21.99609375" class="entity"><tspan>c</tspan></text></g></g><g id="mscgen_js-svg-__svgd"><rect width="100" height="38"></rect><g><text x="50" y="21.99609375" class="entity"><tspan>d</tspan></text></g></g><g id="mscgen_js-svg-__svge"><rect width="100" height="38"></rect><g><text x="50" y="21.99609375" class="entity"><tspan>e</tspan></text></g></g><g id="mscgen_js-svg-__svgarcrow"><line x1="50" y1="-19" x2="50" y2="19" class="mscgen_js-svg-__svgarcrow"></line><line x1="210" y1="-19" x2="210" y2="19" class="mscgen_js-svg-__svgarcrow"></line><line x1="370" y1="-19" x2="370" y2="19" class="mscgen_js-svg-__svgarcrow"></line><line x1="530" y1="-19" x2="530" y2="19" class="mscgen_js-svg-__svgarcrow"></line><line x1="690" y1="-19" x2="690" y2="19" class="mscgen_js-svg-__svgarcrow"></line></g><g id="mscgen_js-svg-__svg0_0"><line x1="50" y1="0" x2="210" y2="0" style="stroke:black" marker-end="url(#mscgen_js-svg-__svgcallback-black)"></line><g><rect width="48.6875" height="12" x="105.65625" y="-13.234375" class="textbg"></rect><text x="130" y="-3.99609375"><tspan>Message</tspan></text></g></g><g id="mscgen_js-svg-__svgarcrow_0"><line x1="50" y1="-19" x2="50" y2="19" class="arcrow"></line><line x1="210" y1="-19" x2="210" y2="19" class="arcrow"></line><line x1="370" y1="-19" x2="370" y2="19" class="arcrow"></line><line x1="530" y1="-19" x2="530" y2="19" class="arcrow"></line><line x1="690" y1="-19" x2="690" y2="19" class="arcrow"></line></g><g id="mscgen_js-svg-__svg1_0"><line x1="210" y1="0" x2="370" y2="0" style="stroke:black" marker-end="url(#mscgen_js-svg-__svgcallback-black)"></line><g><rect width="99.9375" height="12" x="240.03125" y="-13.234375" class="textbg"></rect><text x="290" y="-3.99609375"><tspan>Gather stuff for me</tspan></text></g></g><g id="mscgen_js-svg-__svgarcrow_1"><line x1="50" y1="-19" x2="50" y2="19" class="arcrow"></line><line x1="210" y1="-19" x2="210" y2="19" class="arcrow"></line><line x1="370" y1="-19" x2="370" y2="19" class="arcrow"></line><line x1="530" y1="-19" x2="530" y2="19" class="arcrow"></line><line x1="690" y1="-19" x2="690" y2="19" class="arcrow"></line></g><g id="mscgen_js-svg-__svg2_0"><line x1="370" y1="0" x2="210" y2="0" style="stroke:black;stroke-dasharray:5,2;" marker-end="url(#mscgen_js-svg-__svgcallback-black)"></line><g><rect width="73.34375" height="12" x="253.328125" y="-13.234375" class="textbg"></rect><text x="290" y="-3.99609375"><tspan>gathered stuff</tspan></text></g></g><g id="mscgen_js-svg-__svgarcrow_2"><line x1="50" y1="-19" x2="50" y2="19" class="arcrow"></line><line x1="210" y1="-19" x2="210" y2="19" class="arcrow"></line><line x1="370" y1="-19" x2="370" y2="19" class="arcrow"></line><line x1="530" y1="-19" x2="530" y2="19" class="arcrow"></line><line x1="690" y1="-19" x2="690" y2="19" class="arcrow"></line></g><g id="mscgen_js-svg-__svg3_0"><line x1="210" y1="0" x2="530" y2="0" style="stroke:black" marker-end="url(#mscgen_js-svg-__svgcallback-black)"></line><g><rect width="126.625" height="12" x="306.6875" y="-13.234375" class="textbg"></rect><text x="370" y="-3.99609375"><tspan>process (gathered stuff)</tspan></text></g></g><g id="mscgen_js-svg-__svgarcrow_3"><line x1="50" y1="-19" x2="50" y2="19" class="arcrow"></line><line x1="210" y1="-19" x2="210" y2="19" class="arcrow"></line><line x1="370" y1="-19" x2="370" y2="19" class="arcrow"></line><line x1="530" y1="-19" x2="530" y2="19" class="arcrow"></line><line x1="690" y1="-19" x2="690" y2="19" class="arcrow"></line></g><g id="mscgen_js-svg-__svg4_0"><line x1="530" y1="0" x2="690" y2="0" style="stroke:black" marker-end="url(#mscgen_js-svg-__svgcallback-black)"></line><g><rect width="105.34375" height="12" x="557.328125" y="-13.234375" class="textbg"></rect><text x="610" y="-3.99609375"><tspan>gather things based</tspan></text><rect width="39.34375" height="12" x="590.328125" y="1.75" class="textbg"></rect><text x="610" y="10.98828125"><tspan>on stuff</tspan></text></g></g><g id="mscgen_js-svg-__svgarcrow_4"><line x1="50" y1="-19" x2="50" y2="19" class="arcrow"></line><line x1="210" y1="-19" x2="210" y2="19" class="arcrow"></line><line x1="370" y1="-19" x2="370" y2="19" class="arcrow"></line><line x1="530" y1="-19" x2="530" y2="19" class="arcrow"></line><line x1="690" y1="-19" x2="690" y2="19" class="arcrow"></line></g><g id="mscgen_js-svg-__svg5_0"><g><path d="M690, -7.6 C766,-7.4 766,11.2 705,11.2" style="stroke:undefined"></path><path d="M690, -7.6 C770,-7.4 770,15.2 705,15.2" style="stroke:undefined"></path><path d="M690, -7.6 C770,-7.4 770,13.2 690,13.2" style="stroke:transparent;" marker-end="url(#mscgen_js-svg-__svgmethod-black)"></path></g><g><rect width="72" height="12" x="693" y="-47.3125" class="textbg"></rect><text x="693" y="-38.06484375" class="anchor-start"><tspan>do something</tspan></text><rect width="47.953125" height="12" x="693" y="-34.328125" class="textbg"></rect><text x="693" y="-25.08046875" class="anchor-start"><tspan>frightfully</tspan></text><rect width="44.65625" height="12" x="693" y="-21.34375" class="textbg"></rect><text x="693" y="-12.096093750000001" class="anchor-start"><tspan>complex</tspan></text></g></g><g id="mscgen_js-svg-__svgarcrow_5"><line x1="50" y1="-33.256248474121094" x2="50" y2="33.256248474121094" class="arcrow"></line><line x1="210" y1="-33.256248474121094" x2="210" y2="33.256248474121094" class="arcrow"></line><line x1="370" y1="-33.256248474121094" x2="370" y2="33.256248474121094" class="arcrow"></line><line x1="530" y1="-33.256248474121094" x2="530" y2="33.256248474121094" class="arcrow"></line><line x1="690" y1="-33.256248474121094" x2="690" y2="33.256248474121094" class="arcrow"></line></g><g id="mscgen_js-svg-__svg6_0"><line x1="690" y1="0" x2="530" y2="0" style="stroke:black;stroke-dasharray:5,2;" marker-end="url(#mscgen_js-svg-__svgcallback-black)"></line><g><rect width="93.3125" height="12" x="563.34375" y="-13.234375" class="textbg"></rect><text x="610" y="-3.99609375"><tspan>gathered kerfuffle</tspan></text></g></g><g id="mscgen_js-svg-__svgarcrow_6"><line x1="50" y1="-19" x2="50" y2="19" class="arcrow"></line><line x1="210" y1="-19" x2="210" y2="19" class="arcrow"></line><line x1="370" y1="-19" x2="370" y2="19" class="arcrow"></line><line x1="530" y1="-19" x2="530" y2="19" class="arcrow"></line><line x1="690" y1="-19" x2="690" y2="19" class="arcrow"></line></g><g id="mscgen_js-svg-__svg7_0"><line x1="530" y1="0" x2="210" y2="0" style="stroke:black;stroke-dasharray:5,2;" marker-end="url(#mscgen_js-svg-__svgcallback-black)"></line><g><rect width="81.34375" height="12" x="329.328125" y="-13.234375" class="textbg"></rect><text x="370" y="-3.99609375"><tspan>processed stuff</tspan></text></g></g><g id="mscgen_js-svg-__svgarcrow_7"><line x1="50" y1="-19" x2="50" y2="19" class="arcrow"></line><line x1="210" y1="-19" x2="210" y2="19" class="arcrow"></line><line x1="370" y1="-19" x2="370" y2="19" class="arcrow"></line><line x1="530" y1="-19" x2="530" y2="19" class="arcrow"></line><line x1="690" y1="-19" x2="690" y2="19" class="arcrow"></line></g><g id="mscgen_js-svg-__svg8_0"><line x1="210" y1="0" x2="50" y2="0" style="stroke:black;stroke-dasharray:5,2;" marker-end="url(#mscgen_js-svg-__svgcallback-black)"></line><g><rect width="54.03125" height="12" x="102.984375" y="-13.234375" class="textbg"></rect><text x="130" y="-3.99609375"><tspan>Response</tspan></text></g></g><g id="mscgen_js-svg-__svgarcrow_8"><line x1="50" y1="-19" x2="50" y2="19" class="arcrow"></line><line x1="210" y1="-19" x2="210" y2="19" class="arcrow"></line><line x1="370" y1="-19" x2="370" y2="19" class="arcrow"></line><line x1="530" y1="-19" x2="530" y2="19" class="arcrow"></line><line x1="690" y1="-19" x2="690" y2="19" class="arcrow"></line></g></g></defs><g id="mscgen_js-svg-__svg__body" transform="translate(38,3) scale(1,1)"><g id="mscgen_js-svg-__svg__background"><rect width="816" height="452.5124969482422" x="-38" y="-3" class="bglayer"></rect></g><g id="mscgen_js-svg-__svg__arcspanlayer"></g><g id="mscgen_js-svg-__svg__lifelinelayer"><use x="0" y="57" xlink:href="#mscgen_js-svg-__svgarcrow"></use><use x="0" y="95" xlink:href="#mscgen_js-svg-__svgarcrow_0"></use><use x="0" y="133" xlink:href="#mscgen_js-svg-__svgarcrow_1"></use><use x="0" y="171" xlink:href="#mscgen_js-svg-__svgarcrow_2"></use><use x="0" y="209" xlink:href="#mscgen_js-svg-__svgarcrow_3"></use><use x="0" y="247" xlink:href="#mscgen_js-svg-__svgarcrow_4"></use><use x="0" y="299.2562484741211" xlink:href="#mscgen_js-svg-__svgarcrow_5"></use><use x="0" y="351.5124969482422" xlink:href="#mscgen_js-svg-__svgarcrow_6"></use><use x="0" y="389.5124969482422" xlink:href="#mscgen_js-svg-__svgarcrow_7"></use><use x="0" y="427.5124969482422" xlink:href="#mscgen_js-svg-__svgarcrow_8"></use></g><g id="mscgen_js-svg-__svg__sequencelayer"><use x="0" y="0" xlink:href="#mscgen_js-svg-__svga"></use><use x="160" y="0" xlink:href="#mscgen_js-svg-__svgb"></use><use x="320" y="0" xlink:href="#mscgen_js-svg-__svgc"></use><use x="480" y="0" xlink:href="#mscgen_js-svg-__svgd"></use><use x="640" y="0" xlink:href="#mscgen_js-svg-__svge"></use><use x="0" y="95" xlink:href="#mscgen_js-svg-__svg0_0"></use><use x="0" y="133" xlink:href="#mscgen_js-svg-__svg1_0"></use><use x="0" y="171" xlink:href="#mscgen_js-svg-__svg2_0"></use><use x="0" y="209" xlink:href="#mscgen_js-svg-__svg3_0"></use><use x="0" y="247" xlink:href="#mscgen_js-svg-__svg4_0"></use><use x="0" y="299.2562484741211" xlink:href="#mscgen_js-svg-__svg5_0"></use><use x="0" y="351.5124969482422" xlink:href="#mscgen_js-svg-__svg6_0"></use><use x="0" y="389.5124969482422" xlink:href="#mscgen_js-svg-__svg7_0"></use><use x="0" y="427.5124969482422" xlink:href="#mscgen_js-svg-__svg8_0"></use></g><g id="mscgen_js-svg-__svg__notelayer"></g><g id="mscgen_js-svg-__svg__watermark"></g></g></svg>
