<svg version="1.1" id="mscgenjs__svg" class="mscgenjs__svg" xmlns="http://www.w3.org/2000/svg" xmlns:xlink="http://www.w3.org/1999/xlink" width="100%" height="100%" viewBox="0 0 816 452.49999618530273"><defs><style type="text/css">svg.mscgenjs__svg{font-family:Helvetica,sans-serif;font-size:12px;font-weight:normal;font-style:normal;text-decoration:none;background-color:white;stroke:black;stroke-width:2}.mscgenjs__svg path, .mscgenjs__svg rect{fill:none}.mscgenjs__svg .label-text-background{fill:white;stroke:white;stroke-width:0}.mscgenjs__svg .bglayer{fill:white;stroke:white;stroke-width:0}.mscgenjs__svg line{}.mscgenjs__svg .return, .mscgenjs__svg .comment{stroke-dasharray:5,3}.mscgenjs__svg .inline_expression_divider{stroke-dasharray:10,5}.mscgenjs__svg text{color:inherit;stroke:none;text-anchor:middle}.mscgenjs__svg text.anchor-start{text-anchor:start}.mscgenjs__svg .arrow-marker{overflow:visible}.mscgenjs__svg .arrow-style{stroke-width:1}.mscgenjs__svg .arcrow, .mscgenjs__svg .arcrowomit, .mscgenjs__svg .emphasised{stroke-linecap:butt}.mscgenjs__svg .arcrowomit{stroke-dasharray:2,2}.mscgenjs__svg .box, .mscgenjs__svg .entity{fill:white;stroke-linejoin:round}.mscgenjs__svg .inherit{stroke:inherit;color:inherit}.mscgenjs__svg .inherit-fill{fill:inherit}.mscgenjs__svg .watermark{font-size:48pt;font-weight:bold;opacity:0.14}.mscgenjs__svg text.entity-text{font-weight:bold;}.mscgenjs__svg text.return-text{font-style:italic}.mscgenjs__svg path.note{fill:#FFFFCC}.mscgenjs__svg rect.label-text-background{opacity:0.9}.mscgenjs__svg line.comment,.mscgenjs__svg rect.inline_expression,.mscgenjs__svg .inline_expression_divider,.mscgenjs__svg .inline_expression_label{stroke:grey}</style><marker orient="auto" id="mscgenjs__svgcallback-black" class="arrow-marker" viewBox="0 0 10 10" refX="9" refY="3" markerUnits="strokeWidth" markerWidth="10" markerHeight="10"><path d="M 1,1 l 8,2 l-8,2" class="arrow-style" style="stroke-dasharray:100,1;stroke:black"></path></marker><marker orient="auto" id="mscgenjs__svgcallback-l-black" class="arrow-marker" viewBox="0 0 10 10" refX="9" refY="3" markerUnits="strokeWidth" markerWidth="10" markerHeight="10"><path d="M17,1 l-8,2 l 8,2" class="arrow-style" style="stroke-dasharray:100,1;stroke:black"></path></marker><marker orient="auto" id="mscgenjs__svgmethod-black" class="arrow-marker" viewBox="0 0 10 10" refX="9" refY="3" markerUnits="strokeWidth" markerWidth="10" markerHeight="10"><polygon points="1,1  9,3  1,5" class="arrow-style" stroke="black" fill="black"></polygon></marker><marker orient="auto" id="mscgenjs__svgmethod-l-black" class="arrow-marker" viewBox="0 0 10 10" refX="9" refY="3" markerUnits="strokeWidth" markerWidth="10" markerHeight="10"><polygon points="17,1 9,3 17,5" class="arrow-style" stroke="black" fill="black"></polygon></marker></defs><g id="mscgenjs__svg_body" transform="translate(38,3) scale(1,1)"><g id="mscgenjs__svg_background"><rect width="816" height="452.5" x="-38" y="-3" class="bglayer"></rect></g><g id="mscgenjs__svg_arcspans"></g><g id="mscgenjs__svg_lifelines"><line x1="50" y1="38" x2="50" y2="76" class="arcrow"></line><line x1="210" y1="38" x2="210" y2="76" class="arcrow"></line><line x1="370" y1="38" x2="370" y2="76" class="arcrow"></line><line x1="530" y1="38" x2="530" y2="76" class="arcrow"></line><line x1="690" y1="38" x2="690" y2="76" class="arcrow"></line><line x1="50" y1="76" x2="50" y2="114" class="arcrow"></line><line x1="210" y1="76" x2="210" y2="114" class="arcrow"></line><line x1="370" y1="76" x2="370" y2="114" class="arcrow"></line><line x1="530" y1="76" x2="530" y2="114" class="arcrow"></line><line x1="690" y1="76" x2="690" y2="114" class="arcrow"></line><line x1="50" y1="114" x2="50" y2="152" class="arcrow"></line><line x1="210" y1="114" x2="210" y2="152" class="arcrow"></line><line x1="370" y1="114" x2="370" y2="152" class="arcrow"></line><line x1="530" y1="114" x2="530" y2="152" class="arcrow"></line><line x1="690" y1="114" x2="690" y2="152" class="arcrow"></line><line x1="50" y1="152" x2="50" y2="190" class="arcrow"></line><line x1="210" y1="152" x2="210" y2="190" class="arcrow"></line><line x1="370" y1="152" x2="370" y2="190" class="arcrow"></line><line x1="530" y1="152" x2="530" y2="190" class="arcrow"></line><line x1="690" y1="152" x2="690" y2="190" class="arcrow"></line><line x1="50" y1="190" x2="50" y2="228" class="arcrow"></line><line x1="210" y1="190" x2="210" y2="228" class="arcrow"></line><line x1="370" y1="190" x2="370" y2="228" class="arcrow"></line><line x1="530" y1="190" x2="530" y2="228" class="arcrow"></line><line x1="690" y1="190" x2="690" y2="228" class="arcrow"></line><line x1="50" y1="228" x2="50" y2="266" class="arcrow"></line><line x1="210" y1="228" x2="210" y2="266" class="arcrow"></line><line x1="370" y1="228" x2="370" y2="266" class="arcrow"></line><line x1="530" y1="228" x2="530" y2="266" class="arcrow"></line><line x1="690" y1="228" x2="690" y2="266" class="arcrow"></line><line x1="50" y1="266" x2="50" y2="332.5" class="arcrow"></line><line x1="210" y1="266" x2="210" y2="332.5" class="arcrow"></line><line x1="370" y1="266" x2="370" y2="332.5" class="arcrow"></line><line x1="530" y1="266" x2="530" y2="332.5" class="arcrow"></line><line x1="690" y1="266" x2="690" y2="332.5" class="arcrow"></line><line x1="50" y1="332.5" x2="50" y2="370.5" class="arcrow"></line><line x1="210" y1="332.5" x2="210" y2="370.5" class="arcrow"></line><line x1="370" y1="332.5" x2="370" y2="370.5" class="arcrow"></line><line x1="530" y1="332.5" x2="530" y2="370.5" class="arcrow"></line><line x1="690" y1="332.5" x2="690" y2="370.5" class="arcrow"></line><line x1="50" y1="370.5" x2="50" y2="408.5" class="arcrow"></line><line x1="210" y1="370.5" x2="210" y2="408.5" class="arcrow"></line><line x1="370" y1="370.5" x2="370" y2="408.5" class="arcrow"></line><line x1="530" y1="370.5" x2="530" y2="408.5" class="arcrow"></line><line x1="690" y1="370.5" x2="690" y2="408.5" class="arcrow"></line><line x1="50" y1="408.5" x2="50" y2="446.5" class="arcrow"></line><line x1="210" y1="408.5" x2="210" y2="446.5" class="arcrow"></line><line x1="370" y1="408.5" x2="370" y2="446.5" class="arcrow"></line><line x1="530" y1="408.5" x2="530" y2="446.5" class="arcrow"></line><line x1="690" y1="408.5" x2="690" y2="446.5" class="arcrow"></line></g><g id="mscgenjs__svg_sequence"><g><g><rect width="100" height="38" class="entity"></rect><g><text x="50" y="22" class="entity-text "><tspan>a</tspan></text></g></g><g><rect width="100" height="38" x="160" class="entity"></rect><g><text x="210" y="22" class="entity-text "><tspan>b</tspan></text></g></g><g><rect width="100" height="38" x="320" class="entity"></rect><g><text x="370" y="22" class="entity-text "><tspan>c</tspan></text></g></g><g><rect width="100" height="38" x="480" class="entity"></rect><g><text x="530" y="22" class="entity-text "><tspan>d</tspan></text></g></g><g><rect width="100" height="38" x="640" class="entity"></rect><g><text x="690" y="22" class="entity-text "><tspan>e</tspan></text></g></g></g><g><line x1="50" y1="95" x2="210" y2="95" class="arc directional callback" style="stroke:black" marker-end="url(#mscgenjs__svgcallback-black)"></line><g><rect width="48.69" height="11.98" x="105.66" y="81.77" class="label-text-background"></rect><text x="130" y="91" class="directional-text callback-text "><tspan>Message</tspan></text></g></g><g><line x1="210" y1="133" x2="370" y2="133" class="arc directional callback" style="stroke:black" marker-end="url(#mscgenjs__svgcallback-black)"></line><g><rect width="99.94" height="11.98" x="240.03" y="119.77" class="label-text-background"></rect><text x="290" y="129" class="directional-text callback-text "><tspan>Gather stuff for me</tspan></text></g></g><g><line x1="370" y1="171" x2="210" y2="171" class="arc directional return" style="stroke:black" marker-end="url(#mscgenjs__svgcallback-black)"></line><g><rect width="73.34" height="11.98" x="253.33" y="157.77" class="label-text-background"></rect><text x="290" y="167" class="directional-text return-text "><tspan>gathered stuff</tspan></text></g></g><g><line x1="210" y1="209" x2="530" y2="209" class="arc directional callback" style="stroke:black" marker-end="url(#mscgenjs__svgcallback-black)"></line><g><rect width="126.63" height="11.98" x="306.69" y="195.77" class="label-text-background"></rect><text x="370" y="205" class="directional-text callback-text "><tspan>process (gathered stuff)</tspan></text></g></g><g><line x1="530" y1="247" x2="690" y2="247" class="arc directional callback" style="stroke:black" marker-end="url(#mscgenjs__svgcallback-black)"></line><g><rect width="105.34" height="11.98" x="557.33" y="233.77" class="label-text-background"></rect><text x="610" y="243" class="directional-text callback-text "><tspan>gather things based</tspan></text><rect width="39.34" height="12" x="590.33" y="248.75" class="label-text-background"></rect><text x="610" y="257.99" class="directional-text callback-text "><tspan>on stuff</tspan></text></g></g><g><g class="arc directional emphasised"><path d="M690,291.65 C766,291.75 766,310.45 705,310.45 " class="arc directional emphasised"></path><path d="M690,291.65 C770,291.75 770,314.45 705,314.45 " class="arc directional emphasised"></path><path d="M690,291.65 C770,291.75 770,312.45 690,312.45 " style="stroke:transparent;" marker-end="url(#mscgenjs__svgmethod-black)"></path></g><g><rect width="72" height="12" x="693" y="251.95" class="label-text-background"></rect><text x="693" y="261.19" class="directional-text emphasised-text anchor-start "><tspan>do something</tspan></text><rect width="47.95" height="12" x="693" y="264.92" class="label-text-background"></rect><text x="693" y="274.17" class="directional-text emphasised-text anchor-start "><tspan>frightfully</tspan></text><rect width="44.66" height="12" x="693" y="277.91" class="label-text-background"></rect><text x="693" y="287.15" class="directional-text emphasised-text anchor-start "><tspan>complex</tspan></text></g></g><g><line x1="690" y1="351.5" x2="530" y2="351.5" class="arc directional return" style="stroke:black" marker-end="url(#mscgenjs__svgcallback-black)"></line><g><rect width="93.31" height="11.98" x="563.34" y="338.27" class="label-text-background"></rect><text x="610" y="347.5" class="directional-text return-text "><tspan>gathered kerfuffle</tspan></text></g></g><g><line x1="530" y1="389.5" x2="210" y2="389.5" class="arc directional return" style="stroke:black" marker-end="url(#mscgenjs__svgcallback-black)"></line><g><rect width="81.34" height="11.98" x="329.33" y="376.27" class="label-text-background"></rect><text x="370" y="385.5" class="directional-text return-text "><tspan>processed stuff</tspan></text></g></g><g><line x1="210" y1="427.5" x2="50" y2="427.5" class="arc directional return" style="stroke:black" marker-end="url(#mscgenjs__svgcallback-black)"></line><g><rect width="54.03" height="11.98" x="102.98" y="414.27" class="label-text-background"></rect><text x="130" y="423.5" class="directional-text return-text "><tspan>Response</tspan></text></g></g></g><g id="mscgenjs__svg_notes"></g><g id="mscgenjs__svg_watermark"></g></g></svg>
