<svg version="1.1" id="mscgenjsreplaceme" class="mscgenjsreplaceme" xmlns="http://www.w3.org/2000/svg" xmlns:xlink="http://www.w3.org/1999/xlink" width="100%" height="100%" viewBox="0 0 816 458.80999755859375"><desc>

# Generated by mscgen_js - https://sverweij.github.io/mscgen_js
{"meta":{"extendedOptions":true,"extendedArcTypes":false,"extendedFeatures":true},"options":{"width":"auto","wordwraparcs":true},"arcs":[[{"kind":"=&gt;&gt;","from":"a","to":"b","label":"Message"}],[{"kind":"=&gt;&gt;","from":"b","to":"c","label":"Gather stuff for me"}],[{"kind":"&gt;&gt;","from":"c","to":"b","label":"gathered stuff"}],[{"kind":"=&gt;&gt;","from":"b","to":"d","label":"process (gathered stuff)"}],[{"kind":"=&gt;&gt;","from":"d","to":"e","label":"gather things based on stuff"}],[{"kind":":&gt;","from":"e","to":"e","label":"do something frightfully complex"}],[{"kind":"&gt;&gt;","from":"e","to":"d","label":"gathered kerfuffle"}],[{"kind":"&gt;&gt;","from":"d","to":"b","label":"processed stuff"}],[{"kind":"&gt;&gt;","from":"b","to":"a","label":"Response"}]],"entities":[{"name":"a"},{"name":"b"},{"name":"c"},{"name":"d"},{"name":"e"}]}</desc><defs><style type="text/css">svg.mscgenjsreplaceme{font-family:Helvetica,sans-serif;font-size:12px;font-weight:normal;font-style:normal;text-decoration:none;background-color:white;stroke:black;stroke-width:2}.mscgenjsreplaceme path, .mscgenjsreplaceme rect{fill:none}.mscgenjsreplaceme .label-text-background{fill:white;stroke:white;stroke-width:0}.mscgenjsreplaceme .bglayer{fill:white;stroke:white;stroke-width:0}.mscgenjsreplaceme line{}.mscgenjsreplaceme .return, .mscgenjsreplaceme .comment{stroke-dasharray:5,3}.mscgenjsreplaceme .inline_expression_divider{stroke-dasharray:10,5}.mscgenjsreplaceme text{color:inherit;stroke:none;text-anchor:middle}.mscgenjsreplaceme text.anchor-start{text-anchor:start}.mscgenjsreplaceme .arrow-marker{overflow:visible}.mscgenjsreplaceme .arrow-style{stroke-width:1}.mscgenjsreplaceme .arcrow, .mscgenjsreplaceme .arcrowomit, .mscgenjsreplaceme .emphasised{stroke-linecap:butt}.mscgenjsreplaceme .arcrowomit{stroke-dasharray:2,2}.mscgenjsreplaceme .box, .mscgenjsreplaceme .entity{fill:white;stroke-linejoin:round}.mscgenjsreplaceme .inherit{stroke:inherit;color:inherit}.mscgenjsreplaceme .inherit-fill{fill:inherit}.mscgenjsreplaceme .watermark{font-size:48pt;font-weight:bold;opacity:0.14}.mscgenjsreplaceme text.entity-text{font-weight:bold;}.mscgenjsreplaceme text.return-text{font-style:italic}.mscgenjsreplaceme path.note{fill:#FFFFCC}.mscgenjsreplaceme rect.label-text-background{opacity:0.9}.mscgenjsreplaceme line.comment,.mscgenjsreplaceme rect.inline_expression,.mscgenjsreplaceme .inline_expression_divider,.mscgenjsreplaceme .inline_expression_label{stroke:grey}</style><marker orient="auto" id="mscgenjsreplacemecallback-black" class="arrow-marker" viewBox="0 0 10 10" refX="9" refY="3" markerUnits="strokeWidth" markerWidth="10" markerHeight="10"><path d="M 1,1 l 8,2 l-8,2" class="arrow-style" style="stroke-dasharray:100,1;stroke:black"></path></marker><marker orient="auto" id="mscgenjsreplacemecallback-l-black" class="arrow-marker" viewBox="0 0 10 10" refX="9" refY="3" markerUnits="strokeWidth" markerWidth="10" markerHeight="10"><path d="M17,1 l-8,2 l 8,2" class="arrow-style" style="stroke-dasharray:100,1;stroke:black"></path></marker><marker orient="auto" id="mscgenjsreplacememethod-black" class="arrow-marker" viewBox="0 0 10 10" refX="9" refY="3" markerUnits="strokeWidth" markerWidth="10" markerHeight="10"><polygon points="1,1  9,3  1,5" class="arrow-style" stroke="black" fill="black"></polygon></marker><marker orient="auto" id="mscgenjsreplacememethod-l-black" class="arrow-marker" viewBox="0 0 10 10" refX="9" refY="3" markerUnits="strokeWidth" markerWidth="10" markerHeight="10"><polygon points="17,1 9,3 17,5" class="arrow-style" stroke="black" fill="black"></polygon></marker></defs><g id="mscgenjsreplaceme_body" transform="translate(38,3) scale(1,1)"><g id="mscgenjsreplaceme_background"><rect width="816" height="458.81" x="-38" y="-3" class="bglayer"></rect></g><g id="mscgenjsreplaceme_arcspans"></g><g id="mscgenjsreplaceme_lifelines"><line x1="50" y1="38" x2="50" y2="76" class="arcrow"></line><line x1="210" y1="38" x2="210" y2="76" class="arcrow"></line><line x1="370" y1="38" x2="370" y2="76" class="arcrow"></line><line x1="530" y1="38" x2="530" y2="76" class="arcrow"></line><line x1="690" y1="38" x2="690" y2="76" class="arcrow"></line><line x1="50" y1="76" x2="50" y2="114" class="arcrow"></line><line x1="210" y1="76" x2="210" y2="114" class="arcrow"></line><line x1="370" y1="76" x2="370" y2="114" class="arcrow"></line><line x1="530" y1="76" x2="530" y2="114" class="arcrow"></line><line x1="690" y1="76" x2="690" y2="114" class="arcrow"></line><line x1="50" y1="114" x2="50" y2="152" class="arcrow"></line><line x1="210" y1="114" x2="210" y2="152" class="arcrow"></line><line x1="370" y1="114" x2="370" y2="152" class="arcrow"></line><line x1="530" y1="114" x2="530" y2="152" class="arcrow"></line><line x1="690" y1="114" x2="690" y2="152" class="arcrow"></line><line x1="50" y1="152" x2="50" y2="190" class="arcrow"></line><line x1="210" y1="152" x2="210" y2="190" class="arcrow"></line><line x1="370" y1="152" x2="370" y2="190" class="arcrow"></line><line x1="530" y1="152" x2="530" y2="190" class="arcrow"></line><line x1="690" y1="152" x2="690" y2="190" class="arcrow"></line><line x1="50" y1="190" x2="50" y2="228" class="arcrow"></line><line x1="210" y1="190" x2="210" y2="228" class="arcrow"></line><line x1="370" y1="190" x2="370" y2="228" class="arcrow"></line><line x1="530" y1="190" x2="530" y2="228" class="arcrow"></line><line x1="690" y1="190" x2="690" y2="228" class="arcrow"></line><line x1="50" y1="228" x2="50" y2="266" class="arcrow"></line><line x1="210" y1="228" x2="210" y2="266" class="arcrow"></line><line x1="370" y1="228" x2="370" y2="266" class="arcrow"></line><line x1="530" y1="228" x2="530" y2="266" class="arcrow"></line><line x1="690" y1="228" x2="690" y2="266" class="arcrow"></line><line x1="50" y1="266" x2="50" y2="338.81" class="arcrow"></line><line x1="210" y1="266" x2="210" y2="338.81" class="arcrow"></line><line x1="370" y1="266" x2="370" y2="338.81" class="arcrow"></line><line x1="530" y1="266" x2="530" y2="338.81" class="arcrow"></line><line x1="690" y1="266" x2="690" y2="338.81" class="arcrow"></line><line x1="50" y1="338.81" x2="50" y2="376.81" class="arcrow"></line><line x1="210" y1="338.81" x2="210" y2="376.81" class="arcrow"></line><line x1="370" y1="338.81" x2="370" y2="376.81" class="arcrow"></line><line x1="530" y1="338.81" x2="530" y2="376.81" class="arcrow"></line><line x1="690" y1="338.81" x2="690" y2="376.81" class="arcrow"></line><line x1="50" y1="376.81" x2="50" y2="414.81" class="arcrow"></line><line x1="210" y1="376.81" x2="210" y2="414.81" class="arcrow"></line><line x1="370" y1="376.81" x2="370" y2="414.81" class="arcrow"></line><line x1="530" y1="376.81" x2="530" y2="414.81" class="arcrow"></line><line x1="690" y1="376.81" x2="690" y2="414.81" class="arcrow"></line><line x1="50" y1="414.81" x2="50" y2="452.81" class="arcrow"></line><line x1="210" y1="414.81" x2="210" y2="452.81" class="arcrow"></line><line x1="370" y1="414.81" x2="370" y2="452.81" class="arcrow"></line><line x1="530" y1="414.81" x2="530" y2="452.81" class="arcrow"></line><line x1="690" y1="414.81" x2="690" y2="452.81" class="arcrow"></line></g><g id="mscgenjsreplaceme_sequence"><g><g><rect width="100" height="38" class="entity"></rect><g><text x="50" y="22.5" class="entity-text "><tspan>a</tspan></text></g></g><g><rect width="100" height="38" x="160" class="entity"></rect><g><text x="210" y="22.5" class="entity-text "><tspan>b</tspan></text></g></g><g><rect width="100" height="38" x="320" class="entity"></rect><g><text x="370" y="22.5" class="entity-text "><tspan>c</tspan></text></g></g><g><rect width="100" height="38" x="480" class="entity"></rect><g><text x="530" y="22.5" class="entity-text "><tspan>d</tspan></text></g></g><g><rect width="100" height="38" x="640" class="entity"></rect><g><text x="690" y="22.5" class="entity-text "><tspan>e</tspan></text></g></g></g><g><line x1="50" y1="95" x2="210" y2="95" class="arc directional callback" style="stroke:black" marker-end="url(#mscgenjsreplacemecallback-black)"></line><g><rect width="48.69" height="14" x="105.64" y="79.5" class="label-text-background"></rect><text x="130" y="90.5" class="directional-text callback-text "><tspan>Message</tspan></text></g></g><g><line x1="210" y1="133" x2="370" y2="133" class="arc directional callback" style="stroke:black" marker-end="url(#mscgenjsreplacemecallback-black)"></line><g><rect width="99.81" height="14" x="240.08" y="117.5" class="label-text-background"></rect><text x="290" y="128.5" class="directional-text callback-text "><tspan>Gather stuff for me</tspan></text></g></g><g><line x1="370" y1="171" x2="210" y2="171" class="arc directional return" style="stroke:black" marker-end="url(#mscgenjsreplacemecallback-black)"></line><g><rect width="74.81" height="14" x="253.41" y="155.5" class="label-text-background"></rect><text x="290" y="166.5" class="directional-text return-text "><tspan>gathered stuff</tspan></text></g></g><g><line x1="210" y1="209" x2="530" y2="209" class="arc directional callback" style="stroke:black" marker-end="url(#mscgenjsreplacemecallback-black)"></line><g><rect width="126.52" height="14" x="306.73" y="193.5" class="label-text-background"></rect><text x="370" y="204.5" class="directional-text callback-text "><tspan>process (gathered stuff)</tspan></text></g></g><g><line x1="530" y1="247" x2="690" y2="247" class="arc directional callback" style="stroke:black" marker-end="url(#mscgenjsreplacemecallback-black)"></line><g><rect width="105.41" height="14" x="557.28" y="231.5" class="label-text-background"></rect><text x="610" y="242.5" class="directional-text callback-text "><tspan>gather things based</tspan></text><rect width="39.14" height="14" x="590.42" y="248.5" class="label-text-background"></rect><text x="610" y="259.5" class="directional-text callback-text "><tspan>on stuff</tspan></text></g></g><g><g class="arc directional emphasised"><path d="M690,294.8 C766,294.9 766,313.6 705,313.6 " class="arc directional emphasised"></path><path d="M690,294.8 C770,294.9 770,317.6 705,317.6 " class="arc directional emphasised"></path><path d="M690,294.8 C770,294.9 770,315.6 690,315.6 " style="stroke:transparent;" marker-end="url(#mscgenjsreplacememethod-black)"></path></g><g><rect width="72.05" height="14" x="693" y="248.8" class="label-text-background"></rect><text x="693" y="259.8" class="directional-text emphasised-text anchor-start "><tspan>do something</tspan></text><rect width="48.02" height="14" x="693" y="263.8" class="label-text-background"></rect><text x="693" y="274.8" class="directional-text emphasised-text anchor-start "><tspan>frightfully</tspan></text><rect width="44.67" height="14" x="693" y="278.8" class="label-text-background"></rect><text x="693" y="289.8" class="directional-text emphasised-text anchor-start "><tspan>complex</tspan></text></g></g><g><line x1="690" y1="357.81" x2="530" y2="357.81" class="arc directional return" style="stroke:black" marker-end="url(#mscgenjsreplacemecallback-black)"></line><g><rect width="93.69" height="14" x="563.3" y="342.3" class="label-text-background"></rect><text x="610" y="353.31" class="directional-text return-text "><tspan>gathered kerfuffle</tspan></text></g></g><g><line x1="530" y1="395.81" x2="210" y2="395.81" class="arc directional return" style="stroke:black" marker-end="url(#mscgenjsreplacemecallback-black)"></line><g><rect width="82.8" height="14" x="329.41" y="380.3" class="label-text-background"></rect><text x="370" y="391.31" class="directional-text return-text "><tspan>processed stuff</tspan></text></g></g><g><line x1="210" y1="433.81" x2="50" y2="433.81" class="arc directional return" style="stroke:black" marker-end="url(#mscgenjsreplacemecallback-black)"></line><g><rect width="54.33" height="14" x="102.97" y="418.3" class="label-text-background"></rect><text x="130" y="429.31" class="directional-text return-text "><tspan>Response</tspan></text></g></g></g><g id="mscgenjsreplaceme_notes"></g><g id="mscgenjsreplaceme_watermark"></g></g></svg>