<svg version="1.1" id="mscgenjs__svg" class="mscgenjs__svg" xmlns="http://www.w3.org/2000/svg" xmlns:xlink="http://www.w3.org/1999/xlink" width="736" height="558.6787338256836" viewBox="0 0 736 558.6787338256836"><defs><style type="text/css">svg.mscgenjs__svg{font-family:Helvetica,sans-serif;font-size:12px;font-weight:normal;font-style:normal;text-decoration:none;background-color:white;stroke:black;stroke-width:2}.mscgenjs__svg path, .mscgenjs__svg rect{fill:none}.mscgenjs__svg .label-text-background{fill:white;stroke:white;stroke-width:0}.mscgenjs__svg .bglayer{fill:white;stroke:white;stroke-width:0}.mscgenjs__svg line{}.mscgenjs__svg .return, .mscgenjs__svg .comment{stroke-dasharray:5,3}.mscgenjs__svg .inline_expression_divider{stroke-dasharray:10,5}.mscgenjs__svg text{color:inherit;stroke:none;text-anchor:middle}.mscgenjs__svg text.anchor-start{text-anchor:start}.mscgenjs__svg .arrow-marker{overflow:visible}.mscgenjs__svg .arrow-style{stroke-width:1}.mscgenjs__svg .arcrow, .mscgenjs__svg .arcrowomit, .mscgenjs__svg .emphasised{stroke-linecap:butt}.mscgenjs__svg .arcrowomit{stroke-dasharray:2,2}.mscgenjs__svg .box, .mscgenjs__svg .entity{fill:white;stroke-linejoin:round}.mscgenjs__svg .inherit{stroke:inherit;color:inherit}.mscgenjs__svg .inherit-fill{fill:inherit}.mscgenjs__svg .watermark{font-size:48pt;font-weight:bold;opacity:0.14}.mscgenjs__svg text.entity-text{font-weight:bold;}.mscgenjs__svg text.return-text{font-style:italic}.mscgenjs__svg path.note{fill:#FFFFCC}.mscgenjs__svg rect.label-text-background{opacity:0.9}.mscgenjs__svg line.comment,.mscgenjs__svg rect.inline_expression,.mscgenjs__svg .inline_expression_divider,.mscgenjs__svg .inline_expression_label{stroke:grey}</style><marker orient="auto" id="mscgenjs__svgcallback-black" class="arrow-marker" viewBox="0 0 10 10" refX="9" refY="3" markerUnits="strokeWidth" markerWidth="10" markerHeight="10"><path d="M 1,1 l 8,2 l-8,2" class="arrow-style" style="stroke-dasharray:100,1;stroke:black"></path></marker><marker orient="auto" id="mscgenjs__svgcallback-l-black" class="arrow-marker" viewBox="0 0 10 10" refX="9" refY="3" markerUnits="strokeWidth" markerWidth="10" markerHeight="10"><path d="M17,1 l-8,2 l 8,2" class="arrow-style" style="stroke-dasharray:100,1;stroke:black"></path></marker><marker orient="auto" id="mscgenjs__svglost-black" class="arrow-marker" viewBox="0 0 10 10" refX="9" refY="3" markerUnits="strokeWidth" markerWidth="10" markerHeight="10"><path d="M7,0 l5,6 M7,6 l5,-6" class="arrow-style" style="stroke-dasharray:100,1;stroke:black"></path></marker><marker orient="auto" id="mscgenjs__svgmethod-black" class="arrow-marker" viewBox="0 0 10 10" refX="9" refY="3" markerUnits="strokeWidth" markerWidth="10" markerHeight="10"><polygon points="1,1  9,3  1,5" class="arrow-style" stroke="black" fill="black"></polygon></marker><marker orient="auto" id="mscgenjs__svgmethod-l-black" class="arrow-marker" viewBox="0 0 10 10" refX="9" refY="3" markerUnits="strokeWidth" markerWidth="10" markerHeight="10"><polygon points="17,1 9,3 17,5" class="arrow-style" stroke="black" fill="black"></polygon></marker><marker orient="auto" id="mscgenjs__svgsignal-black" class="arrow-marker" viewBox="0 0 10 10" refX="9" refY="3" markerUnits="strokeWidth" markerWidth="10" markerHeight="10"><path d="M9,3 l-8, 2" class="arrow-style" style="stroke-dasharray:100,1;stroke:black"></path></marker><marker orient="auto" id="mscgenjs__svgsignal-u-black" class="arrow-marker" viewBox="0 0 10 10" refX="9" refY="3" markerUnits="strokeWidth" markerWidth="10" markerHeight="10"><path d="M9,3 l-8,-2" class="arrow-style" style="stroke-dasharray:100,1;stroke:black"></path></marker><marker orient="auto" id="mscgenjs__svgsignal-l-black" class="arrow-marker" viewBox="0 0 10 10" refX="9" refY="3" markerUnits="strokeWidth" markerWidth="10" markerHeight="10"><path d="M9,3 l 8, 2" class="arrow-style" style="stroke-dasharray:100,1;stroke:black"></path></marker><marker orient="auto" id="mscgenjs__svgsignal-lu-black" class="arrow-marker" viewBox="0 0 10 10" refX="9" refY="3" markerUnits="strokeWidth" markerWidth="10" markerHeight="10"><path d="M9,3 l 8,-2" class="arrow-style" style="stroke-dasharray:100,1;stroke:black"></path></marker></defs><g id="mscgenjs__svg_body" transform="translate(35,3) scale(1,1)"><g id="mscgenjs__svg_background"><rect width="736" height="558.68" x="-35" y="-3" class="bglayer"></rect></g><g id="mscgenjs__svg_arcspans"><rect width="720" height="324.68" x="-27" y="95" class="box inline_expression alt"></rect></g><g id="mscgenjs__svg_lifelines"><line x1="45" y1="38" x2="45" y2="76" class="arcrow"></line><line x1="189" y1="38" x2="189" y2="76" class="arcrow"></line><line x1="333" y1="38" x2="333" y2="76" class="arcrow"></line><line x1="477" y1="38" x2="477" y2="76" class="arcrow"></line><line x1="621" y1="38" x2="621" y2="76" class="arcrow"></line><line x1="45" y1="76" x2="45" y2="114" class="arcrow"></line><line x1="189" y1="76" x2="189" y2="114" class="arcrow"></line><line x1="333" y1="76" x2="333" y2="114" class="arcrow"></line><line x1="477" y1="76" x2="477" y2="114" class="arcrow"></line><line x1="621" y1="76" x2="621" y2="114" class="arcrow"></line><line x1="45" y1="114" x2="45" y2="154.54" class="arcrow"></line><line x1="189" y1="114" x2="189" y2="154.54" class="arcrow"></line><line x1="333" y1="114" x2="333" y2="154.54" class="arcrow"></line><line x1="477" y1="114" x2="477" y2="154.54" class="arcrow"></line><line x1="621" y1="114" x2="621" y2="154.54" class="arcrow"></line><line x1="45" y1="154.54" x2="45" y2="195.09" class="arcrow"></line><line x1="189" y1="154.54" x2="189" y2="195.09" class="arcrow"></line><line x1="333" y1="154.54" x2="333" y2="195.09" class="arcrow"></line><line x1="477" y1="154.54" x2="477" y2="195.09" class="arcrow"></line><line x1="621" y1="154.54" x2="621" y2="195.09" class="arcrow"></line><line x1="45" y1="195.09" x2="45" y2="235.63" class="arcrow"></line><line x1="189" y1="195.09" x2="189" y2="235.63" class="arcrow"></line><line x1="333" y1="195.09" x2="333" y2="235.63" class="arcrow"></line><line x1="477" y1="195.09" x2="477" y2="235.63" class="arcrow"></line><line x1="621" y1="195.09" x2="621" y2="235.63" class="arcrow"></line><line x1="45" y1="235.63" x2="45" y2="281.59" class="arcrow"></line><line x1="189" y1="235.63" x2="189" y2="281.59" class="arcrow"></line><line x1="333" y1="235.63" x2="333" y2="281.59" class="arcrow"></line><line x1="477" y1="235.63" x2="477" y2="281.59" class="arcrow"></line><line x1="621" y1="235.63" x2="621" y2="281.59" class="arcrow"></line><line x1="45" y1="281.59" x2="45" y2="319.59" class="arcrow"></line><line x1="189" y1="281.59" x2="189" y2="319.59" class="arcrow"></line><line x1="333" y1="281.59" x2="333" y2="319.59" class="arcrow"></line><line x1="477" y1="281.59" x2="477" y2="319.59" class="arcrow"></line><line x1="621" y1="281.59" x2="621" y2="319.59" class="arcrow"></line><line x1="45" y1="319.59" x2="45" y2="360.13" class="arcrow"></line><line x1="189" y1="319.59" x2="189" y2="360.13" class="arcrow"></line><line x1="333" y1="319.59" x2="333" y2="360.13" class="arcrow"></line><line x1="477" y1="319.59" x2="477" y2="360.13" class="arcrow"></line><line x1="621" y1="319.59" x2="621" y2="360.13" class="arcrow"></line><line x1="45" y1="360.13" x2="45" y2="400.68" class="arcrow"></line><line x1="189" y1="360.13" x2="189" y2="400.68" class="arcrow"></line><line x1="333" y1="360.13" x2="333" y2="400.68" class="arcrow"></line><line x1="477" y1="360.13" x2="477" y2="400.68" class="arcrow"></line><line x1="621" y1="360.13" x2="621" y2="400.68" class="arcrow"></line><line x1="45" y1="400.68" x2="45" y2="438.68" class="arcrow"></line><line x1="189" y1="400.68" x2="189" y2="438.68" class="arcrow"></line><line x1="333" y1="400.68" x2="333" y2="438.68" class="arcrow"></line><line x1="477" y1="400.68" x2="477" y2="438.68" class="arcrow"></line><line x1="621" y1="400.68" x2="621" y2="438.68" class="arcrow"></line><line x1="45" y1="438.68" x2="45" y2="476.68" class="arcrow"></line><line x1="189" y1="438.68" x2="189" y2="476.68" class="arcrow"></line><line x1="333" y1="438.68" x2="333" y2="476.68" class="arcrow"></line><line x1="477" y1="438.68" x2="477" y2="476.68" class="arcrow"></line><line x1="621" y1="438.68" x2="621" y2="476.68" class="arcrow"></line><line x1="45" y1="476.68" x2="45" y2="514.68" class="arcrowomit"></line><line x1="189" y1="476.68" x2="189" y2="514.68" class="arcrowomit"></line><line x1="333" y1="476.68" x2="333" y2="514.68" class="arcrowomit"></line><line x1="477" y1="476.68" x2="477" y2="514.68" class="arcrowomit"></line><line x1="621" y1="476.68" x2="621" y2="514.68" class="arcrowomit"></line><line x1="45" y1="514.68" x2="45" y2="552.68" class="arcrow"></line><line x1="189" y1="514.68" x2="189" y2="552.68" class="arcrow"></line><line x1="333" y1="514.68" x2="333" y2="552.68" class="arcrow"></line><line x1="477" y1="514.68" x2="477" y2="552.68" class="arcrow"></line><line x1="621" y1="514.68" x2="621" y2="552.68" class="arcrow"></line></g><g id="mscgenjs__svg_sequence"><g><g><rect width="90" height="38" class="entity"></rect><g><text x="45" y="22" class="entity-text "><tspan>a</tspan></text></g></g><g><rect width="90" height="38" x="144" class="entity"></rect><g><text x="189" y="22" class="entity-text "><tspan>b</tspan></text></g></g><g><rect width="90" height="38" x="288" class="entity"></rect><g><text x="333" y="22" class="entity-text "><tspan>c</tspan></text></g></g><g><rect width="90" height="38" x="432" class="entity"></rect><g><text x="477" y="22" class="entity-text "><tspan>e</tspan></text></g></g><g><rect width="90" height="38" x="576" class="entity"></rect><g><text x="621" y="22" class="entity-text "><tspan>d</tspan></text></g></g></g><g><line x1="45" y1="134.27" x2="189" y2="134.27" class="arc directional signal" style="stroke:black" marker-end="url(#mscgenjs__svgsignal-black)"></line><g><rect width="73.63" height="12" x="80.19" y="121.03" class="label-text-background"></rect><text x="117" y="130.28" class="directional-text signal-text "><tspan>a -&gt; b  (signal)</tspan></text></g></g><g><line x1="189" y1="134.27" x2="333" y2="134.27" class="arc bidirectional signal" style="stroke:black" marker-end="url(#mscgenjs__svgsignal-black)" marker-start="url(#mscgenjs__svgsignal-l-black)"></line><g><rect width="37.31" height="12" x="242.34" y="121.03" class="label-text-background"></rect><text x="261" y="130.28" class="bidirectional-text signal-text "><tspan>b &lt;-&gt; c</tspan></text></g></g><g><line x1="333" y1="134.27" x2="621" y2="134.27" class="arc nondirectional signal" style="stroke:black"></line><g><rect width="27.31" height="12" x="463.34" y="121.03" class="label-text-background"></rect><text x="477" y="130.28" class="nondirectional-text signal-text "><tspan>c -- d</tspan></text></g></g><g><path d="M621,126.67 C693,126.77 693,149.47 621,149.47 " class="arc directional signal" style="stroke:black" marker-end="url(#mscgenjs__svgsignal-u-black)"></path><g><rect width="30.98" height="12" x="624" y="112.94" class="label-text-background"></rect><text x="624" y="122.18" class="directional-text signal-text anchor-start "><tspan>d -&gt; d</tspan></text></g></g><g><line x1="45" y1="174.82" x2="189" y2="174.82" class="arc directional method" style="stroke:black" marker-end="url(#mscgenjs__svgmethod-black)"></line><g><rect width="85.31" height="12" x="74.34" y="161.58" class="label-text-background"></rect><text x="117" y="170.82" class="directional-text method-text "><tspan>a =&gt; b  (method)</tspan></text></g></g><g><line x1="189" y1="174.82" x2="333" y2="174.82" class="arc bidirectional method" style="stroke:black" marker-end="url(#mscgenjs__svgmethod-black)" marker-start="url(#mscgenjs__svgmethod-l-black)"></line><g><rect width="40.34" height="12" x="240.83" y="161.58" class="label-text-background"></rect><text x="261" y="170.82" class="bidirectional-text method-text "><tspan>b &lt;=&gt; c</tspan></text></g></g><g><path d="M621,167.22 C693,167.32 693,190.02 621,190.02 " class="arc directional method" style="stroke:black" marker-end="url(#mscgenjs__svgmethod-black)"></path><g><rect width="34" height="12" x="624" y="153.48" class="label-text-background"></rect><text x="624" y="162.72" class="directional-text method-text anchor-start "><tspan>d =&gt; d</tspan></text></g></g><g><line x1="189" y1="215.36" x2="45" y2="215.36" class="arc directional return" style="stroke:black" marker-end="url(#mscgenjs__svgcallback-black)"></line><g><rect width="108.63" height="12" x="62.69" y="202.13" class="label-text-background"></rect><text x="117" y="211.36" class="directional-text return-text "><tspan>b &gt;&gt; a (return value)</tspan></text></g></g><g><line x1="189" y1="215.36" x2="333" y2="215.36" class="arc bidirectional return" style="stroke:black" marker-end="url(#mscgenjs__svgcallback-black)" marker-start="url(#mscgenjs__svgcallback-l-black)"></line><g><rect width="47.34" height="12" x="237.33" y="202.13" class="label-text-background"></rect><text x="261" y="211.36" class="bidirectional-text return-text "><tspan>b &lt;&lt;&gt;&gt; c</tspan></text></g></g><g><line x1="333" y1="215.36" x2="621" y2="215.36" class="arc nondirectional return" style="stroke:black"></line><g><rect width="70.63" height="12" x="441.69" y="202.13" class="label-text-background"></rect><text x="477" y="211.36" class="nondirectional-text return-text "><tspan>c .. d (dotted)</tspan></text></g></g><g><path d="M621,207.76 C693,207.86 693,230.56 621,230.56 " class="arc directional return" style="stroke:black" marker-end="url(#mscgenjs__svgcallback-black)"></path><g><rect width="34" height="12" x="624" y="194.02" class="label-text-background"></rect><text x="624" y="203.26" class="directional-text return-text anchor-start "><tspan>d &gt;&gt; d</tspan></text></g></g><g><line x1="45" y1="258.61" x2="189" y2="258.61" class="arc directional callback" style="stroke:black" marker-end="url(#mscgenjs__svgcallback-black)"></line><g><rect width="95.63" height="12" x="69.19" y="245.38" class="label-text-background"></rect><text x="117" y="254.62" class="directional-text callback-text "><tspan>a =&gt;&gt; b (callback)</tspan></text></g></g><g><line x1="189" y1="258.61" x2="333" y2="258.61" class="arc bidirectional callback" style="stroke:black" marker-end="url(#mscgenjs__svgcallback-black)" marker-start="url(#mscgenjs__svgcallback-l-black)"></line><g><rect width="54.34" height="12" x="233.83" y="245.38" class="label-text-background"></rect><text x="261" y="254.62" class="bidirectional-text callback-text "><tspan>b &lt;&lt;=&gt;&gt; c</tspan></text></g></g><g><path d="M621,251.01 C693,251.11 693,273.81 621,273.81 " class="arc directional callback" style="stroke:black" marker-end="url(#mscgenjs__svgcallback-black)"></path><g><rect width="41" height="12" x="624" y="237.28" class="label-text-background"></rect><text x="624" y="246.52" class="directional-text callback-text anchor-start "><tspan>d =&gt;&gt; d</tspan></text></g></g><g><line x1="-27" y1="300.59" x2="693" y2="300.59" class="inline_expression_divider"></line><g><rect width="143.31" height="12" x="261.34" y="294.34" class="label-text-background"></rect><text x="333" y="303.59" class="empty-text comment-row-text "><tspan>inline expression separator</tspan></text></g></g><g><line x1="45" y1="339.86" x2="153" y2="339.86" class="arc directional lost" style="stroke:black" marker-end="url(#mscgenjs__svglost-black)"></line><g><rect width="59.94" height="12" x="69.03" y="326.63" class="label-text-background"></rect><text x="99" y="335.87" class="directional-text lost-text "><tspan>a -x b  (lost)</tspan></text></g></g><g><path d="M621,332.26 C693,332.36 693,355.06 636,355.06 " class="arc directional lost" style="stroke:black" marker-end="url(#mscgenjs__svglost-black)"></path><g><rect width="29.98" height="12" x="624" y="318.53" class="label-text-background"></rect><text x="624" y="327.77" class="directional-text lost-text anchor-start "><tspan>d -x d</tspan></text></g></g><g><path d="M45,380.41 l1,0 M45,378.41 l129,0 M45,382.41 l129,0 M188,380.41 l1,0 " class="arc directional emphasised" style="stroke:black;" marker-end="url(#mscgenjs__svgmethod-black)"></path><g><rect width="92.97" height="12" x="70.52" y="367.17" class="label-text-background"></rect><text x="117" y="376.41" class="directional-text emphasised-text "><tspan>a :&gt; b  (emphasis)</tspan></text></g></g><g><path d="M189,380.41 l1,0 M204,378.41 l114,0 M204,382.41 l114,0 M332,380.41 l1,0 " class="arc bidi bidirectional emphasised" style="stroke:black" marker-end="url(#mscgenjs__svgmethod-black)" marker-start="url(#mscgenjs__svgmethod-l-black)"></path><g><rect width="36.66" height="12" x="242.67" y="367.17" class="label-text-background"></rect><text x="261" y="376.41" class="bidirectional-text emphasised-text "><tspan>b &lt;:&gt; c</tspan></text></g></g><g><g class="arc directional emphasised"><path d="M621,372.81 C689,372.91 689,391.61 636,391.61 " class="arc directional emphasised"></path><path d="M621,372.81 C693,372.91 693,395.61 636,395.61 " class="arc directional emphasised"></path><path d="M621,372.81 C693,372.91 693,393.61 621,393.61 " style="stroke:transparent;" marker-end="url(#mscgenjs__svgmethod-black)"></path></g><g><rect width="30.33" height="12" x="624" y="359.06" class="label-text-background"></rect><text x="624" y="368.31" class="directional-text emphasised-text anchor-start "><tspan>d :&gt; d</tspan></text></g></g><g></g><g><rect width="75.94" height="12" x="295.03" y="451.42" class="label-text-background"></rect><text x="333" y="460.67" class="empty-text empty-row-text "><tspan>||| (empty row)</tspan></text></g><g><rect width="83.25" height="12" x="291.38" y="489.42" class="label-text-background"></rect><text x="333" y="498.67" class="empty-text omitted-row-text "><tspan>... (omitted row)</tspan></text></g><g><line x1="0" y1="533.68" x2="666" y2="533.68" class="comment"></line><g><rect width="72.56" height="12" x="296.72" y="527.42" class="label-text-background"></rect><text x="333" y="536.67" class="empty-text comment-row-text "><tspan>--- (comment)</tspan></text></g></g></g><g id="mscgenjs__svg_notes"><g><path d="M-26,95 l117.63,0 l0,8.98 l-7,7 l-110.62,0 " class="box inline_expression_label"></path><g><text x="-24" y="107.5" class="inline_expression-text alt-text anchor-start "><tspan>alt: inline expression</tspan></text></g></g><g><path d="M409,117.27 l127,0 l0,9 l9,0 m-9,-9 l9,9 l0,25 l-136,0 l0,-34 z" class="box note"></path><g><text x="477" y="130.78" class="box-text note-text "><tspan>e note e </tspan></text><text x="477" y="143.76" class="box-text note-text "><tspan>(note)</tspan></text></g></g><g><rect width="136" height="34" x="409" y="157.82" class="box"></rect><g><text x="477" y="171.32" class="box-text "><tspan>e box e</tspan></text><text x="477" y="184.3" class="box-text "><tspan>(action)</tspan></text></g></g><g><rect width="136" height="34" x="409" y="198.36" rx="6" ry="6" class="box rbox"></rect><g><text x="477" y="211.86" class="box-text rbox-text "><tspan>e rbox e</tspan></text><text x="477" y="224.85" class="box-text rbox-text "><tspan>(reference)</tspan></text></g></g><g><path d="M409,258.61 l3,-20.98 l130,0 l3,20.98 l-3,20.98 l-130,0 z" class="box abox"></path><g><text x="477" y="248.62" class="box-text abox-text "><tspan>e abox e</tspan></text><text x="477" y="261.61" class="box-text abox-text "><tspan>(state/</tspan></text><text x="477" y="274.59" class="box-text abox-text "><tspan>condition)</tspan></text></g></g></g><g id="mscgenjs__svg_watermark"><text x="368" y="279.34" class="watermark" transform="rotate(-37.2 368 279.34)"><tspan>This is a 序 watermark</tspan></text></g></g></svg>
