<!DOCTYPE svg [<!ENTITY nbsp "&#160;">]><svg version="1.1" id="mscgenjsreplaceme" class="mscgenjsreplaceme" xmlns="http://www.w3.org/2000/svg" xmlns:xlink="http://www.w3.org/1999/xlink" width="736" height="589.0499877929688" viewBox="0 0 736 589.0499877929688"><desc>

# Generated by mscgen_js - https://sverweij.github.io/mscgen_js
{"precomment":["# MsGenny: a cheat sheet","\n"],"meta":{"extendedOptions":true,"extendedArcTypes":true,"extendedFeatures":true},"options":{"hscale":"0.9","watermark":"This is a 序 watermark"},"arcs":[[{"kind":"alt","from":"a","to":"d","arcs":[[{"kind":"-&gt;","from":"a","to":"b","label":"a -&gt; b  (signal)"},{"kind":"&lt;-&gt;","from":"b","to":"c","label":"b &lt;-&gt; c"},{"kind":"--","from":"c","to":"d","label":"c -- d"},{"kind":"-&gt;","from":"d","to":"d","label":"d -&gt; d"},{"kind":"note","from":"e","to":"e","label":"e note e \\n(note)"}],[{"kind":"=&gt;","from":"a","to":"b","label":"a =&gt; b  (method)"},{"kind":"&lt;=&gt;","from":"b","to":"c","label":"b &lt;=&gt; c"},{"kind":"=&gt;","from":"d","to":"d","label":"d =&gt; d"},{"kind":"box","from":"e","to":"e","label":"e box e\\n(action)"}],[{"kind":"&gt;&gt;","from":"b","to":"a","label":"b &gt;&gt; a (return value)"},{"kind":"&lt;&lt;&gt;&gt;","from":"b","to":"c","label":"b &lt;&lt;&gt;&gt; c"},{"kind":"..","from":"c","to":"d","label":"c .. d (dotted)"},{"kind":"&gt;&gt;","from":"d","to":"d","label":"d &gt;&gt; d"},{"kind":"rbox","from":"e","to":"e","label":"e rbox e\\n(reference)"}],[{"kind":"=&gt;&gt;","from":"a","to":"b","label":"a =&gt;&gt; b (callback)"},{"kind":"&lt;&lt;=&gt;&gt;","from":"b","to":"c","label":"b &lt;&lt;=&gt;&gt; c"},{"kind":"=&gt;&gt;","from":"d","to":"d","label":"d =&gt;&gt; d"},{"kind":"abox","from":"e","to":"e","label":"e abox e\\n(state/ condition)"}],[{"kind":"---","label":"inline expression separator"}],[{"kind":"-x","from":"a","to":"b","label":"a -x b  (lost)"},{"kind":"-x","from":"d","to":"d","label":"d -x d"}],[{"kind":":&gt;","from":"a","to":"b","label":"a :&gt; b  (emphasis)"},{"kind":"&lt;:&gt;","from":"b","to":"c","label":"b &lt;:&gt; c"},{"kind":":&gt;","from":"d","to":"d","label":"d :&gt; d"}]],"label":"inline expression"}],[{"kind":"|||","label":"||| (empty row)"}],[{"kind":"...","label":"... (omitted row)"}],[{"kind":"---","label":"--- (comment)"}]],"entities":[{"name":"a"},{"name":"b"},{"name":"c"},{"name":"e"},{"name":"d"}]}</desc><defs><style type="text/css">svg.mscgenjsreplaceme{font-family:Helvetica,sans-serif;font-size:12px;font-weight:normal;font-style:normal;text-decoration:none;background-color:white;stroke:black;stroke-width:2}.mscgenjsreplaceme path, .mscgenjsreplaceme rect{fill:none}.mscgenjsreplaceme .label-text-background{fill:white;stroke:white;stroke-width:0}.mscgenjsreplaceme .bglayer{fill:white;stroke:white;stroke-width:0}.mscgenjsreplaceme line{}.mscgenjsreplaceme .return, .mscgenjsreplaceme .comment{stroke-dasharray:5,3}.mscgenjsreplaceme .inline_expression_divider{stroke-dasharray:10,5}.mscgenjsreplaceme text{color:inherit;stroke:none;text-anchor:middle}.mscgenjsreplaceme text.anchor-start{text-anchor:start}.mscgenjsreplaceme .arrow-marker{overflow:visible}.mscgenjsreplaceme .arrow-style{stroke-width:1}.mscgenjsreplaceme .arcrow, .mscgenjsreplaceme .arcrowomit, .mscgenjsreplaceme .emphasised{stroke-linecap:butt}.mscgenjsreplaceme .arcrowomit{stroke-dasharray:2,2}.mscgenjsreplaceme .box, .mscgenjsreplaceme .entity{fill:white;stroke-linejoin:round}.mscgenjsreplaceme .inherit{stroke:inherit;color:inherit}.mscgenjsreplaceme .inherit-fill{fill:inherit}.mscgenjsreplaceme .watermark{font-size:48pt;font-weight:bold;opacity:0.14}.mscgenjsreplaceme text.entity-text{font-weight:bold;}.mscgenjsreplaceme text.return-text{font-style:italic}.mscgenjsreplaceme path.note{fill:#FFFFCC}.mscgenjsreplaceme rect.label-text-background{opacity:0.9}.mscgenjsreplaceme line.comment,.mscgenjsreplaceme rect.inline_expression,.mscgenjsreplaceme .inline_expression_divider,.mscgenjsreplaceme .inline_expression_label{stroke:grey}</style><marker orient="auto" id="mscgenjsreplacemecallback-black" class="arrow-marker" viewBox="0 0 10 10" refX="9" refY="3" markerUnits="strokeWidth" markerWidth="10" markerHeight="10"><path d="M 1,1 l 8,2 l-8,2" class="arrow-style" style="stroke-dasharray:100,1;stroke:black"></path></marker><marker orient="auto" id="mscgenjsreplacemecallback-l-black" class="arrow-marker" viewBox="0 0 10 10" refX="9" refY="3" markerUnits="strokeWidth" markerWidth="10" markerHeight="10"><path d="M17,1 l-8,2 l 8,2" class="arrow-style" style="stroke-dasharray:100,1;stroke:black"></path></marker><marker orient="auto" id="mscgenjsreplacemelost-black" class="arrow-marker" viewBox="0 0 10 10" refX="9" refY="3" markerUnits="strokeWidth" markerWidth="10" markerHeight="10"><path d="M7,0 l5,6 M7,6 l5,-6" class="arrow-style" style="stroke-dasharray:100,1;stroke:black"></path></marker><marker orient="auto" id="mscgenjsreplacememethod-black" class="arrow-marker" viewBox="0 0 10 10" refX="9" refY="3" markerUnits="strokeWidth" markerWidth="10" markerHeight="10"><polygon points="1,1  9,3  1,5" class="arrow-style" stroke="black" fill="black"></polygon></marker><marker orient="auto" id="mscgenjsreplacememethod-l-black" class="arrow-marker" viewBox="0 0 10 10" refX="9" refY="3" markerUnits="strokeWidth" markerWidth="10" markerHeight="10"><polygon points="17,1 9,3 17,5" class="arrow-style" stroke="black" fill="black"></polygon></marker><marker orient="auto" id="mscgenjsreplacemesignal-black" class="arrow-marker" viewBox="0 0 10 10" refX="9" refY="3" markerUnits="strokeWidth" markerWidth="10" markerHeight="10"><path d="M9,3 l-8, 2" class="arrow-style" style="stroke-dasharray:100,1;stroke:black"></path></marker><marker orient="auto" id="mscgenjsreplacemesignal-u-black" class="arrow-marker" viewBox="0 0 10 10" refX="9" refY="3" markerUnits="strokeWidth" markerWidth="10" markerHeight="10"><path d="M9,3 l-8,-2" class="arrow-style" style="stroke-dasharray:100,1;stroke:black"></path></marker><marker orient="auto" id="mscgenjsreplacemesignal-l-black" class="arrow-marker" viewBox="0 0 10 10" refX="9" refY="3" markerUnits="strokeWidth" markerWidth="10" markerHeight="10"><path d="M9,3 l 8, 2" class="arrow-style" style="stroke-dasharray:100,1;stroke:black"></path></marker><marker orient="auto" id="mscgenjsreplacemesignal-lu-black" class="arrow-marker" viewBox="0 0 10 10" refX="9" refY="3" markerUnits="strokeWidth" markerWidth="10" markerHeight="10"><path d="M9,3 l 8,-2" class="arrow-style" style="stroke-dasharray:100,1;stroke:black"></path></marker></defs><g id="mscgenjsreplaceme_body" transform="translate(35,3) scale(1,1)"><g id="mscgenjsreplaceme_background"><rect width="736" height="589.05" x="-35" y="-3" class="bglayer"></rect></g><g id="mscgenjsreplaceme_arcspans"><rect width="720" height="355.05" x="-27" y="95" class="box inline_expression alt"></rect></g><g id="mscgenjsreplaceme_lifelines"><line x1="45" y1="38" x2="45" y2="76" class="arcrow"></line><line x1="189" y1="38" x2="189" y2="76" class="arcrow"></line><line x1="333" y1="38" x2="333" y2="76" class="arcrow"></line><line x1="477" y1="38" x2="477" y2="76" class="arcrow"></line><line x1="621" y1="38" x2="621" y2="76" class="arcrow"></line><line x1="45" y1="76" x2="45" y2="114" class="arcrow"></line><line x1="189" y1="76" x2="189" y2="114" class="arcrow"></line><line x1="333" y1="76" x2="333" y2="114" class="arcrow"></line><line x1="477" y1="76" x2="477" y2="114" class="arcrow"></line><line x1="621" y1="76" x2="621" y2="114" class="arcrow"></line><line x1="45" y1="114" x2="45" y2="157.81" class="arcrow"></line><line x1="189" y1="114" x2="189" y2="157.81" class="arcrow"></line><line x1="333" y1="114" x2="333" y2="157.81" class="arcrow"></line><line x1="477" y1="114" x2="477" y2="157.81" class="arcrow"></line><line x1="621" y1="114" x2="621" y2="157.81" class="arcrow"></line><line x1="45" y1="157.81" x2="45" y2="201.62" class="arcrow"></line><line x1="189" y1="157.81" x2="189" y2="201.62" class="arcrow"></line><line x1="333" y1="157.81" x2="333" y2="201.62" class="arcrow"></line><line x1="477" y1="157.81" x2="477" y2="201.62" class="arcrow"></line><line x1="621" y1="157.81" x2="621" y2="201.62" class="arcrow"></line><line x1="45" y1="201.62" x2="45" y2="245.43" class="arcrow"></line><line x1="189" y1="201.62" x2="189" y2="245.43" class="arcrow"></line><line x1="333" y1="201.62" x2="333" y2="245.43" class="arcrow"></line><line x1="477" y1="201.62" x2="477" y2="245.43" class="arcrow"></line><line x1="621" y1="201.62" x2="621" y2="245.43" class="arcrow"></line><line x1="45" y1="245.43" x2="45" y2="305.43" class="arcrow"></line><line x1="189" y1="245.43" x2="189" y2="305.43" class="arcrow"></line><line x1="333" y1="245.43" x2="333" y2="305.43" class="arcrow"></line><line x1="477" y1="245.43" x2="477" y2="305.43" class="arcrow"></line><line x1="621" y1="245.43" x2="621" y2="305.43" class="arcrow"></line><line x1="45" y1="305.43" x2="45" y2="343.43" class="arcrow"></line><line x1="189" y1="305.43" x2="189" y2="343.43" class="arcrow"></line><line x1="333" y1="305.43" x2="333" y2="343.43" class="arcrow"></line><line x1="477" y1="305.43" x2="477" y2="343.43" class="arcrow"></line><line x1="621" y1="305.43" x2="621" y2="343.43" class="arcrow"></line><line x1="45" y1="343.43" x2="45" y2="387.24" class="arcrow"></line><line x1="189" y1="343.43" x2="189" y2="387.24" class="arcrow"></line><line x1="333" y1="343.43" x2="333" y2="387.24" class="arcrow"></line><line x1="477" y1="343.43" x2="477" y2="387.24" class="arcrow"></line><line x1="621" y1="343.43" x2="621" y2="387.24" class="arcrow"></line><line x1="45" y1="387.24" x2="45" y2="431.05" class="arcrow"></line><line x1="189" y1="387.24" x2="189" y2="431.05" class="arcrow"></line><line x1="333" y1="387.24" x2="333" y2="431.05" class="arcrow"></line><line x1="477" y1="387.24" x2="477" y2="431.05" class="arcrow"></line><line x1="621" y1="387.24" x2="621" y2="431.05" class="arcrow"></line><line x1="45" y1="431.05" x2="45" y2="469.05" class="arcrow"></line><line x1="189" y1="431.05" x2="189" y2="469.05" class="arcrow"></line><line x1="333" y1="431.05" x2="333" y2="469.05" class="arcrow"></line><line x1="477" y1="431.05" x2="477" y2="469.05" class="arcrow"></line><line x1="621" y1="431.05" x2="621" y2="469.05" class="arcrow"></line><line x1="45" y1="469.05" x2="45" y2="507.05" class="arcrow"></line><line x1="189" y1="469.05" x2="189" y2="507.05" class="arcrow"></line><line x1="333" y1="469.05" x2="333" y2="507.05" class="arcrow"></line><line x1="477" y1="469.05" x2="477" y2="507.05" class="arcrow"></line><line x1="621" y1="469.05" x2="621" y2="507.05" class="arcrow"></line><line x1="45" y1="507.05" x2="45" y2="545.05" class="arcrowomit"></line><line x1="189" y1="507.05" x2="189" y2="545.05" class="arcrowomit"></line><line x1="333" y1="507.05" x2="333" y2="545.05" class="arcrowomit"></line><line x1="477" y1="507.05" x2="477" y2="545.05" class="arcrowomit"></line><line x1="621" y1="507.05" x2="621" y2="545.05" class="arcrowomit"></line><line x1="45" y1="545.05" x2="45" y2="583.05" class="arcrow"></line><line x1="189" y1="545.05" x2="189" y2="583.05" class="arcrow"></line><line x1="333" y1="545.05" x2="333" y2="583.05" class="arcrow"></line><line x1="477" y1="545.05" x2="477" y2="583.05" class="arcrow"></line><line x1="621" y1="545.05" x2="621" y2="583.05" class="arcrow"></line></g><g id="mscgenjsreplaceme_sequence"><g><g><rect width="90" height="38" class="entity"></rect><g><text x="45" y="23.5" class="entity-text "><tspan>a</tspan></text></g></g><g><rect width="90" height="38" x="144" class="entity"></rect><g><text x="189" y="23.5" class="entity-text "><tspan>b</tspan></text></g></g><g><rect width="90" height="38" x="288" class="entity"></rect><g><text x="333" y="23.5" class="entity-text "><tspan>c</tspan></text></g></g><g><rect width="90" height="38" x="432" class="entity"></rect><g><text x="477" y="23.5" class="entity-text "><tspan>e</tspan></text></g></g><g><rect width="90" height="38" x="576" class="entity"></rect><g><text x="621" y="23.5" class="entity-text "><tspan>d</tspan></text></g></g></g><g><line x1="45" y1="135.9" x2="189" y2="135.9" class="arc directional signal" style="stroke:black" marker-end="url(#mscgenjsreplacemesignal-black)"></line><g><rect width="73.72" height="14.02" x="80.14" y="119.39" class="label-text-background"></rect><text x="117" y="130.4" class="directional-text signal-text "><tspan>a -&gt; b  (signal)</tspan></text></g></g><g><line x1="189" y1="135.9" x2="333" y2="135.9" class="arc bidirectional signal" style="stroke:black" marker-end="url(#mscgenjsreplacemesignal-black)" marker-start="url(#mscgenjsreplacemesignal-l-black)"></line><g><rect width="37.38" height="14.02" x="242.31" y="119.39" class="label-text-background"></rect><text x="261" y="130.4" class="bidirectional-text signal-text "><tspan>b &lt;-&gt; c</tspan></text></g></g><g><line x1="333" y1="135.9" x2="621" y2="135.9" class="arc nondirectional signal" style="stroke:black"></line><g><rect width="27.34" height="14.02" x="463.33" y="119.39" class="label-text-background"></rect><text x="477" y="130.4" class="nondirectional-text signal-text "><tspan>c -- d</tspan></text></g></g><g><path d="M621,128.3 C693,128.4 693,151.1 621,151.1 " class="arc directional signal" style="stroke:black" marker-end="url(#mscgenjsreplacemesignal-u-black)"></path><g><rect width="31.03" height="14.02" x="624" y="111.3" class="label-text-background"></rect><text x="624" y="122.3" class="directional-text signal-text anchor-start "><tspan>d -&gt; d</tspan></text></g></g><g><line x1="45" y1="179.71" x2="189" y2="179.71" class="arc directional method" style="stroke:black" marker-end="url(#mscgenjsreplacememethod-black)"></line><g><rect width="85.41" height="14.02" x="74.3" y="163.2" class="label-text-background"></rect><text x="117" y="174.21" class="directional-text method-text "><tspan>a =&gt; b  (method)</tspan></text></g></g><g><line x1="189" y1="179.71" x2="333" y2="179.71" class="arc bidirectional method" style="stroke:black" marker-end="url(#mscgenjsreplacememethod-black)" marker-start="url(#mscgenjsreplacememethod-l-black)"></line><g><rect width="40.38" height="14.02" x="240.81" y="163.2" class="label-text-background"></rect><text x="261" y="174.21" class="bidirectional-text method-text "><tspan>b &lt;=&gt; c</tspan></text></g></g><g><path d="M621,172.11 C693,172.21 693,194.91 621,194.91 " class="arc directional method" style="stroke:black" marker-end="url(#mscgenjsreplacememethod-black)"></path><g><rect width="34.03" height="14.02" x="624" y="155.11" class="label-text-background"></rect><text x="624" y="166.11" class="directional-text method-text anchor-start "><tspan>d =&gt; d</tspan></text></g></g><g><line x1="189" y1="223.52" x2="45" y2="223.52" class="arc directional return" style="stroke:black" marker-end="url(#mscgenjsreplacemecallback-black)"></line><g><rect width="108.77" height="14.02" x="62.63" y="207.02" class="label-text-background"></rect><text x="117" y="218.02" class="directional-text return-text "><tspan>b &gt;&gt; a (return value)</tspan></text></g></g><g><line x1="189" y1="223.52" x2="333" y2="223.52" class="arc bidirectional return" style="stroke:black" marker-end="url(#mscgenjsreplacemecallback-black)" marker-start="url(#mscgenjsreplacemecallback-l-black)"></line><g><rect width="48.11" height="14.02" x="237.31" y="207.02" class="label-text-background"></rect><text x="261" y="218.02" class="bidirectional-text return-text "><tspan>b &lt;&lt;&gt;&gt; c</tspan></text></g></g><g><line x1="333" y1="223.52" x2="621" y2="223.52" class="arc nondirectional return" style="stroke:black"></line><g><rect width="70.73" height="14.02" x="441.64" y="207.02" class="label-text-background"></rect><text x="477" y="218.02" class="nondirectional-text return-text "><tspan>c .. d (dotted)</tspan></text></g></g><g><path d="M621,215.92 C693,216.02 693,238.72 621,238.72 " class="arc directional return" style="stroke:black" marker-end="url(#mscgenjsreplacemecallback-black)"></path><g><rect width="35.09" height="14.02" x="624" y="198.91" class="label-text-background"></rect><text x="624" y="209.92" class="directional-text return-text anchor-start "><tspan>d &gt;&gt; d</tspan></text></g></g><g><line x1="45" y1="275.43" x2="189" y2="275.43" class="arc directional callback" style="stroke:black" marker-end="url(#mscgenjsreplacemecallback-black)"></line><g><rect width="95.72" height="14.02" x="69.14" y="258.92" class="label-text-background"></rect><text x="117" y="269.93" class="directional-text callback-text "><tspan>a =&gt;&gt; b (callback)</tspan></text></g></g><g><line x1="189" y1="275.43" x2="333" y2="275.43" class="arc bidirectional callback" style="stroke:black" marker-end="url(#mscgenjsreplacemecallback-black)" marker-start="url(#mscgenjsreplacemecallback-l-black)"></line><g><rect width="54.41" height="14.02" x="233.8" y="258.92" class="label-text-background"></rect><text x="261" y="269.93" class="bidirectional-text callback-text "><tspan>b &lt;&lt;=&gt;&gt; c</tspan></text></g></g><g><path d="M621,267.83 C693,267.93 693,290.63 621,290.63 " class="arc directional callback" style="stroke:black" marker-end="url(#mscgenjsreplacemecallback-black)"></path><g><rect width="41.05" height="14.02" x="624" y="250.83" class="label-text-background"></rect><text x="624" y="261.83" class="directional-text callback-text anchor-start "><tspan>d =&gt;&gt; d</tspan></text></g></g><g><line x1="-27" y1="324.43" x2="693" y2="324.43" class="inline_expression_divider"></line><g><rect width="143.44" height="14.02" x="261.28" y="317.92" class="label-text-background"></rect><text x="333" y="328.93" class="empty-text comment-row-text "><tspan>inline expression separator</tspan></text></g></g><g><line x1="45" y1="365.33" x2="153" y2="365.33" class="arc directional lost" style="stroke:black" marker-end="url(#mscgenjsreplacemelost-black)"></line><g><rect width="60.03" height="14.02" x="68.98" y="348.83" class="label-text-background"></rect><text x="99" y="359.83" class="directional-text lost-text "><tspan>a -x b  (lost)</tspan></text></g></g><g><path d="M621,357.73 C693,357.83 693,380.53 636,380.53 " class="arc directional lost" style="stroke:black" marker-end="url(#mscgenjsreplacemelost-black)"></path><g><rect width="30.02" height="14.02" x="624" y="340.72" class="label-text-background"></rect><text x="624" y="351.73" class="directional-text lost-text anchor-start "><tspan>d -x d</tspan></text></g></g><g><path d="M45,409.14 l1,0 M45,407.14 l129,0 M45,411.14 l129,0 M188,409.14 l1,0 " class="arc directional emphasised" style="stroke:black;" marker-end="url(#mscgenjsreplacememethod-black)"></path><g><rect width="93.06" height="14.02" x="70.47" y="392.63" class="label-text-background"></rect><text x="117" y="403.64" class="directional-text emphasised-text "><tspan>a :&gt; b  (emphasis)</tspan></text></g></g><g><path d="M189,409.14 l1,0 M204,407.14 l114,0 M204,411.14 l114,0 M332,409.14 l1,0 " class="arc bidi bidirectional emphasised" style="stroke:black" marker-end="url(#mscgenjsreplacememethod-black)" marker-start="url(#mscgenjsreplacememethod-l-black)"></path><g><rect width="36.72" height="14.02" x="242.64" y="392.63" class="label-text-background"></rect><text x="261" y="403.64" class="bidirectional-text emphasised-text "><tspan>b &lt;:&gt; c</tspan></text></g></g><g><g class="arc directional emphasised"><path d="M621,401.54 C689,401.64 689,420.34 636,420.34 " class="arc directional emphasised"></path><path d="M621,401.54 C693,401.64 693,424.34 636,424.34 " class="arc directional emphasised"></path><path d="M621,401.54 C693,401.64 693,422.34 621,422.34 " style="stroke:transparent;" marker-end="url(#mscgenjsreplacememethod-black)"></path></g><g><rect width="30.36" height="14.02" x="624" y="384.53" class="label-text-background"></rect><text x="624" y="395.54" class="directional-text emphasised-text anchor-start "><tspan>d :&gt; d</tspan></text></g></g><g></g><g><rect width="76.03" height="14.02" x="294.98" y="481.55" class="label-text-background"></rect><text x="333" y="492.55" class="empty-text empty-row-text "><tspan>||| (empty row)</tspan></text></g><g><rect width="83.38" height="14.02" x="291.31" y="519.55" class="label-text-background"></rect><text x="333" y="530.55" class="empty-text omitted-row-text "><tspan>... (omitted row)</tspan></text></g><g><line x1="0" y1="564.05" x2="666" y2="564.05" class="comment"></line><g><rect width="72.69" height="14.02" x="296.66" y="557.55" class="label-text-background"></rect><text x="333" y="568.55" class="empty-text comment-row-text "><tspan>--- (comment)</tspan></text></g></g></g><g id="mscgenjsreplaceme_notes"><g><path d="M-26,95 l117.73,0 l0,11 l-7,7 l-110.73,0 " class="box inline_expression_label"></path><g><text x="-24" y="109" class="inline_expression-text alt-text anchor-start "><tspan>alt: inline expression</tspan></text></g></g><g><path d="M409,117.4 l127,0 l0,9 l9,0 m-9,-9 l9,9 l0,28.02 l-136,0 l0,-37.02 z" class="box note"></path><g><text x="477" y="130.9" class="box-text note-text "><tspan>e note e </tspan></text><text x="477" y="149.9" class="box-text note-text "><tspan>(note)</tspan></text></g></g><g><rect width="136" height="37.02" x="409" y="161.21" class="box"></rect><g><text x="477" y="174.71" class="box-text "><tspan>e box e</tspan></text><text x="477" y="193.71" class="box-text "><tspan>(action)</tspan></text></g></g><g><rect width="136" height="37.02" x="409" y="205.02" rx="6" ry="6" class="box rbox"></rect><g><text x="477" y="218.52" class="box-text rbox-text "><tspan>e rbox e</tspan></text><text x="477" y="237.52" class="box-text rbox-text "><tspan>(reference)</tspan></text></g></g><g><path d="M409,275.43 l3,-28.01 l130,0 l3,28.01 l-3,28.01 l-130,0 z" class="box abox"></path><g><text x="477" y="260.93" class="box-text abox-text "><tspan>e abox e</tspan></text><text x="477" y="279.93" class="box-text abox-text "><tspan>(state/</tspan></text><text x="477" y="298.93" class="box-text abox-text "><tspan>condition)</tspan></text></g></g></g><g id="mscgenjsreplaceme_watermark"><text x="368" y="294.52" class="watermark" transform="rotate(-38.67 368 294.52)"><tspan>This is a 序 watermark</tspan></text></g></g></svg>