<svg version="1.1" id="mscgen_js-svg-__svg" class="mscgen_js-svg-__svg" xmlns="http://www.w3.org/2000/svg" xmlns:xlink="http://www.w3.org/1999/xlink" width="100%" height="100%" viewBox="0 0 736 597.5457382202148"><desc id="mscgen_js-svg-__svg__msc_source"></desc><defs><style type="text/css">@import 'https://fonts.googleapis.com/css?family=Gochi+Hand';svg.mscgen_js-svg-__svg{font-family:Helvetica,sans-serif;font-size:12px;font-weight:normal;font-style:normal;text-decoration:none;background-color:white;stroke:black;stroke-width:2;color:black}.mscgen_js-svg-__svg path, .mscgen_js-svg-__svg rect{fill:none;color:black;stroke:black}.mscgen_js-svg-__svg .label-text-background{fill:white;stroke:white;stroke-width:0}.mscgen_js-svg-__svg .bglayer{fill:white;stroke:white;stroke-width:0}.mscgen_js-svg-__svg line{stroke:black}.mscgen_js-svg-__svg .return, .mscgen_js-svg-__svg .comment{stroke-dasharray:5,3}.mscgen_js-svg-__svg .inline_expression_divider{stroke-dasharray:10,5}.mscgen_js-svg-__svg text{color:inherit;stroke:none;text-anchor:middle}.mscgen_js-svg-__svg text.entity-text{text-decoration:underline}.mscgen_js-svg-__svg text.anchor-start{text-anchor:start}.mscgen_js-svg-__svg .arrow-marker{overflow:visible}.mscgen_js-svg-__svg .arrow-style{stroke-width:1}.mscgen_js-svg-__svg .arcrow, .mscgen_js-svg-__svg .arcrowomit, .mscgen_js-svg-__svg .emphasised{stroke-linecap:butt}.mscgen_js-svg-__svg .arcrowomit{stroke-dasharray:2,2;}.mscgen_js-svg-__svg .box, .mscgen_js-svg-__svg .entity{fill:white;stroke-linejoin:round}.mscgen_js-svg-__svg .inherit{stroke:inherit;color:inherit}.mscgen_js-svg-__svg .inherit-fill{fill:inherit}.mscgen_js-svg-__svg .watermark{stroke:black;color:black;fill:black;font-size:48pt;font-weight:bold;opacity:0.14}svg.mscgen_js-svg-__svg{font-family:'Gochi Hand', cursive;font-size:14px;stroke-opacity:0.4;stroke-linecap:round;background-color:transparent}.mscgen_js-svg-__svg text{fill:rgba(0,0,128,0.7)}.mscgen_js-svg-__svg marker polygon{fill:rgba(0,0,255,0.4);stroke-linejoin:round}.mscgen_js-svg-__svg line, .mscgen_js-svg-__svg path, .mscgen_js-svg-__svg rect, .mscgen_js-svg-__svg polygon{stroke:blue !important}.mscgen_js-svg-__svg text.entity-text{font-weight:bold;text-decoration:none}.mscgen_js-svg-__svg text.return-text{font-style:italic}.mscgen_js-svg-__svg path.note{fill:#FFFFCC;}.mscgen_js-svg-__svg .label-text-background{opacity:0}.mscgen_js-svg-__svg .comment,.mscgen_js-svg-__svg .inline_expression,.mscgen_js-svg-__svg .inline_expression_divider,.mscgen_js-svg-__svg .inline_expression_label{stroke:black}</style><marker orient="auto" id="mscgen_js-svg-__svgcallback-black" class="arrow-marker" viewBox="0 0 10 10" refX="9" refY="3" markerUnits="strokeWidth" markerWidth="10" markerHeight="10"><path d="M 1,1 l 8,2 l-8,2" class="arrow-style" style="stroke-dasharray:100,1;stroke:black"></path></marker><marker orient="auto" id="mscgen_js-svg-__svgcallback-l-black" class="arrow-marker" viewBox="0 0 10 10" refX="9" refY="3" markerUnits="strokeWidth" markerWidth="10" markerHeight="10"><path d="M17,1 l-8,2 l 8,2" class="arrow-style" style="stroke-dasharray:100,1;stroke:black"></path></marker><marker orient="auto" id="mscgen_js-svg-__svglost-black" class="arrow-marker" viewBox="0 0 10 10" refX="9" refY="3" markerUnits="strokeWidth" markerWidth="10" markerHeight="10"><path d="M7,0 l5,6 M7,6 l5,-6" class="arrow-style" style="stroke-dasharray:100,1;stroke:black"></path></marker><marker orient="auto" id="mscgen_js-svg-__svgmethod-black" class="arrow-marker" viewBox="0 0 10 10" refX="9" refY="3" markerUnits="strokeWidth" markerWidth="10" markerHeight="10"><polygon points="1,1  9,3  1,5" class="arrow-style" stroke="black" fill="black"></polygon></marker><marker orient="auto" id="mscgen_js-svg-__svgmethod-l-black" class="arrow-marker" viewBox="0 0 10 10" refX="9" refY="3" markerUnits="strokeWidth" markerWidth="10" markerHeight="10"><polygon points="17,1 9,3 17,5" class="arrow-style" stroke="black" fill="black"></polygon></marker><marker orient="auto" id="mscgen_js-svg-__svgsignal-black" class="arrow-marker" viewBox="0 0 10 10" refX="9" refY="3" markerUnits="strokeWidth" markerWidth="10" markerHeight="10"><path d="M9,3 l-8, 2" class="arrow-style" style="stroke-dasharray:100,1;stroke:black"></path></marker><marker orient="auto" id="mscgen_js-svg-__svgsignal-u-black" class="arrow-marker" viewBox="0 0 10 10" refX="9" refY="3" markerUnits="strokeWidth" markerWidth="10" markerHeight="10"><path d="M9,3 l-8,-2" class="arrow-style" style="stroke-dasharray:100,1;stroke:black"></path></marker><marker orient="auto" id="mscgen_js-svg-__svgsignal-l-black" class="arrow-marker" viewBox="0 0 10 10" refX="9" refY="3" markerUnits="strokeWidth" markerWidth="10" markerHeight="10"><path d="M9,3 l 8, 2" class="arrow-style" style="stroke-dasharray:100,1;stroke:black"></path></marker><marker orient="auto" id="mscgen_js-svg-__svgsignal-lu-black" class="arrow-marker" viewBox="0 0 10 10" refX="9" refY="3" markerUnits="strokeWidth" markerWidth="10" markerHeight="10"><path d="M9,3 l 8,-2" class="arrow-style" style="stroke-dasharray:100,1;stroke:black"></path></marker><g id="mscgen_js-svg-__svg__defs"><g id="mscgen_js-svg-__svgentities"><g id="mscgen_js-svg-__svga"><path d="M0,0 S33,2  90,0 L90,0 S93,19  90,38 L90,38 S58,40  0,38 L0,38 S1,21  0,0 z" class="entity"></path><g><text x="45" y="23" class="entity-text "><tspan>a</tspan></text></g></g><g id="mscgen_js-svg-__svgb"><path d="M144,0 S179,2  234,0 L234,0 S234,19  234,38 L234,38 S198,40  144,38 L144,38 S145,18  144,0 z" class="entity"></path><g><text x="189" y="23" class="entity-text "><tspan>b</tspan></text></g></g><g id="mscgen_js-svg-__svgc"><path d="M288,0 S320,-1  378,0 L378,0 S376,21  378,38 L378,38 S342,36  288,38 L288,38 S290,17  288,0 z" class="entity"></path><g><text x="333" y="23" class="entity-text "><tspan>c</tspan></text></g></g><g id="mscgen_js-svg-__svge"><path d="M432,0 S466,3  522,0 L522,0 S522,18  522,38 L522,38 S486,39  432,38 L432,38 S432,17  432,0 z" class="entity"></path><g><text x="477" y="23" class="entity-text "><tspan>e</tspan></text></g></g><g id="mscgen_js-svg-__svgd"><path d="M576,0 S610,2  666,0 L666,0 S666,20  666,38 L666,38 S632,40  576,38 L576,38 S574,19  576,0 z" class="entity"></path><g><text x="621" y="23" class="entity-text "><tspan>d</tspan></text></g></g></g><g id="mscgen_js-svg-__svgarcrow"><path d="M45,-19 L45,-18 S47,3  45,19 " class="arcrow"></path><path d="M189,-19 L189,-18 S190,3  189,19 " class="arcrow"></path><path d="M333,-19 L333,-18 S333,0  333,19 " class="arcrow"></path><path d="M477,-19 L477,-18 S476,2  477,19 " class="arcrow"></path><path d="M621,-19 L621,-18 S623,0  621,19 " class="arcrow"></path></g><g id="mscgen_js-svg-__svg0_0_label"><g><path d="M-26,1 L116.203125,1 L116.203125,13 L109.203125,20 L-26,20 z" class="box inline_expression_label" style="stroke:transparent!important;"></path><path d="M116.203125,0 S116.203,6.5  116.203125,13 L116.203125,13 S110.703,18.5  109.203125,20 L109.203125,20 S75.203,18  -27,20 L-27,20 " class="box inline_expression_label" style="fill:transparent;stroke:black;"></path></g><g><text x="-24" y="13.5" class="inline_expression-text alt-text anchor-start "><tspan>alt: inline expression</tspan></text></g></g><g id="mscgen_js-svg-__svgarcrow_0"><path d="M45,-19 L45,-18 S43,1  45,19 " class="arcrow"></path><path d="M189,-19 L189,-18 S190,1  189,19 " class="arcrow"></path><path d="M333,-19 L333,-18 S332,0  333,19 " class="arcrow"></path><path d="M477,-19 L477,-18 S476,2  477,19 " class="arcrow"></path><path d="M621,-19 L621,-18 S624,-3  621,19 " class="arcrow"></path></g><g id="mscgen_js-svg-__svg1_0"><path d="M45,0 L46,0 S81,2  115,0  S147,-1  189,0 " class="arc directional signal" style="stroke:black" marker-end="url(#mscgen_js-svg-__svgsignal-black)"></path><g><path d="M117,-17 S149,-14  207.28125,-17 L207.28125,-17 S205.281,-10  207.28125,-1 L207.28125,-1 S172.281,0  117,-1 L117,-1 S118,-10  117,-17 z" class="label-text-background"></path><text x="117" y="-5" class="directional-text signal-text "><tspan>a -&gt; b  (signal)</tspan></text></g></g><g id="mscgen_js-svg-__svg1_1"><path d="M189,0 L190,0 S223,2  259,0  S291,-1  333,0 " class="arc bidirectional signal" style="stroke:black" marker-end="url(#mscgen_js-svg-__svgsignal-black)" marker-start="url(#mscgen_js-svg-__svgsignal-l-black)"></path><g><path d="M261,-17 S284.227,-19  307.453125,-17 L307.453125,-17 S308.453,-8  307.453125,-1 L307.453125,-1 S285.227,0  261,-1 L261,-1 S263,-8  261,-17 z" class="label-text-background"></path><text x="261" y="-5" class="bidirectional-text signal-text "><tspan>b &lt;-&gt; c</tspan></text></g></g><g id="mscgen_js-svg-__svg1_2"><path d="M333,0 L334,0 S367,2  403,0  S438,0  473,0  S508,-1  543,0  S581,0  621,0 " class="arc nondirectional signal" style="stroke:black"></path><g><path d="M477,-17 S496.875,-14  510.75,-17 L510.75,-17 S513.75,-9  510.75,-1 L510.75,-1 S495.875,-3  477,-1 L477,-1 S480,-10  477,-17 z" class="label-text-background"></path><text x="477" y="-5" class="nondirectional-text signal-text "><tspan>c -- d</tspan></text></g></g><g id="mscgen_js-svg-__svg1_3"><path d="M621,-7.6 C693,-7.4 693,15.2 621,15.2 " class="arc directional signal" style="stroke:black" marker-end="url(#mscgen_js-svg-__svgsignal-u-black)"></path><g><path d="M624,-25.109375 S646.172,-27.109  662.34375,-25.109375 L662.34375,-25.109375 S659.344,-20.102  662.34375,-9.09375 L662.34375,-9.09375 S644.172,-9.094  624,-9.09375 L624,-9.09375 S627,-19.102  624,-25.109375 z" class="label-text-background"></path><text x="624" y="-13.100000000000001" class="directional-text signal-text anchor-start "><tspan>d -&gt; d</tspan></text></g></g><g id="mscgen_js-svg-__svg1_4"><g><path d="M409,-18.5 S445,-19.5  536,-18.5 L536,-18.5 S538.5,-14  545,-9.5 L545,-9.5 S545,4.5  545,18.5 L545,18.5 S511,17.5  409,18.5 L409,18.5 S409,1  409,-18.5 L409,-18.5 z" class="box note"></path><path d="M536,-18.5 S535,-14  536,-9.5 L536,-9.5 S542.5,-6.5  545,-9.5 L545,-9.5 " class="box note" style="fill:transparent;"></path></g><g><text x="477" y="-4.5" class="box-text note-text "><tspan>e note e </tspan></text><text x="477" y="12.5" class="box-text note-text "><tspan>(note)</tspan></text></g></g><g id="mscgen_js-svg-__svgarcrow_1"><path d="M45,-23.154499053955078 L45,-22.154499053955078 S47,0  45,23.154499053955078 " class="arcrow"></path><path d="M189,-23.154499053955078 L189,-22.154499053955078 S187,0  189,23.154499053955078 " class="arcrow"></path><path d="M333,-23.154499053955078 L333,-22.154499053955078 S332,2  333,23.154499053955078 " class="arcrow"></path><path d="M477,-23.154499053955078 L477,-22.154499053955078 S477,-1  477,23.154499053955078 " class="arcrow"></path><path d="M621,-23.154499053955078 L621,-22.154499053955078 S623,2  621,23.154499053955078 " class="arcrow"></path></g><g id="mscgen_js-svg-__svg2_0"><path d="M45,0 L46,0 S82,-1  115,0  S148,2  189,0 " class="arc directional method" style="stroke:black" marker-end="url(#mscgen_js-svg-__svgmethod-black)"></path><g><path d="M117,-17 S152,-15  220.75,-17 L220.75,-17 S220.75,-10  220.75,-1 L220.75,-1 S185.75,0  117,-1 L117,-1 S120,-11  117,-17 z" class="label-text-background"></path><text x="117" y="-5" class="directional-text method-text "><tspan>a =&gt; b  (method)</tspan></text></g></g><g id="mscgen_js-svg-__svg2_1"><path d="M189,0 L190,0 S226,1  259,0  S292,-2  333,0 " class="arc bidirectional method" style="stroke:black" marker-end="url(#mscgen_js-svg-__svgmethod-black)" marker-start="url(#mscgen_js-svg-__svgmethod-l-black)"></path><g><path d="M261,-17 S286.07,-17  311.140625,-17 L311.140625,-17 S310.141,-9  311.140625,-1 L311.140625,-1 S285.07,-1  261,-1 L261,-1 S262,-7  261,-17 z" class="label-text-background"></path><text x="261" y="-5" class="bidirectional-text method-text "><tspan>b &lt;=&gt; c</tspan></text></g></g><g id="mscgen_js-svg-__svg2_2"><path d="M621,-7.6 C693,-7.4 693,15.2 621,15.2 " class="arc directional method" style="stroke:black" marker-end="url(#mscgen_js-svg-__svgmethod-black)"></path><g><path d="M624,-25.109375 S647.016,-28.109  666.03125,-25.109375 L666.03125,-25.109375 S666.031,-14.102  666.03125,-9.09375 L666.03125,-9.09375 S643.016,-7.094  624,-9.09375 L624,-9.09375 S626,-20.102  624,-25.109375 z" class="label-text-background"></path><text x="624" y="-13.100000000000001" class="directional-text method-text anchor-start "><tspan>d =&gt; d</tspan></text></g></g><g id="mscgen_js-svg-__svg2_3"><path d="M409,-18.5 S442,-17.5  545,-18.5 L545,-18.5 S544,2  545,18.5 L545,18.5 S508,17.5  409,18.5 L409,18.5 S407,-2  409,-18.5 z" class="box"></path><g><text x="477" y="-4.5" class="box-text "><tspan>e box e</tspan></text><text x="477" y="12.5" class="box-text "><tspan>(action)</tspan></text></g></g><g id="mscgen_js-svg-__svgarcrow_2"><path d="M45,-23.654499053955078 L45,-22.654499053955078 S48,-2  45,23.654499053955078 " class="arcrow"></path><path d="M189,-23.654499053955078 L189,-22.654499053955078 S192,0  189,23.654499053955078 " class="arcrow"></path><path d="M333,-23.654499053955078 L333,-22.654499053955078 S334,-1  333,23.654499053955078 " class="arcrow"></path><path d="M477,-23.654499053955078 L477,-22.654499053955078 S474,0  477,23.654499053955078 " class="arcrow"></path><path d="M621,-23.654499053955078 L621,-22.654499053955078 S622,2  621,23.654499053955078 " class="arcrow"></path></g><g id="mscgen_js-svg-__svg3_0"><path d="M189,0 L188,0 S153,2  119,0  S81,-2  45,0 " class="arc directional return" style="stroke:black" marker-end="url(#mscgen_js-svg-__svgcallback-black)"></path><g><path d="M117,-17 S150,-16  249.59375,-17 L249.59375,-17 S247.594,-9  249.59375,-1 L249.59375,-1 S212.594,1  117,-1 L117,-1 S119,-12  117,-17 z" class="label-text-background"></path><text x="117" y="-5" class="directional-text return-text "><tspan>b &gt;&gt; a (return value)</tspan></text></g></g><g id="mscgen_js-svg-__svg3_1"><path d="M189,0 L190,0 S221,-3  259,0  S297,0  333,0 " class="arc bidirectional return" style="stroke:black" marker-end="url(#mscgen_js-svg-__svgcallback-black)" marker-start="url(#mscgen_js-svg-__svgcallback-l-black)"></path><g><path d="M261,-17 S292.578,-19  320.15625,-17 L320.15625,-17 S319.156,-7  320.15625,-1 L320.15625,-1 S290.578,2  261,-1 L261,-1 S260,-11  261,-17 z" class="label-text-background"></path><text x="261" y="-5" class="bidirectional-text return-text "><tspan>b &lt;&lt;&gt;&gt; c</tspan></text></g></g><g id="mscgen_js-svg-__svg3_2"><path d="M333,0 L334,0 S368,0  403,0  S440,2  473,0  S506,-1  543,0  S578,2  621,0 " class="arc nondirectional return" style="stroke:black"></path><g><path d="M477,-17 S510,-16  562.71875,-17 L562.71875,-17 S564.719,-6  562.71875,-1 L562.71875,-1 S526.719,-2  477,-1 L477,-1 S476,-8  477,-17 z" class="label-text-background"></path><text x="477" y="-5" class="nondirectional-text return-text "><tspan>c .. d (dotted)</tspan></text></g></g><g id="mscgen_js-svg-__svg3_3"><path d="M621,-7.6 C693,-7.4 693,15.2 621,15.2 " class="arc directional return" style="stroke:black" marker-end="url(#mscgen_js-svg-__svgcallback-black)"></path><g><path d="M624,-25.109375 S648.016,-25.109  666.03125,-25.109375 L666.03125,-25.109375 S666.031,-16.102  666.03125,-9.09375 L666.03125,-9.09375 S643.016,-10.094  624,-9.09375 L624,-9.09375 S622,-20.102  624,-25.109375 z" class="label-text-background"></path><text x="624" y="-13.100000000000001" class="directional-text return-text anchor-start "><tspan>d &gt;&gt; d</tspan></text></g></g><g id="mscgen_js-svg-__svg3_4"><path d="M409,-12.5 S409,-18.5  415,-18.5 S452,-15.5  539,-18.5 L539,-18.5 S545,-18.5  545,-12.5 S547,2  545,12.5 L545,12.5 S545,18.5  539,18.5 S503,18.5  415,18.5 L415,18.5 S409,18.5  409,12.5 S409,-2  409,-12.5 z" class="box rbox"></path><g><text x="477" y="-4.5" class="box-text rbox-text "><tspan>e rbox e</tspan></text><text x="477" y="12.5" class="box-text rbox-text "><tspan>(reference)</tspan></text></g></g><g id="mscgen_js-svg-__svgarcrow_3"><path d="M45,-22.154685974121094 L45,-21.154685974121094 S45,-2  45,22.154685974121094 " class="arcrow"></path><path d="M189,-22.154685974121094 L189,-21.154685974121094 S188,-2  189,22.154685974121094 " class="arcrow"></path><path d="M333,-22.154685974121094 L333,-21.154685974121094 S334,3  333,22.154685974121094 " class="arcrow"></path><path d="M477,-22.154685974121094 L477,-21.154685974121094 S477,-2  477,22.154685974121094 " class="arcrow"></path><path d="M621,-22.154685974121094 L621,-21.154685974121094 S621,2  621,22.154685974121094 " class="arcrow"></path></g><g id="mscgen_js-svg-__svg4_0"><path d="M45,0 L46,0 S81,1  115,0  S149,0  189,0 " class="arc directional callback" style="stroke:black" marker-end="url(#mscgen_js-svg-__svgcallback-black)"></path><g><path d="M117,-17 S153,-18  235.046875,-17 L235.046875,-17 S235.047,-12  235.046875,-1 L235.046875,-1 S202.047,0  117,-1 L117,-1 S116,-8  117,-17 z" class="label-text-background"></path><text x="117" y="-5" class="directional-text callback-text "><tspan>a =&gt;&gt; b (callback)</tspan></text></g></g><g id="mscgen_js-svg-__svg4_1"><path d="M189,0 L190,0 S223,-1  259,0  S292,2  333,0 " class="arc bidirectional callback" style="stroke:black" marker-end="url(#mscgen_js-svg-__svgcallback-black)" marker-start="url(#mscgen_js-svg-__svgcallback-l-black)"></path><g><path d="M261,-17 S295.086,-19  329.171875,-17 L329.171875,-17 S328.172,-10  329.171875,-1 L329.171875,-1 S293.086,0  261,-1 L261,-1 S264,-8  261,-17 z" class="label-text-background"></path><text x="261" y="-5" class="bidirectional-text callback-text "><tspan>b &lt;&lt;=&gt;&gt; c</tspan></text></g></g><g id="mscgen_js-svg-__svg4_2"><path d="M621,-7.6 C693,-7.4 693,15.2 621,15.2 " class="arc directional callback" style="stroke:black" marker-end="url(#mscgen_js-svg-__svgcallback-black)"></path><g><path d="M624,-25.109375 S649.523,-24.109  675.046875,-25.109375 L675.046875,-25.109375 S672.047,-15.102  675.046875,-9.09375 L675.046875,-9.09375 S648.523,-9.094  624,-9.09375 L624,-9.09375 S623,-20.102  624,-25.109375 z" class="label-text-background"></path><text x="624" y="-13.100000000000001" class="directional-text callback-text anchor-start "><tspan>d =&gt;&gt; d</tspan></text></g></g><g id="mscgen_js-svg-__svg4_3"><path d="M409,0 S409.5,-16.5  412,-27 L412,-27 S447,-27  542,-27 L542,-27 S542.5,-15.5  545,0 L545,0 S541.5,16.5  542,27 L542,27 S505,27  412,27 L412,27 S412.5,14.5  409,0 z" class="box abox"></path><g><text x="477" y="-13" class="box-text abox-text "><tspan>e abox e</tspan></text><text x="477" y="4" class="box-text abox-text "><tspan>(state/</tspan></text><text x="477" y="21" class="box-text abox-text "><tspan>condition)</tspan></text></g></g><g id="mscgen_js-svg-__svgarcrow_4"><path d="M45,-29 L45,-28 S42,-2  45,29 " class="arcrow"></path><path d="M189,-29 L189,-28 S186,-1  189,29 " class="arcrow"></path><path d="M333,-29 L333,-28 S335,0  333,29 " class="arcrow"></path><path d="M477,-29 L477,-28 S479,2  477,29 " class="arcrow"></path><path d="M621,-29 L621,-28 S622,2  621,29 " class="arcrow"></path></g><g id="mscgen_js-svg-__svg5_0"><path d="M-27,0 L-26,0 S7,-1  43,0  S77,0  113,0  S145,3  183,0  S216,-2  253,0  S285,0  323,0  S360,1  393,0  S429,0  463,0  S497,-2  533,0  S566,3  603,0  S639,-1  693,0 " class="inline_expression_divider"></path><g id="mscgen_js-svg-__svg5_0_txt"><g id="mscgen_js-svg-__svg5_0_txt_lbl"><path d="M333,-8 S368,-11  403,-8  S439,-9  504.390625,-8 L504.390625,-8 S501.391,3  504.390625,8 L504.390625,8 S470.391,10  434.391,8  S401.391,9  333,8 L333,8 S333,-1  333,-8 z" class="label-text-background"></path><text x="333" y="4" class="empty-text comment-row-text "><tspan>inline expression separator</tspan></text></g></g></g><g id="mscgen_js-svg-__svgarcrow_5"><path d="M45,-19 L45,-18 S46,3  45,19 " class="arcrow"></path><path d="M189,-19 L189,-18 S189,0  189,19 " class="arcrow"></path><path d="M333,-19 L333,-18 S336,-2  333,19 " class="arcrow"></path><path d="M477,-19 L477,-18 S479,-2  477,19 " class="arcrow"></path><path d="M621,-19 L621,-18 S621,0  621,19 " class="arcrow"></path></g><g id="mscgen_js-svg-__svg6_0"><path d="M45,0 L46,0 S83,-2  153,0 " class="arc directional lost" style="stroke:black" marker-end="url(#mscgen_js-svg-__svglost-black)"></path><g><path d="M99,-17 S134,-18  173.171875,-17 L173.171875,-17 S176.172,-11  173.171875,-1 L173.171875,-1 S138.172,-3  99,-1 L99,-1 S96,-9  99,-17 z" class="label-text-background"></path><text x="99" y="-5" class="directional-text lost-text "><tspan>a -x b  (lost)</tspan></text></g></g><g id="mscgen_js-svg-__svg6_1"><path d="M621,-7.6 C693,-7.4 693,15.2 636,15.2 " class="arc directional lost" style="stroke:black" marker-end="url(#mscgen_js-svg-__svglost-black)"></path><g><path d="M624,-25.109375 S639.664,-24.109  661.328125,-25.109375 L661.328125,-25.109375 S661.328,-16.102  661.328125,-9.09375 L661.328125,-9.09375 S644.664,-9.094  624,-9.09375 L624,-9.09375 S626,-20.102  624,-25.109375 z" class="label-text-background"></path><text x="624" y="-13.100000000000001" class="directional-text lost-text anchor-start "><tspan>d -x d</tspan></text></g></g><g id="mscgen_js-svg-__svgarcrow_6"><path d="M45,-22.154685974121094 L45,-21.154685974121094 S45,-1  45,22.154685974121094 " class="arcrow"></path><path d="M189,-22.154685974121094 L189,-21.154685974121094 S192,3  189,22.154685974121094 " class="arcrow"></path><path d="M333,-22.154685974121094 L333,-21.154685974121094 S332,-3  333,22.154685974121094 " class="arcrow"></path><path d="M477,-22.154685974121094 L477,-21.154685974121094 S476,-1  477,22.154685974121094 " class="arcrow"></path><path d="M621,-22.154685974121094 L621,-21.154685974121094 S622,-2  621,22.154685974121094 " class="arcrow"></path></g><g id="mscgen_js-svg-__svg7_0"><path d="M45,0 l1,0 M45,-2 S82,-1  174,-2 M45,2 S83,1  174,2 M188,0 l1,0 " style="stroke:black;" marker-end="url(#mscgen_js-svg-__svgmethod-black)"></path><g><path d="M117,-17 S149,-14  227.703125,-17 L227.703125,-17 S229.703,-8  227.703125,-1 L227.703125,-1 S189.703,1  117,-1 L117,-1 S117,-10  117,-17 z" class="label-text-background"></path><text x="117" y="-5" class="directional-text emphasised-text "><tspan>a :&gt; b  (emphasis)</tspan></text></g></g><g id="mscgen_js-svg-__svg7_1"><path d="M189,0 l1,0 M204,-2 S238,-1  318,-2 M204,2 S242,1  318,2 M332,0 l1,0 " style="stroke:black" marker-end="url(#mscgen_js-svg-__svgmethod-black)" marker-start="url(#mscgen_js-svg-__svgmethod-l-black)"></path><g><path d="M261,-17 S284.781,-19  306.5625,-17 L306.5625,-17 S308.563,-11  306.5625,-1 L306.5625,-1 S283.781,1  261,-1 L261,-1 S260,-6  261,-17 z" class="label-text-background"></path><text x="261" y="-5" class="bidirectional-text emphasised-text "><tspan>b &lt;:&gt; c</tspan></text></g></g><g id="mscgen_js-svg-__svg7_2"><g class="arc directional emphasised"><path d="M621,-7.6 C689,-7.4 689,11.2 636,11.2 " class="arc directional emphasised"></path><path d="M621,-7.6 C693,-7.4 693,15.2 636,15.2 " class="arc directional emphasised"></path><path d="M621,-7.6 C693,-7.4 693,13.2 621,13.2 " style="stroke:transparent;" marker-end="url(#mscgen_js-svg-__svgmethod-black)"></path></g><g><path d="M624,-25.109375 S643.727,-28.109  661.453125,-25.109375 L661.453125,-25.109375 S662.453,-19.102  661.453125,-9.09375 L661.453125,-9.09375 S641.727,-9.094  624,-9.09375 L624,-9.09375 S623,-14.102  624,-25.109375 z" class="label-text-background"></path><text x="624" y="-13.100000000000001" class="directional-text emphasised-text anchor-start "><tspan>d :&gt; d</tspan></text></g></g><g id="mscgen_js-svg-__svgarcrow_7"><path d="M45,-23.654499053955078 L45,-22.654499053955078 S44,-1  45,23.654499053955078 " class="arcrow"></path><path d="M189,-23.654499053955078 L189,-22.654499053955078 S190,-2  189,23.654499053955078 " class="arcrow"></path><path d="M333,-23.654499053955078 L333,-22.654499053955078 S330,2  333,23.654499053955078 " class="arcrow"></path><path d="M477,-23.654499053955078 L477,-22.654499053955078 S476,-2  477,23.654499053955078 " class="arcrow"></path><path d="M621,-23.654499053955078 L621,-22.654499053955078 S619,-1  621,23.654499053955078 " class="arcrow"></path></g><g id="mscgen_js-svg-__svg8_0"><g id="mscgen_js-svg-__svg8_0_lbl"></g></g><g id="mscgen_js-svg-__svgarcrow_8"><path d="M45,-19 L45,-18 S47,-2  45,19 " class="arcrow"></path><path d="M189,-19 L189,-18 S188,-2  189,19 " class="arcrow"></path><path d="M333,-19 L333,-18 S334,1  333,19 " class="arcrow"></path><path d="M477,-19 L477,-18 S476,1  477,19 " class="arcrow"></path><path d="M621,-19 L621,-18 S623,-2  621,19 " class="arcrow"></path></g><g id="mscgen_js-svg-__svg9_0"><g id="mscgen_js-svg-__svg9_0_lbl"><path d="M333,-8 S367,-6  426.109375,-8 L426.109375,-8 S424.109,-1  426.109375,8 L426.109375,8 S394.109,6  333,8 L333,8 S331,2  333,-8 z" class="label-text-background"></path><text x="333" y="4" class="empty-text empty-row-text "><tspan>||| (empty row)</tspan></text></g></g><g id="mscgen_js-svg-__svgarcrow_9"><path d="M45,-19 L45,-18 S44,-2  45,19 " class="arcrow"></path><path d="M189,-19 L189,-18 S190,-2  189,19 " class="arcrow"></path><path d="M333,-19 L333,-18 S332,-3  333,19 " class="arcrow"></path><path d="M477,-19 L477,-18 S477,-1  477,19 " class="arcrow"></path><path d="M621,-19 L621,-18 S619,1  621,19 " class="arcrow"></path></g><g id="mscgen_js-svg-__svg10_0"><g id="mscgen_js-svg-__svg10_0_lbl"><path d="M333,-8 S367,-9  437.375,-8 L437.375,-8 S439.375,0  437.375,8 L437.375,8 S404.375,8  333,8 L333,8 S333,0  333,-8 z" class="label-text-background"></path><text x="333" y="4" class="empty-text omitted-row-text "><tspan>... (omitted row)</tspan></text></g></g><g id="mscgen_js-svg-__svgarcrow_10"><path d="M45,-19 L45,-18 S43,-1  45,19 " class="arcrowomit"></path><path d="M189,-19 L189,-18 S189,-1  189,19 " class="arcrowomit"></path><path d="M333,-19 L333,-18 S331,3  333,19 " class="arcrowomit"></path><path d="M477,-19 L477,-18 S476,0  477,19 " class="arcrowomit"></path><path d="M621,-19 L621,-18 S623,0  621,19 " class="arcrowomit"></path></g><g id="mscgen_js-svg-__svg11_0"><path d="M0,0 L1,0 S36,-1  70,0  S107,0  140,0  S177,-2  210,0  S247,-3  280,0  S312,-2  350,0  S385,0  420,0  S454,1  490,0  S524,3  560,0  S592,-2  666,0 " class="comment"></path><g id="mscgen_js-svg-__svg11_0_txt"><g id="mscgen_js-svg-__svg11_0_txt_lbl"><path d="M333,-8 S366,-7  423.140625,-8 L423.140625,-8 S421.141,1  423.140625,8 L423.140625,8 S390.141,9  333,8 L333,8 S335,-1  333,-8 z" class="label-text-background"></path><text x="333" y="4" class="empty-text comment-row-text "><tspan>--- (comment)</tspan></text></g></g></g><g id="mscgen_js-svg-__svgarcrow_11"><path d="M45,-19 L45,-18 S44,-1  45,19 " class="arcrow"></path><path d="M189,-19 L189,-18 S187,1  189,19 " class="arcrow"></path><path d="M333,-19 L333,-18 S335,3  333,19 " class="arcrow"></path><path d="M477,-19 L477,-18 S476,2  477,19 " class="arcrow"></path><path d="M621,-19 L621,-18 S619,-2  621,19 " class="arcrow"></path></g><g id="mscgen_js-svg-__svg0_0"><path d="M-27,0 S5,2  43,0  S77,3  113,0  S150,1  183,0  S220,0  253,0  S289,0  323,0  S360,1  393,0  S427,2  463,0  S499,1  533,0  S568,2  603,0  S639,0  693,0 L693,0 S694,34  693,70  S693,104  693,140  S695,176  693,210  S695,248  693,280  S690,313  693,363.54573822021484 L693,363.54573822021484 S658,364.546  623,363.546  S589,365.546  553,363.546  S518,365.546  483,363.546  S449,364.546  413,363.546  S375,364.546  343,363.546  S308,365.546  273,363.546  S238,363.546  203,363.546  S166,365.546  133,363.546  S98,364.546  63,363.546  S28,363.546  -27,363.54573822021484 L-27,363.54573822021484 S-30,326.546  -27,293.546  S-25,258.546  -27,223.546  S-25,189.546  -27,153.546  S-29,116.546  -27,83.546  S-26,50.546  -27,0 z" class="box inline_expression alt"></path></g></g></defs><g id="mscgen_js-svg-__svg__body" transform="translate(35,3) scale(1,1)"><g id="mscgen_js-svg-__svg__background"><path d="M-35,-3 S-3,-5  35,-3  S67,-5  105,-3  S138,-6  175,-3  S211,-2  245,-3  S279,-5  315,-3  S352,-6  385,-3  S421,-1  455,-3  S487,-2  525,-3  S559,-5  595,-3  S630,-5  701,-3 L701,-3 S702,31  701,67  S700,105  701,137  S703,175  701,207  S699,240  701,277  S702,309  701,347  S698,384  701,417  S703,453  701,487  S703,522  701,594.5457382202148 L701,594.5457382202148 S664,597.546  631,594.546  S595,593.546  561,594.546  S529,592.546  491,594.546  S454,596.546  421,594.546  S386,592.546  351,594.546  S317,591.546  281,594.546  S248,593.546  211,594.546  S175,594.546  141,594.546  S103,595.546  71,594.546  S37,592.546  -35,594.5457382202148 L-35,594.5457382202148 S-35,561.546  -35,524.546  S-38,491.546  -35,454.546  S-35,421.546  -35,384.546  S-36,351.546  -35,314.546  S-33,277.546  -35,244.546  S-38,208.546  -35,174.546  S-32,141.546  -35,104.546  S-34,70.546  -35,-3 z" class="bglayer"></path></g><g id="mscgen_js-svg-__svg__arcspanlayer"><use x="0" y="95" xlink:href="#mscgen_js-svg-__svg0_0"></use></g><g id="mscgen_js-svg-__svg__lifelinelayer"><use x="0" y="57" xlink:href="#mscgen_js-svg-__svgarcrow"></use><use x="0" y="95" xlink:href="#mscgen_js-svg-__svgarcrow_0"></use><use x="0" y="137.15449905395508" xlink:href="#mscgen_js-svg-__svgarcrow_1"></use><use x="0" y="183.96349716186523" xlink:href="#mscgen_js-svg-__svgarcrow_2"></use><use x="0" y="229.7726821899414" xlink:href="#mscgen_js-svg-__svgarcrow_3"></use><use x="0" y="280.9273681640625" xlink:href="#mscgen_js-svg-__svgarcrow_4"></use><use x="0" y="328.9273681640625" xlink:href="#mscgen_js-svg-__svgarcrow_5"></use><use x="0" y="370.0820541381836" xlink:href="#mscgen_js-svg-__svgarcrow_6"></use><use x="0" y="415.89123916625977" xlink:href="#mscgen_js-svg-__svgarcrow_7"></use><use x="0" y="458.54573822021484" xlink:href="#mscgen_js-svg-__svgarcrow_8"></use><use x="0" y="496.54573822021484" xlink:href="#mscgen_js-svg-__svgarcrow_9"></use><use x="0" y="534.5457382202148" xlink:href="#mscgen_js-svg-__svgarcrow_10"></use><use x="0" y="572.5457382202148" xlink:href="#mscgen_js-svg-__svgarcrow_11"></use></g><g id="mscgen_js-svg-__svg__sequencelayer"><use x="0" y="0" xlink:href="#mscgen_js-svg-__svgentities"></use><use x="0" y="137.15449905395508" xlink:href="#mscgen_js-svg-__svg1_0"></use><use x="0" y="137.15449905395508" xlink:href="#mscgen_js-svg-__svg1_1"></use><use x="0" y="137.15449905395508" xlink:href="#mscgen_js-svg-__svg1_2"></use><use x="0" y="137.15449905395508" xlink:href="#mscgen_js-svg-__svg1_3"></use><use x="0" y="183.96349716186523" xlink:href="#mscgen_js-svg-__svg2_0"></use><use x="0" y="183.96349716186523" xlink:href="#mscgen_js-svg-__svg2_1"></use><use x="0" y="183.96349716186523" xlink:href="#mscgen_js-svg-__svg2_2"></use><use x="0" y="229.7726821899414" xlink:href="#mscgen_js-svg-__svg3_0"></use><use x="0" y="229.7726821899414" xlink:href="#mscgen_js-svg-__svg3_1"></use><use x="0" y="229.7726821899414" xlink:href="#mscgen_js-svg-__svg3_2"></use><use x="0" y="229.7726821899414" xlink:href="#mscgen_js-svg-__svg3_3"></use><use x="0" y="280.9273681640625" xlink:href="#mscgen_js-svg-__svg4_0"></use><use x="0" y="280.9273681640625" xlink:href="#mscgen_js-svg-__svg4_1"></use><use x="0" y="280.9273681640625" xlink:href="#mscgen_js-svg-__svg4_2"></use><use x="0" y="328.9273681640625" xlink:href="#mscgen_js-svg-__svg5_0"></use><use x="0" y="370.0820541381836" xlink:href="#mscgen_js-svg-__svg6_0"></use><use x="0" y="370.0820541381836" xlink:href="#mscgen_js-svg-__svg6_1"></use><use x="0" y="415.89123916625977" xlink:href="#mscgen_js-svg-__svg7_0"></use><use x="0" y="415.89123916625977" xlink:href="#mscgen_js-svg-__svg7_1"></use><use x="0" y="415.89123916625977" xlink:href="#mscgen_js-svg-__svg7_2"></use><use x="0" y="458.54573822021484" xlink:href="#mscgen_js-svg-__svg8_0"></use><use x="0" y="496.54573822021484" xlink:href="#mscgen_js-svg-__svg9_0"></use><use x="0" y="534.5457382202148" xlink:href="#mscgen_js-svg-__svg10_0"></use><use x="0" y="572.5457382202148" xlink:href="#mscgen_js-svg-__svg11_0"></use></g><g id="mscgen_js-svg-__svg__notelayer"><use x="0" y="95" xlink:href="#mscgen_js-svg-__svg0_0_label"></use><use x="0" y="137.15449905395508" xlink:href="#mscgen_js-svg-__svg1_4"></use><use x="0" y="183.96349716186523" xlink:href="#mscgen_js-svg-__svg2_3"></use><use x="0" y="229.7726821899414" xlink:href="#mscgen_js-svg-__svg3_4"></use><use x="0" y="280.9273681640625" xlink:href="#mscgen_js-svg-__svg4_3"></use></g><g id="mscgen_js-svg-__svg__watermark"><text x="368" y="298.7728691101074" class="watermark" transform="rotate(-39.07255134992225 368 298.7728691101074)"><tspan>This is a 序 watermark</tspan></text></g></g></svg>
