<svg version="1.1" id="mscgenjsreplaceme" class="mscgenjsreplaceme" xmlns="http://www.w3.org/2000/svg" xmlns:xlink="http://www.w3.org/1999/xlink" width="736" height="576.0499877929688" viewBox="0 0 736 576.0499877929688"><desc>

# Generated by mscgen_js - https://sverweij.github.io/mscgen_js
{"precomment":["# MsGenny: a cheat sheet","\n"],"meta":{"extendedOptions":true,"extendedArcTypes":true,"extendedFeatures":true},"options":{"hscale":"0.9","watermark":"This is a 序 watermark"},"arcs":[[{"kind":"alt","from":"a","to":"d","arcs":[[{"kind":"-&gt;","from":"a","to":"b","label":"a -&gt; b  (signal)"},{"kind":"&lt;-&gt;","from":"b","to":"c","label":"b &lt;-&gt; c"},{"kind":"--","from":"c","to":"d","label":"c -- d"},{"kind":"-&gt;","from":"d","to":"d","label":"d -&gt; d"},{"kind":"note","from":"e","to":"e","label":"e note e \\n(note)"}],[{"kind":"=&gt;","from":"a","to":"b","label":"a =&gt; b  (method)"},{"kind":"&lt;=&gt;","from":"b","to":"c","label":"b &lt;=&gt; c"},{"kind":"=&gt;","from":"d","to":"d","label":"d =&gt; d"},{"kind":"box","from":"e","to":"e","label":"e box e\\n(action)"}],[{"kind":"&gt;&gt;","from":"b","to":"a","label":"b &gt;&gt; a (return value)"},{"kind":"&lt;&lt;&gt;&gt;","from":"b","to":"c","label":"b &lt;&lt;&gt;&gt; c"},{"kind":"..","from":"c","to":"d","label":"c .. d (dotted)"},{"kind":"&gt;&gt;","from":"d","to":"d","label":"d &gt;&gt; d"},{"kind":"rbox","from":"e","to":"e","label":"e rbox e\\n(reference)"}],[{"kind":"=&gt;&gt;","from":"a","to":"b","label":"a =&gt;&gt; b (callback)"},{"kind":"&lt;&lt;=&gt;&gt;","from":"b","to":"c","label":"b &lt;&lt;=&gt;&gt; c"},{"kind":"=&gt;&gt;","from":"d","to":"d","label":"d =&gt;&gt; d"},{"kind":"abox","from":"e","to":"e","label":"e abox e\\n(state/ condition)"}],[{"kind":"---","label":"inline expression separator"}],[{"kind":"-x","from":"a","to":"b","label":"a -x b  (lost)"},{"kind":"-x","from":"d","to":"d","label":"d -x d"}],[{"kind":":&gt;","from":"a","to":"b","label":"a :&gt; b  (emphasis)"},{"kind":"&lt;:&gt;","from":"b","to":"c","label":"b &lt;:&gt; c"},{"kind":":&gt;","from":"d","to":"d","label":"d :&gt; d"}]],"label":"inline expression"}],[{"kind":"|||","label":"||| (empty row)"}],[{"kind":"...","label":"... (omitted row)"}],[{"kind":"---","label":"--- (comment)"}]],"entities":[{"name":"a"},{"name":"b"},{"name":"c"},{"name":"e"},{"name":"d"}]}</desc><defs><style type="text/css">svg.mscgenjsreplaceme{font-family:Helvetica,sans-serif;font-size:12px;font-weight:normal;font-style:normal;text-decoration:none;background-color:white;stroke:black;stroke-width:2}.mscgenjsreplaceme path, .mscgenjsreplaceme rect{fill:none}.mscgenjsreplaceme .label-text-background{fill:white;stroke:white;stroke-width:0}.mscgenjsreplaceme .bglayer{fill:white;stroke:white;stroke-width:0}.mscgenjsreplaceme line{}.mscgenjsreplaceme .return, .mscgenjsreplaceme .comment{stroke-dasharray:5,3}.mscgenjsreplaceme .inline_expression_divider{stroke-dasharray:10,5}.mscgenjsreplaceme text{color:inherit;stroke:none;text-anchor:middle}.mscgenjsreplaceme text.anchor-start{text-anchor:start}.mscgenjsreplaceme .arrow-marker{overflow:visible}.mscgenjsreplaceme .arrow-style{stroke-width:1}.mscgenjsreplaceme .arcrow, .mscgenjsreplaceme .arcrowomit, .mscgenjsreplaceme .emphasised{stroke-linecap:butt}.mscgenjsreplaceme .arcrowomit{stroke-dasharray:2,2}.mscgenjsreplaceme .box, .mscgenjsreplaceme .entity{fill:white;stroke-linejoin:round}.mscgenjsreplaceme .inherit{stroke:inherit;color:inherit}.mscgenjsreplaceme .inherit-fill{fill:inherit}.mscgenjsreplaceme .watermark{font-size:48pt;font-weight:bold;opacity:0.14}.mscgenjsreplaceme text.entity-text{font-weight:bold;}.mscgenjsreplaceme text.return-text{font-style:italic}.mscgenjsreplaceme path.note{fill:#FFFFCC}.mscgenjsreplaceme rect.label-text-background{opacity:0.9}.mscgenjsreplaceme line.comment,.mscgenjsreplaceme rect.inline_expression,.mscgenjsreplaceme .inline_expression_divider,.mscgenjsreplaceme .inline_expression_label{stroke:grey}</style><marker orient="auto" id="mscgenjsreplacemecallback-black" class="arrow-marker" viewBox="0 0 10 10" refX="9" refY="3" markerUnits="strokeWidth" markerWidth="10" markerHeight="10"><path d="M 1,1 l 8,2 l-8,2" class="arrow-style" style="stroke-dasharray:100,1;stroke:black"></path></marker><marker orient="auto" id="mscgenjsreplacemecallback-l-black" class="arrow-marker" viewBox="0 0 10 10" refX="9" refY="3" markerUnits="strokeWidth" markerWidth="10" markerHeight="10"><path d="M17,1 l-8,2 l 8,2" class="arrow-style" style="stroke-dasharray:100,1;stroke:black"></path></marker><marker orient="auto" id="mscgenjsreplacemelost-black" class="arrow-marker" viewBox="0 0 10 10" refX="9" refY="3" markerUnits="strokeWidth" markerWidth="10" markerHeight="10"><path d="M7,0 l5,6 M7,6 l5,-6" class="arrow-style" style="stroke-dasharray:100,1;stroke:black"></path></marker><marker orient="auto" id="mscgenjsreplacememethod-black" class="arrow-marker" viewBox="0 0 10 10" refX="9" refY="3" markerUnits="strokeWidth" markerWidth="10" markerHeight="10"><polygon points="1,1  9,3  1,5" class="arrow-style" stroke="black" fill="black"></polygon></marker><marker orient="auto" id="mscgenjsreplacememethod-l-black" class="arrow-marker" viewBox="0 0 10 10" refX="9" refY="3" markerUnits="strokeWidth" markerWidth="10" markerHeight="10"><polygon points="17,1 9,3 17,5" class="arrow-style" stroke="black" fill="black"></polygon></marker><marker orient="auto" id="mscgenjsreplacemesignal-black" class="arrow-marker" viewBox="0 0 10 10" refX="9" refY="3" markerUnits="strokeWidth" markerWidth="10" markerHeight="10"><path d="M9,3 l-8, 2" class="arrow-style" style="stroke-dasharray:100,1;stroke:black"></path></marker><marker orient="auto" id="mscgenjsreplacemesignal-u-black" class="arrow-marker" viewBox="0 0 10 10" refX="9" refY="3" markerUnits="strokeWidth" markerWidth="10" markerHeight="10"><path d="M9,3 l-8,-2" class="arrow-style" style="stroke-dasharray:100,1;stroke:black"></path></marker><marker orient="auto" id="mscgenjsreplacemesignal-l-black" class="arrow-marker" viewBox="0 0 10 10" refX="9" refY="3" markerUnits="strokeWidth" markerWidth="10" markerHeight="10"><path d="M9,3 l 8, 2" class="arrow-style" style="stroke-dasharray:100,1;stroke:black"></path></marker><marker orient="auto" id="mscgenjsreplacemesignal-lu-black" class="arrow-marker" viewBox="0 0 10 10" refX="9" refY="3" markerUnits="strokeWidth" markerWidth="10" markerHeight="10"><path d="M9,3 l 8,-2" class="arrow-style" style="stroke-dasharray:100,1;stroke:black"></path></marker></defs><g id="mscgenjsreplaceme_body" transform="translate(35,3) scale(1,1)"><g id="mscgenjsreplaceme_background"><rect width="736" height="576.05" x="-35" y="-3" class="bglayer"></rect></g><g id="mscgenjsreplaceme_arcspans"><rect width="720" height="342.05" x="-27" y="95" class="box inline_expression alt"></rect></g><g id="mscgenjsreplaceme_lifelines"><line x1="45" y1="38" x2="45" y2="76" class="arcrow"></line><line x1="189" y1="38" x2="189" y2="76" class="arcrow"></line><line x1="333" y1="38" x2="333" y2="76" class="arcrow"></line><line x1="477" y1="38" x2="477" y2="76" class="arcrow"></line><line x1="621" y1="38" x2="621" y2="76" class="arcrow"></line><line x1="45" y1="76" x2="45" y2="114" class="arcrow"></line><line x1="189" y1="76" x2="189" y2="114" class="arcrow"></line><line x1="333" y1="76" x2="333" y2="114" class="arcrow"></line><line x1="477" y1="76" x2="477" y2="114" class="arcrow"></line><line x1="621" y1="76" x2="621" y2="114" class="arcrow"></line><line x1="45" y1="114" x2="45" y2="156.81" class="arcrow"></line><line x1="189" y1="114" x2="189" y2="156.81" class="arcrow"></line><line x1="333" y1="114" x2="333" y2="156.81" class="arcrow"></line><line x1="477" y1="114" x2="477" y2="156.81" class="arcrow"></line><line x1="621" y1="114" x2="621" y2="156.81" class="arcrow"></line><line x1="45" y1="156.81" x2="45" y2="199.62" class="arcrow"></line><line x1="189" y1="156.81" x2="189" y2="199.62" class="arcrow"></line><line x1="333" y1="156.81" x2="333" y2="199.62" class="arcrow"></line><line x1="477" y1="156.81" x2="477" y2="199.62" class="arcrow"></line><line x1="621" y1="156.81" x2="621" y2="199.62" class="arcrow"></line><line x1="45" y1="199.62" x2="45" y2="242.43" class="arcrow"></line><line x1="189" y1="199.62" x2="189" y2="242.43" class="arcrow"></line><line x1="333" y1="199.62" x2="333" y2="242.43" class="arcrow"></line><line x1="477" y1="199.62" x2="477" y2="242.43" class="arcrow"></line><line x1="621" y1="199.62" x2="621" y2="242.43" class="arcrow"></line><line x1="45" y1="242.43" x2="45" y2="294.43" class="arcrow"></line><line x1="189" y1="242.43" x2="189" y2="294.43" class="arcrow"></line><line x1="333" y1="242.43" x2="333" y2="294.43" class="arcrow"></line><line x1="477" y1="242.43" x2="477" y2="294.43" class="arcrow"></line><line x1="621" y1="242.43" x2="621" y2="294.43" class="arcrow"></line><line x1="45" y1="294.43" x2="45" y2="332.43" class="arcrow"></line><line x1="189" y1="294.43" x2="189" y2="332.43" class="arcrow"></line><line x1="333" y1="294.43" x2="333" y2="332.43" class="arcrow"></line><line x1="477" y1="294.43" x2="477" y2="332.43" class="arcrow"></line><line x1="621" y1="294.43" x2="621" y2="332.43" class="arcrow"></line><line x1="45" y1="332.43" x2="45" y2="375.24" class="arcrow"></line><line x1="189" y1="332.43" x2="189" y2="375.24" class="arcrow"></line><line x1="333" y1="332.43" x2="333" y2="375.24" class="arcrow"></line><line x1="477" y1="332.43" x2="477" y2="375.24" class="arcrow"></line><line x1="621" y1="332.43" x2="621" y2="375.24" class="arcrow"></line><line x1="45" y1="375.24" x2="45" y2="418.05" class="arcrow"></line><line x1="189" y1="375.24" x2="189" y2="418.05" class="arcrow"></line><line x1="333" y1="375.24" x2="333" y2="418.05" class="arcrow"></line><line x1="477" y1="375.24" x2="477" y2="418.05" class="arcrow"></line><line x1="621" y1="375.24" x2="621" y2="418.05" class="arcrow"></line><line x1="45" y1="418.05" x2="45" y2="456.05" class="arcrow"></line><line x1="189" y1="418.05" x2="189" y2="456.05" class="arcrow"></line><line x1="333" y1="418.05" x2="333" y2="456.05" class="arcrow"></line><line x1="477" y1="418.05" x2="477" y2="456.05" class="arcrow"></line><line x1="621" y1="418.05" x2="621" y2="456.05" class="arcrow"></line><line x1="45" y1="456.05" x2="45" y2="494.05" class="arcrow"></line><line x1="189" y1="456.05" x2="189" y2="494.05" class="arcrow"></line><line x1="333" y1="456.05" x2="333" y2="494.05" class="arcrow"></line><line x1="477" y1="456.05" x2="477" y2="494.05" class="arcrow"></line><line x1="621" y1="456.05" x2="621" y2="494.05" class="arcrow"></line><line x1="45" y1="494.05" x2="45" y2="532.05" class="arcrowomit"></line><line x1="189" y1="494.05" x2="189" y2="532.05" class="arcrowomit"></line><line x1="333" y1="494.05" x2="333" y2="532.05" class="arcrowomit"></line><line x1="477" y1="494.05" x2="477" y2="532.05" class="arcrowomit"></line><line x1="621" y1="494.05" x2="621" y2="532.05" class="arcrowomit"></line><line x1="45" y1="532.05" x2="45" y2="570.05" class="arcrow"></line><line x1="189" y1="532.05" x2="189" y2="570.05" class="arcrow"></line><line x1="333" y1="532.05" x2="333" y2="570.05" class="arcrow"></line><line x1="477" y1="532.05" x2="477" y2="570.05" class="arcrow"></line><line x1="621" y1="532.05" x2="621" y2="570.05" class="arcrow"></line></g><g id="mscgenjsreplaceme_sequence"><g><g><rect width="90" height="38" class="entity"></rect><g><text x="45" y="22.5" class="entity-text "><tspan>a</tspan></text></g></g><g><rect width="90" height="38" x="144" class="entity"></rect><g><text x="189" y="22.5" class="entity-text "><tspan>b</tspan></text></g></g><g><rect width="90" height="38" x="288" class="entity"></rect><g><text x="333" y="22.5" class="entity-text "><tspan>c</tspan></text></g></g><g><rect width="90" height="38" x="432" class="entity"></rect><g><text x="477" y="22.5" class="entity-text "><tspan>e</tspan></text></g></g><g><rect width="90" height="38" x="576" class="entity"></rect><g><text x="621" y="22.5" class="entity-text "><tspan>d</tspan></text></g></g></g><g><line x1="45" y1="135.4" x2="189" y2="135.4" class="arc directional signal" style="stroke:black" marker-end="url(#mscgenjsreplacemesignal-black)"></line><g><rect width="73.69" height="14" x="80.14" y="119.89" class="label-text-background"></rect><text x="117" y="130.9" class="directional-text signal-text "><tspan>a -&gt; b  (signal)</tspan></text></g></g><g><line x1="189" y1="135.4" x2="333" y2="135.4" class="arc bidirectional signal" style="stroke:black" marker-end="url(#mscgenjsreplacemesignal-black)" marker-start="url(#mscgenjsreplacemesignal-l-black)"></line><g><rect width="37.34" height="14" x="242.31" y="119.89" class="label-text-background"></rect><text x="261" y="130.9" class="bidirectional-text signal-text "><tspan>b &lt;-&gt; c</tspan></text></g></g><g><line x1="333" y1="135.4" x2="621" y2="135.4" class="arc nondirectional signal" style="stroke:black"></line><g><rect width="27.33" height="14" x="463.33" y="119.89" class="label-text-background"></rect><text x="477" y="130.9" class="nondirectional-text signal-text "><tspan>c -- d</tspan></text></g></g><g><path d="M621,127.8 C693,127.9 693,150.6 621,150.6 " class="arc directional signal" style="stroke:black" marker-end="url(#mscgenjsreplacemesignal-u-black)"></path><g><rect width="31.02" height="14" x="624" y="111.8" class="label-text-background"></rect><text x="624" y="122.8" class="directional-text signal-text anchor-start "><tspan>d -&gt; d</tspan></text></g></g><g><line x1="45" y1="178.21" x2="189" y2="178.21" class="arc directional method" style="stroke:black" marker-end="url(#mscgenjsreplacememethod-black)"></line><g><rect width="85.38" height="14" x="74.3" y="162.7" class="label-text-background"></rect><text x="117" y="173.71" class="directional-text method-text "><tspan>a =&gt; b  (method)</tspan></text></g></g><g><line x1="189" y1="178.21" x2="333" y2="178.21" class="arc bidirectional method" style="stroke:black" marker-end="url(#mscgenjsreplacememethod-black)" marker-start="url(#mscgenjsreplacememethod-l-black)"></line><g><rect width="40.36" height="14" x="240.81" y="162.7" class="label-text-background"></rect><text x="261" y="173.71" class="bidirectional-text method-text "><tspan>b &lt;=&gt; c</tspan></text></g></g><g><path d="M621,170.61 C693,170.71 693,193.41 621,193.41 " class="arc directional method" style="stroke:black" marker-end="url(#mscgenjsreplacememethod-black)"></path><g><rect width="34.03" height="14" x="624" y="154.61" class="label-text-background"></rect><text x="624" y="165.61" class="directional-text method-text anchor-start "><tspan>d =&gt; d</tspan></text></g></g><g><line x1="189" y1="221.02" x2="45" y2="221.02" class="arc directional return" style="stroke:black" marker-end="url(#mscgenjsreplacemecallback-black)"></line><g><rect width="108.75" height="14" x="62.63" y="205.52" class="label-text-background"></rect><text x="117" y="216.52" class="directional-text return-text "><tspan>b &gt;&gt; a (return value)</tspan></text></g></g><g><line x1="189" y1="221.02" x2="333" y2="221.02" class="arc bidirectional return" style="stroke:black" marker-end="url(#mscgenjsreplacemecallback-black)" marker-start="url(#mscgenjsreplacemecallback-l-black)"></line><g><rect width="48.09" height="14" x="237.31" y="205.52" class="label-text-background"></rect><text x="261" y="216.52" class="bidirectional-text return-text "><tspan>b &lt;&lt;&gt;&gt; c</tspan></text></g></g><g><line x1="333" y1="221.02" x2="621" y2="221.02" class="arc nondirectional return" style="stroke:black"></line><g><rect width="70.72" height="14" x="441.64" y="205.52" class="label-text-background"></rect><text x="477" y="216.52" class="nondirectional-text return-text "><tspan>c .. d (dotted)</tspan></text></g></g><g><path d="M621,213.42 C693,213.52 693,236.22 621,236.22 " class="arc directional return" style="stroke:black" marker-end="url(#mscgenjsreplacemecallback-black)"></path><g><rect width="35.08" height="14" x="624" y="197.41" class="label-text-background"></rect><text x="624" y="208.42" class="directional-text return-text anchor-start "><tspan>d &gt;&gt; d</tspan></text></g></g><g><line x1="45" y1="268.43" x2="189" y2="268.43" class="arc directional callback" style="stroke:black" marker-end="url(#mscgenjsreplacemecallback-black)"></line><g><rect width="95.72" height="14" x="69.14" y="252.92" class="label-text-background"></rect><text x="117" y="263.93" class="directional-text callback-text "><tspan>a =&gt;&gt; b (callback)</tspan></text></g></g><g><line x1="189" y1="268.43" x2="333" y2="268.43" class="arc bidirectional callback" style="stroke:black" marker-end="url(#mscgenjsreplacemecallback-black)" marker-start="url(#mscgenjsreplacemecallback-l-black)"></line><g><rect width="54.38" height="14" x="233.8" y="252.92" class="label-text-background"></rect><text x="261" y="263.93" class="bidirectional-text callback-text "><tspan>b &lt;&lt;=&gt;&gt; c</tspan></text></g></g><g><path d="M621,260.83 C693,260.93 693,283.63 621,283.63 " class="arc directional callback" style="stroke:black" marker-end="url(#mscgenjsreplacemecallback-black)"></path><g><rect width="41.03" height="14" x="624" y="244.83" class="label-text-background"></rect><text x="624" y="255.83" class="directional-text callback-text anchor-start "><tspan>d =&gt;&gt; d</tspan></text></g></g><g><line x1="-27" y1="313.43" x2="693" y2="313.43" class="inline_expression_divider"></line><g><rect width="143.41" height="14" x="261.28" y="305.92" class="label-text-background"></rect><text x="333" y="316.93" class="empty-text comment-row-text "><tspan>inline expression separator</tspan></text></g></g><g><line x1="45" y1="353.83" x2="153" y2="353.83" class="arc directional lost" style="stroke:black" marker-end="url(#mscgenjsreplacemelost-black)"></line><g><rect width="60" height="14" x="68.98" y="338.33" class="label-text-background"></rect><text x="99" y="349.33" class="directional-text lost-text "><tspan>a -x b  (lost)</tspan></text></g></g><g><path d="M621,346.23 C693,346.33 693,369.03 636,369.03 " class="arc directional lost" style="stroke:black" marker-end="url(#mscgenjsreplacemelost-black)"></path><g><rect width="30" height="14" x="624" y="330.22" class="label-text-background"></rect><text x="624" y="341.23" class="directional-text lost-text anchor-start "><tspan>d -x d</tspan></text></g></g><g><path d="M45,396.64 l1,0 M45,394.64 l129,0 M45,398.64 l129,0 M188,396.64 l1,0 " class="arc directional emphasised" style="stroke:black;" marker-end="url(#mscgenjsreplacememethod-black)"></path><g><rect width="93.03" height="14" x="70.47" y="381.13" class="label-text-background"></rect><text x="117" y="392.14" class="directional-text emphasised-text "><tspan>a :&gt; b  (emphasis)</tspan></text></g></g><g><path d="M189,396.64 l1,0 M204,394.64 l114,0 M204,398.64 l114,0 M332,396.64 l1,0 " class="arc bidi bidirectional emphasised" style="stroke:black" marker-end="url(#mscgenjsreplacememethod-black)" marker-start="url(#mscgenjsreplacememethod-l-black)"></path><g><rect width="36.69" height="14" x="242.64" y="381.13" class="label-text-background"></rect><text x="261" y="392.14" class="bidirectional-text emphasised-text "><tspan>b &lt;:&gt; c</tspan></text></g></g><g><g class="arc directional emphasised"><path d="M621,389.04 C689,389.14 689,407.84 636,407.84 " class="arc directional emphasised"></path><path d="M621,389.04 C693,389.14 693,411.84 636,411.84 " class="arc directional emphasised"></path><path d="M621,389.04 C693,389.14 693,409.84 621,409.84 " style="stroke:transparent;" marker-end="url(#mscgenjsreplacememethod-black)"></path></g><g><rect width="30.34" height="14" x="624" y="373.03" class="label-text-background"></rect><text x="624" y="384.04" class="directional-text emphasised-text anchor-start "><tspan>d :&gt; d</tspan></text></g></g><g></g><g><rect width="76.02" height="14" x="294.98" y="467.55" class="label-text-background"></rect><text x="333" y="478.55" class="empty-text empty-row-text "><tspan>||| (empty row)</tspan></text></g><g><rect width="83.34" height="14" x="291.31" y="505.55" class="label-text-background"></rect><text x="333" y="516.55" class="empty-text omitted-row-text "><tspan>... (omitted row)</tspan></text></g><g><line x1="0" y1="551.05" x2="666" y2="551.05" class="comment"></line><g><rect width="72.66" height="14" x="296.66" y="543.55" class="label-text-background"></rect><text x="333" y="554.55" class="empty-text comment-row-text "><tspan>--- (comment)</tspan></text></g></g></g><g id="mscgenjsreplaceme_notes"><g><path d="M-26,95 l117.72,0 l0,11 l-7,7 l-110.72,0 " class="box inline_expression_label"></path><g><text x="-24" y="108" class="inline_expression-text alt-text anchor-start "><tspan>alt: inline expression</tspan></text></g></g><g><path d="M409,118.4 l127,0 l0,9 l9,0 m-9,-9 l9,9 l0,25 l-136,0 l0,-34 z" class="box note"></path><g><text x="477" y="131.4" class="box-text note-text "><tspan>e note e </tspan></text><text x="477" y="146.4" class="box-text note-text "><tspan>(note)</tspan></text></g></g><g><rect width="136" height="34" x="409" y="161.21" class="box"></rect><g><text x="477" y="174.21" class="box-text "><tspan>e box e</tspan></text><text x="477" y="189.21" class="box-text "><tspan>(action)</tspan></text></g></g><g><rect width="136" height="34" x="409" y="204.02" rx="6" ry="6" class="box rbox"></rect><g><text x="477" y="217.02" class="box-text rbox-text "><tspan>e rbox e</tspan></text><text x="477" y="232.02" class="box-text rbox-text "><tspan>(reference)</tspan></text></g></g><g><path d="M409,268.43 l3,-24 l130,0 l3,24 l-3,24 l-130,0 z" class="box abox"></path><g><text x="477" y="256.93" class="box-text abox-text "><tspan>e abox e</tspan></text><text x="477" y="271.93" class="box-text abox-text "><tspan>(state/</tspan></text><text x="477" y="286.93" class="box-text abox-text "><tspan>condition)</tspan></text></g></g></g><g id="mscgenjsreplaceme_watermark"><text x="368" y="288.02" class="watermark" transform="rotate(-38.05 368 288.02)"><tspan>This is a 序 watermark</tspan></text></g></g></svg>