<svg version="1.1" id="mscgen_js-svg-__svg" xmlns="http://www.w3.org/2000/svg" xmlns:xlink="http://www.w3.org/1999/xlink" width="688" height="313.3999938964844"><desc id="mscgen_js-svg-__svg__msc_source"></desc><defs><style type="text/css">svg{  font-family:Helvetica,sans-serif;  font-size:12px;  font-weight:normal;  font-style:normal;  text-decoration:none;  background-color:white;  stroke:black;  color:black;}rect{  fill:none;  stroke:black;  stroke-width:2;}.bglayer{  fill:white;  stroke:white;  stroke-width:0;}rect.textbg{  fill:white;  stroke:white;  stroke-width:0;  opacity:0.9;}line{  stroke:black;  stroke-width:2;}.arcrowomit{  stroke-dasharray:2,2;}text{  color:inherit;  stroke:none;  text-anchor:middle;}text.entity{  text-decoration:underline;}text.anchor-start{  text-anchor:start;}path{  stroke:black;  color:black;  stroke-width:2;  fill:none;}.dotted{  stroke-dasharray:5,2;}.striped{  stroke-dasharray:10,5;}.arrow-marker{  overflow:visible;}.arrow-style{  stroke-width:1;}.arcrowomit{  stroke-dasharray:2,2;}.box{  /* fill: #ffc;  no-inherit */  fill:white;  opacity:0.9;}.boxtext, .arctext{  font-size:0.8em;  text-anchor:middle;}.comment{  stroke-dasharray:5,2;} .inherit{  stroke:inherit;  color:inherit;} .inherit-fill{  fill:inherit;}.watermark{  stroke:black;  color:black;  fill:black;  font-size: 48pt;  font-weight:bold;  opacity:0.14;}</style><marker orient="auto" id="mscgen_js-svg-__svgcallback-#005B82" class="arrow-marker" viewBox="0 0 10 10" refX="9" refY="3" markerUnits="strokeWidth" markerWidth="10" markerHeight="10"><path d="M 1,1 l 8,2 l-8,2" class="arrow-style" style="stroke-dasharray:100,1; stroke : #005B82"></path></marker><marker orient="auto" id="mscgen_js-svg-__svgcallback-l-#005B82" class="arrow-marker" viewBox="0 0 10 10" refX="9" refY="3" markerUnits="strokeWidth" markerWidth="10" markerHeight="10"><path d="M17,1 l-8,2 l 8,2" class="arrow-style" style="stroke-dasharray:100,1; stroke : #005B82"></path></marker><marker orient="auto" id="mscgen_js-svg-__svgmethod-#005B82" class="arrow-marker" viewBox="0 0 10 10" refX="9" refY="3" markerUnits="strokeWidth" markerWidth="10" markerHeight="10"><polygon points="1,1  9,3  1,5" class="arrow-style" stroke="#005B82" fill="#005B82"></polygon></marker><marker orient="auto" id="mscgen_js-svg-__svgmethod-l-#005B82" class="arrow-marker" viewBox="0 0 10 10" refX="9" refY="3" markerUnits="strokeWidth" markerWidth="10" markerHeight="10"><polygon points="17,1 9,3 17,5" class="arrow-style" stroke="#005B82" fill="#005B82"></polygon></marker><g id="mscgen_js-svg-__svg__defs"><g id="mscgen_js-svg-__svgAlice"><rect width="140" height="38" style="fill:#00A1DE;stroke:#00A1DE;"></rect><g><text x="70" y="22" class="entity" style="fill:white;"><tspan>Alice</tspan></text></g></g><g id="mscgen_js-svg-__svgBob"><rect width="140" height="38" style="fill:#00A1DE;stroke:#00A1DE;"></rect><g><text x="70" y="22" class="entity" style="fill:white;"><tspan>Bob</tspan></text></g></g><g id="mscgen_js-svg-__svgnotes"><rect width="140" height="38" style="stroke:transparent;"></rect><g><text x="70" y="22" class="entity"><tspan> </tspan></text></g></g><g id="mscgen_js-svg-__svgarcrow"><line x1="70" y1="-19" x2="70" y2="19" class="mscgen_js-svg-__svgarcrow" style="stroke : #00A1DE;"></line><line x1="294" y1="-19" x2="294" y2="19" class="mscgen_js-svg-__svgarcrow" style="stroke : #00A1DE;"></line><line x1="518" y1="-19" x2="518" y2="19" class="mscgen_js-svg-__svgarcrow" style="stroke : transparent;"></line></g><g id="mscgen_js-svg-__svg0_0"><path d="M70, -7.6 C182,-7.4 182,15.2 70,15.2" style="stroke:#005B82" marker-end="url(#mscgen_js-svg-__svgmethod-#005B82)"></path><g><rect width="101" height="13" x="73" y="-35" class="textbg"></rect><text x="73" y="-25.1" class="anchor-start" style="fill:#005B82;"><tspan>sign message with</tspan></text><rect width="85" height="13" x="73" y="-22" class="textbg"></rect><text x="73" y="-12.100000000000001" class="anchor-start" style="fill:#005B82;"><tspan>own private key</tspan></text></g></g><g id="mscgen_js-svg-__svgarcrow_0"><line x1="70" y1="-27.099998474121094" x2="70" y2="27.099998474121094" class="arcrow" style="stroke : #00A1DE;"></line><line x1="294" y1="-27.099998474121094" x2="294" y2="27.099998474121094" class="arcrow" style="stroke : #00A1DE;"></line><line x1="518" y1="-27.099998474121094" x2="518" y2="27.099998474121094" class="arcrow" style="stroke : transparent;"></line></g><g id="mscgen_js-svg-__svg1_0"><line x1="70" y1="0" x2="294" y2="0" style="stroke:#005B82" marker-end="url(#mscgen_js-svg-__svgmethod-#005B82)"></line><g><rect width="90" height="12" x="137" y="-13" class="textbg"></rect><text x="182" y="-4" style="fill:#005B82;"><tspan>signed message</tspan></text></g></g><g id="mscgen_js-svg-__svg1_1"><path d="M408,-21l211,0 l0,9 l9,0 m-9,-9 l9,9 l0,33 l-220,0 l0,-43 " class="box" style="fill:#E77B2F;stroke:white;"></path><g><text x="518" y="-10" style="fill:white;"><tspan>This is just a sample chart with a</tspan></text><text x="518" y="3" style="fill:white;"><tspan>(high level) illustration of public</tspan></text><text x="518" y="16" style="fill:white;"><tspan>key encryption.</tspan></text></g></g><g id="mscgen_js-svg-__svgarcrow_1"><line x1="70" y1="-23.5" x2="70" y2="23.5" class="arcrow" style="stroke : #00A1DE;"></line><line x1="294" y1="-23.5" x2="294" y2="23.5" class="arcrow" style="stroke : #00A1DE;"></line><line x1="518" y1="-23.5" x2="518" y2="23.5" class="arcrow" style="stroke : transparent;"></line></g><g id="mscgen_js-svg-__svg2_0"><line x1="294" y1="0" x2="70" y2="0" style="stroke:#005B82" marker-end="url(#mscgen_js-svg-__svgmethod-#005B82)"></line><g><rect width="126" height="12" x="119" y="-13" class="textbg"></rect><text x="182" y="-4" style="fill:#005B82;"><tspan>get Alice her public key</tspan></text></g></g><g id="mscgen_js-svg-__svgarcrow_2"><line x1="70" y1="-19" x2="70" y2="19" class="arcrow" style="stroke : #00A1DE;"></line><line x1="294" y1="-19" x2="294" y2="19" class="arcrow" style="stroke : #00A1DE;"></line><line x1="518" y1="-19" x2="518" y2="19" class="arcrow" style="stroke : transparent;"></line></g><g id="mscgen_js-svg-__svg3_0"><line x1="70" y1="0" x2="294" y2="0" style="stroke:#005B82;stroke-dasharray:5,2;" marker-end="url(#mscgen_js-svg-__svgcallback-#005B82)"></line><g><rect width="94" height="12" x="135" y="-13" class="textbg"></rect><text x="182" y="-4" style="fill:#005B82;"><tspan>Alices' public key</tspan></text></g></g><g id="mscgen_js-svg-__svgarcrow_3"><line x1="70" y1="-19" x2="70" y2="19" class="arcrow" style="stroke : #00A1DE;"></line><line x1="294" y1="-19" x2="294" y2="19" class="arcrow" style="stroke : #00A1DE;"></line><line x1="518" y1="-19" x2="518" y2="19" class="arcrow" style="stroke : transparent;"></line></g><g id="mscgen_js-svg-__svg4_0"><path d="M294, -7.6 C406,-7.4 406,15.2 294,15.2" style="stroke:#005B82" marker-end="url(#mscgen_js-svg-__svgmethod-#005B82)"></path><g><rect width="82" height="13" x="297" y="-35" class="textbg"></rect><text x="297" y="-25.1" class="anchor-start" style="fill:#005B82;"><tspan>verify message</tspan></text><rect width="118" height="13" x="297" y="-22" class="textbg"></rect><text x="297" y="-12.100000000000001" class="anchor-start" style="fill:#005B82;"><tspan>with Alices' public key</tspan></text></g></g><g id="mscgen_js-svg-__svgarcrow_4"><line x1="70" y1="-27.099998474121094" x2="70" y2="27.099998474121094" class="arcrow" style="stroke : #00A1DE;"></line><line x1="294" y1="-27.099998474121094" x2="294" y2="27.099998474121094" class="arcrow" style="stroke : #00A1DE;"></line><line x1="518" y1="-27.099998474121094" x2="518" y2="27.099998474121094" class="arcrow" style="stroke : transparent;"></line></g></g></defs><g id="mscgen_js-svg-__svg__body" transform="translate(50,3) scale(1,1)"><g id="mscgen_js-svg-__svg__background"><rect width="688" height="313.3999938964844" x="-50" y="-3" class="bglayer"></rect></g><g id="mscgen_js-svg-__svg__arcspanlayer"></g><g id="mscgen_js-svg-__svg__lifelinelayer"><use x="0" y="57" xlink:href="#mscgen_js-svg-__svgarcrow"></use><use x="0" y="103.0999984741211" xlink:href="#mscgen_js-svg-__svgarcrow_0"></use><use x="0" y="153.6999969482422" xlink:href="#mscgen_js-svg-__svgarcrow_1"></use><use x="0" y="196.1999969482422" xlink:href="#mscgen_js-svg-__svgarcrow_2"></use><use x="0" y="234.1999969482422" xlink:href="#mscgen_js-svg-__svgarcrow_3"></use><use x="0" y="280.2999954223633" xlink:href="#mscgen_js-svg-__svgarcrow_4"></use></g><g id="mscgen_js-svg-__svg__sequencelayer"><use x="0" y="0" xlink:href="#mscgen_js-svg-__svgAlice"></use><use x="224" y="0" xlink:href="#mscgen_js-svg-__svgBob"></use><use x="448" y="0" xlink:href="#mscgen_js-svg-__svgnotes"></use><use x="0" y="103.0999984741211" xlink:href="#mscgen_js-svg-__svg0_0"></use><use x="0" y="153.6999969482422" xlink:href="#mscgen_js-svg-__svg1_0"></use><use x="0" y="196.1999969482422" xlink:href="#mscgen_js-svg-__svg2_0"></use><use x="0" y="234.1999969482422" xlink:href="#mscgen_js-svg-__svg3_0"></use><use x="0" y="280.2999954223633" xlink:href="#mscgen_js-svg-__svg4_0"></use></g><g id="mscgen_js-svg-__svg__notelayer"><use x="0" y="153.6999969482422" xlink:href="#mscgen_js-svg-__svg1_1"></use></g><g id="mscgen_js-svg-__svg__watermark"></g></g></svg>