<svg version="1.1" id="mscgenjsreplaceme" class="mscgenjsreplaceme" xmlns="http://www.w3.org/2000/svg" xmlns:xlink="http://www.w3.org/1999/xlink" width="784" height="944" viewBox="0 0 784 944"><desc>

# Generated by mscgen_js - https://sverweij.github.io/mscgen_js
{"precomment":["/*\n * a possible re-Captcha integration, assuming the client has\n * the re-Captcha widget embedded in the site\n *\n * Please refer to https://developers.google.com/recaptcha/intro\n * if you're serious about implementing re-Captcha\n */","\n","\n"],"meta":{"extendedOptions":false,"extendedArcTypes":true,"extendedFeatures":true},"options":{"wordwraparcs":true,"hscale":"1.2"},"entities":[{"name":"customer"},{"name":"client"},{"name":"server"},{"name":"google","label":"Google reCaptcha service"}],"arcs":[[{"kind":"=&gt;","from":"customer","to":"client","label":"log in with credentials, reCaptcha"}],[{"kind":"=&gt;","from":"client","to":"google","label":"getResponse(reCaptcha)"}],[{"kind":"&gt;&gt;","from":"google","to":"client","label":"reCaptcha response"}],[{"kind":"=&gt;","from":"client","to":"server","label":"POST credentials, reCaptcha response"}],[{"kind":"=&gt;","from":"server","to":"google","label":"POST reCaptcha response, secret"}],[{"kind":"---","label":"this is a comment"}],[{"kind":"alt","from":"customer","to":"google","arcs":[[{"kind":"&gt;&gt;","from":"google","to":"server","label":"OK"}],[{"kind":"rbox","from":"server","to":"server","label":"check hostname, error codes"}],[{"kind":"rbox","from":"server","to":"server","label":"do regular login processing"}],[{"kind":"---","label":"reCaptcha not valid"}],[{"kind":"&gt;&gt;","from":"google","to":"server","label":"NOK"}],[{"kind":"&gt;&gt;","from":"server","to":"client","label":"HTTP 40x 'reCaptcha'"}],[{"kind":"&gt;&gt;","from":"client","to":"customer","label":"sorry dude - captcha didn't check out"}],[{"kind":"---","label":"other error and/ or time-out"}],[{"kind":"..."},{"kind":"-x","from":"google","to":"server"}],[{"kind":"note","from":"server","to":"client","label":"Treating this as an error will mean your log in won't work when the reCaptcha service is down.\\n\\nIt depends on the gig what you actually do here:\\n\\n- safety before everything shop: throw an error\\n- acceptable risk vs revenue shop: do regular login"}],[{"kind":"&gt;&gt;","from":"server","to":"client","label":"Error (HTTP 500?)"}],[{"kind":"&gt;&gt;","from":"client","to":"customer","label":"sorry dude"}]],"label":"reCaptcha valid"}]]}</desc><defs><style type="text/css">svg.mscgenjsreplaceme{font-family:Helvetica,sans-serif;font-size:12px;font-weight:normal;font-style:normal;text-decoration:none;background-color:white;stroke:black;stroke-width:2}.mscgenjsreplaceme path, .mscgenjsreplaceme rect{fill:none}.mscgenjsreplaceme .label-text-background{fill:white;stroke:white;stroke-width:0}.mscgenjsreplaceme .bglayer{fill:white;stroke:white;stroke-width:0}.mscgenjsreplaceme line{}.mscgenjsreplaceme .return, .mscgenjsreplaceme .comment{stroke-dasharray:5,3}.mscgenjsreplaceme .inline_expression_divider{stroke-dasharray:10,5}.mscgenjsreplaceme text{color:inherit;stroke:none;text-anchor:middle}.mscgenjsreplaceme text.anchor-start{text-anchor:start}.mscgenjsreplaceme .arrow-marker{overflow:visible}.mscgenjsreplaceme .arrow-style{stroke-width:1}.mscgenjsreplaceme .arcrow, .mscgenjsreplaceme .arcrowomit, .mscgenjsreplaceme .emphasised{stroke-linecap:butt}.mscgenjsreplaceme .arcrowomit{stroke-dasharray:2,2}.mscgenjsreplaceme .box, .mscgenjsreplaceme .entity{fill:white;stroke-linejoin:round}.mscgenjsreplaceme .inherit{stroke:inherit;color:inherit}.mscgenjsreplaceme .inherit-fill{fill:inherit}.mscgenjsreplaceme .watermark{font-size:48pt;font-weight:bold;opacity:0.14}.mscgenjsreplaceme text.entity-text{font-weight:bold;}.mscgenjsreplaceme text.return-text{font-style:italic}.mscgenjsreplaceme path.note{fill:#FFFFCC}.mscgenjsreplaceme rect.label-text-background{opacity:0.9}.mscgenjsreplaceme line.comment,.mscgenjsreplaceme rect.inline_expression,.mscgenjsreplaceme .inline_expression_divider,.mscgenjsreplaceme .inline_expression_label{stroke:grey}</style><marker orient="auto" id="mscgenjsreplacemecallback-black" class="arrow-marker" viewBox="0 0 10 10" refX="9" refY="3" markerUnits="strokeWidth" markerWidth="10" markerHeight="10"><path d="M 1,1 l 8,2 l-8,2" class="arrow-style" style="stroke-dasharray:100,1;stroke:black"></path></marker><marker orient="auto" id="mscgenjsreplacemecallback-l-black" class="arrow-marker" viewBox="0 0 10 10" refX="9" refY="3" markerUnits="strokeWidth" markerWidth="10" markerHeight="10"><path d="M17,1 l-8,2 l 8,2" class="arrow-style" style="stroke-dasharray:100,1;stroke:black"></path></marker><marker orient="auto" id="mscgenjsreplacemelost-black" class="arrow-marker" viewBox="0 0 10 10" refX="9" refY="3" markerUnits="strokeWidth" markerWidth="10" markerHeight="10"><path d="M7,0 l5,6 M7,6 l5,-6" class="arrow-style" style="stroke-dasharray:100,1;stroke:black"></path></marker><marker orient="auto" id="mscgenjsreplacememethod-black" class="arrow-marker" viewBox="0 0 10 10" refX="9" refY="3" markerUnits="strokeWidth" markerWidth="10" markerHeight="10"><polygon points="1,1  9,3  1,5" class="arrow-style" stroke="black" fill="black"></polygon></marker><marker orient="auto" id="mscgenjsreplacememethod-l-black" class="arrow-marker" viewBox="0 0 10 10" refX="9" refY="3" markerUnits="strokeWidth" markerWidth="10" markerHeight="10"><polygon points="17,1 9,3 17,5" class="arrow-style" stroke="black" fill="black"></polygon></marker></defs><g id="mscgenjsreplaceme_body" transform="translate(44,3) scale(1,1)"><g id="mscgenjsreplaceme_background"><rect width="784" height="944" x="-44" y="-3" class="bglayer"></rect></g><g id="mscgenjsreplaceme_arcspans"><rect width="768" height="593" x="-36" y="326" class="box inline_expression alt"></rect></g><g id="mscgenjsreplaceme_lifelines"><line x1="60" y1="38" x2="60" y2="76" class="arcrow"></line><line x1="252" y1="38" x2="252" y2="76" class="arcrow"></line><line x1="444" y1="38" x2="444" y2="76" class="arcrow"></line><line x1="636" y1="38" x2="636" y2="76" class="arcrow"></line><line x1="60" y1="76" x2="60" y2="115" class="arcrow"></line><line x1="252" y1="76" x2="252" y2="115" class="arcrow"></line><line x1="444" y1="76" x2="444" y2="115" class="arcrow"></line><line x1="636" y1="76" x2="636" y2="115" class="arcrow"></line><line x1="60" y1="115" x2="60" y2="153" class="arcrow"></line><line x1="252" y1="115" x2="252" y2="153" class="arcrow"></line><line x1="444" y1="115" x2="444" y2="153" class="arcrow"></line><line x1="636" y1="115" x2="636" y2="153" class="arcrow"></line><line x1="60" y1="153" x2="60" y2="191" class="arcrow"></line><line x1="252" y1="153" x2="252" y2="191" class="arcrow"></line><line x1="444" y1="153" x2="444" y2="191" class="arcrow"></line><line x1="636" y1="153" x2="636" y2="191" class="arcrow"></line><line x1="60" y1="191" x2="60" y2="230" class="arcrow"></line><line x1="252" y1="191" x2="252" y2="230" class="arcrow"></line><line x1="444" y1="191" x2="444" y2="230" class="arcrow"></line><line x1="636" y1="191" x2="636" y2="230" class="arcrow"></line><line x1="60" y1="230" x2="60" y2="269" class="arcrow"></line><line x1="252" y1="230" x2="252" y2="269" class="arcrow"></line><line x1="444" y1="230" x2="444" y2="269" class="arcrow"></line><line x1="636" y1="230" x2="636" y2="269" class="arcrow"></line><line x1="60" y1="269" x2="60" y2="307" class="arcrow"></line><line x1="252" y1="269" x2="252" y2="307" class="arcrow"></line><line x1="444" y1="269" x2="444" y2="307" class="arcrow"></line><line x1="636" y1="269" x2="636" y2="307" class="arcrow"></line><line x1="60" y1="307" x2="60" y2="345" class="arcrow"></line><line x1="252" y1="307" x2="252" y2="345" class="arcrow"></line><line x1="444" y1="307" x2="444" y2="345" class="arcrow"></line><line x1="636" y1="307" x2="636" y2="345" class="arcrow"></line><line x1="60" y1="345" x2="60" y2="383" class="arcrow"></line><line x1="252" y1="345" x2="252" y2="383" class="arcrow"></line><line x1="444" y1="345" x2="444" y2="383" class="arcrow"></line><line x1="636" y1="345" x2="636" y2="383" class="arcrow"></line><line x1="60" y1="383" x2="60" y2="421" class="arcrow"></line><line x1="252" y1="383" x2="252" y2="421" class="arcrow"></line><line x1="444" y1="383" x2="444" y2="421" class="arcrow"></line><line x1="636" y1="383" x2="636" y2="421" class="arcrow"></line><line x1="60" y1="421" x2="60" y2="459" class="arcrow"></line><line x1="252" y1="421" x2="252" y2="459" class="arcrow"></line><line x1="444" y1="421" x2="444" y2="459" class="arcrow"></line><line x1="636" y1="421" x2="636" y2="459" class="arcrow"></line><line x1="60" y1="459" x2="60" y2="497" class="arcrow"></line><line x1="252" y1="459" x2="252" y2="497" class="arcrow"></line><line x1="444" y1="459" x2="444" y2="497" class="arcrow"></line><line x1="636" y1="459" x2="636" y2="497" class="arcrow"></line><line x1="60" y1="497" x2="60" y2="535" class="arcrow"></line><line x1="252" y1="497" x2="252" y2="535" class="arcrow"></line><line x1="444" y1="497" x2="444" y2="535" class="arcrow"></line><line x1="636" y1="497" x2="636" y2="535" class="arcrow"></line><line x1="60" y1="535" x2="60" y2="573" class="arcrow"></line><line x1="252" y1="535" x2="252" y2="573" class="arcrow"></line><line x1="444" y1="535" x2="444" y2="573" class="arcrow"></line><line x1="636" y1="535" x2="636" y2="573" class="arcrow"></line><line x1="60" y1="573" x2="60" y2="612" class="arcrow"></line><line x1="252" y1="573" x2="252" y2="612" class="arcrow"></line><line x1="444" y1="573" x2="444" y2="612" class="arcrow"></line><line x1="636" y1="573" x2="636" y2="612" class="arcrow"></line><line x1="60" y1="612" x2="60" y2="650" class="arcrow"></line><line x1="252" y1="612" x2="252" y2="650" class="arcrow"></line><line x1="444" y1="612" x2="444" y2="650" class="arcrow"></line><line x1="636" y1="612" x2="636" y2="650" class="arcrow"></line><line x1="60" y1="650" x2="60" y2="688" class="arcrowomit"></line><line x1="252" y1="650" x2="252" y2="688" class="arcrowomit"></line><line x1="444" y1="650" x2="444" y2="688" class="arcrowomit"></line><line x1="636" y1="650" x2="636" y2="688" class="arcrowomit"></line><line x1="60" y1="688" x2="60" y2="824" class="arcrow"></line><line x1="252" y1="688" x2="252" y2="824" class="arcrow"></line><line x1="444" y1="688" x2="444" y2="824" class="arcrow"></line><line x1="636" y1="688" x2="636" y2="824" class="arcrow"></line><line x1="60" y1="824" x2="60" y2="862" class="arcrow"></line><line x1="252" y1="824" x2="252" y2="862" class="arcrow"></line><line x1="444" y1="824" x2="444" y2="862" class="arcrow"></line><line x1="636" y1="824" x2="636" y2="862" class="arcrow"></line><line x1="60" y1="862" x2="60" y2="900" class="arcrow"></line><line x1="252" y1="862" x2="252" y2="900" class="arcrow"></line><line x1="444" y1="862" x2="444" y2="900" class="arcrow"></line><line x1="636" y1="862" x2="636" y2="900" class="arcrow"></line><line x1="60" y1="900" x2="60" y2="938" class="arcrow"></line><line x1="252" y1="900" x2="252" y2="938" class="arcrow"></line><line x1="444" y1="900" x2="444" y2="938" class="arcrow"></line><line x1="636" y1="900" x2="636" y2="938" class="arcrow"></line></g><g id="mscgenjsreplaceme_sequence"><g><g><rect width="120" height="38" class="entity"></rect><g><text x="60" y="23.5" class="entity-text "><tspan>customer</tspan></text></g></g><g><rect width="120" height="38" x="192" class="entity"></rect><g><text x="252" y="23.5" class="entity-text "><tspan>client</tspan></text></g></g><g><rect width="120" height="38" x="384" class="entity"></rect><g><text x="444" y="23.5" class="entity-text "><tspan>server</tspan></text></g></g><g><rect width="120" height="38" x="576" class="entity"></rect><g><text x="636" y="14" class="entity-text "><tspan>Google</tspan></text><text x="636" y="33" class="entity-text "><tspan>reCaptcha service</tspan></text></g></g></g><g><line x1="60" y1="95.5" x2="252" y2="95.5" class="arc directional method" style="stroke:black" marker-end="url(#mscgenjsreplacememethod-black)"></line><g><rect width="118.06" height="14" x="96.97" y="79" class="label-text-background"></rect><text x="156" y="90" class="directional-text method-text "><tspan>log in with credentials,</tspan></text><rect width="55.38" height="14" x="128.31" y="100" class="label-text-background"></rect><text x="156" y="111" class="directional-text method-text "><tspan>reCaptcha</tspan></text></g></g><g><line x1="252" y1="134" x2="636" y2="134" class="arc directional method" style="stroke:black" marker-end="url(#mscgenjsreplacememethod-black)"></line><g><rect width="134.09" height="14" x="376.95" y="117.5" class="label-text-background"></rect><text x="444" y="128.5" class="directional-text method-text "><tspan>getResponse(reCaptcha)</tspan></text></g></g><g><line x1="636" y1="172" x2="252" y2="172" class="arc directional return" style="stroke:black" marker-end="url(#mscgenjsreplacemecallback-black)"></line><g><rect width="108.39" height="14" x="389.95" y="155.5" class="label-text-background"></rect><text x="444" y="166.5" class="directional-text return-text "><tspan>reCaptcha response</tspan></text></g></g><g><line x1="252" y1="210.5" x2="444" y2="210.5" class="arc directional method" style="stroke:black" marker-end="url(#mscgenjsreplacememethod-black)"></line><g><rect width="156.09" height="14" x="269.95" y="194" class="label-text-background"></rect><text x="348" y="205" class="directional-text method-text "><tspan>POST credentials, reCaptcha</tspan></text><rect width="49.38" height="14" x="323.31" y="215" class="label-text-background"></rect><text x="348" y="226" class="directional-text method-text "><tspan>response</tspan></text></g></g><g><line x1="444" y1="249.5" x2="636" y2="249.5" class="arc directional method" style="stroke:black" marker-end="url(#mscgenjsreplacememethod-black)"></line><g><rect width="147.41" height="14" x="466.3" y="233" class="label-text-background"></rect><text x="540" y="244" class="directional-text method-text "><tspan>POST reCaptcha response,</tspan></text><rect width="32.69" height="14" x="523.66" y="254" class="label-text-background"></rect><text x="540" y="265" class="directional-text method-text "><tspan>secret</tspan></text></g></g><g><line x1="0" y1="288" x2="696" y2="288" class="comment"></line><g><rect width="93.38" height="14" x="301.31" y="281.5" class="label-text-background"></rect><text x="348" y="292.5" class="empty-text comment-row-text "><tspan>this is a comment</tspan></text></g></g><g><line x1="636" y1="364" x2="444" y2="364" class="arc directional return" style="stroke:black" marker-end="url(#mscgenjsreplacemecallback-black)"></line><g><rect width="19.03" height="14" x="531.33" y="347.5" class="label-text-background"></rect><text x="540" y="358.5" class="directional-text return-text "><tspan>OK</tspan></text></g></g><g><line x1="-36" y1="478" x2="732" y2="478" class="inline_expression_divider"></line><g><rect width="103.41" height="14" x="296.3" y="471.5" class="label-text-background"></rect><text x="348" y="482.5" class="empty-text comment-row-text "><tspan>reCaptcha not valid</tspan></text></g></g><g><line x1="636" y1="516" x2="444" y2="516" class="arc directional return" style="stroke:black" marker-end="url(#mscgenjsreplacemecallback-black)"></line><g><rect width="27.7" height="14" x="526.98" y="499.5" class="label-text-background"></rect><text x="540" y="510.5" class="directional-text return-text "><tspan>NOK</tspan></text></g></g><g><line x1="444" y1="554" x2="252" y2="554" class="arc directional return" style="stroke:black" marker-end="url(#mscgenjsreplacemecallback-black)"></line><g><rect width="118.83" height="14" x="289.34" y="537.5" class="label-text-background"></rect><text x="348" y="548.5" class="directional-text return-text "><tspan>HTTP 40x 'reCaptcha'</tspan></text></g></g><g><line x1="252" y1="592.5" x2="60" y2="592.5" class="arc directional return" style="stroke:black" marker-end="url(#mscgenjsreplacemecallback-black)"></line><g><rect width="142.11" height="14" x="85.47" y="576" class="label-text-background"></rect><text x="156" y="587" class="directional-text return-text "><tspan>sorry dude - captcha didn't</tspan></text><rect width="52.42" height="14" x="130.31" y="597" class="label-text-background"></rect><text x="156" y="608" class="directional-text return-text "><tspan>check out</tspan></text></g></g><g><line x1="-36" y1="631" x2="732" y2="631" class="inline_expression_divider"></line><g><rect width="143.41" height="14" x="276.3" y="624.5" class="label-text-background"></rect><text x="348" y="635.5" class="empty-text comment-row-text "><tspan>other error and/ or time-out</tspan></text></g></g><g></g><g><line x1="636" y1="669" x2="492" y2="669" class="arc directional lost" style="stroke:black" marker-end="url(#mscgenjsreplacemelost-black)"></line><g></g></g><g><line x1="444" y1="843" x2="252" y2="843" class="arc directional return" style="stroke:black" marker-end="url(#mscgenjsreplacemecallback-black)"></line><g><rect width="99.39" height="14" x="298.31" y="826.5" class="label-text-background"></rect><text x="348" y="837.5" class="directional-text return-text "><tspan>Error (HTTP 500?)</tspan></text></g></g><g><line x1="252" y1="881" x2="60" y2="881" class="arc directional return" style="stroke:black" marker-end="url(#mscgenjsreplacemecallback-black)"></line><g><rect width="57.02" height="14" x="127.64" y="864.5" class="label-text-background"></rect><text x="156" y="875.5" class="directional-text return-text "><tspan>sorry dude</tspan></text></g></g><g></g></g><g id="mscgenjsreplaceme_notes"><g><path d="M-35,326 l111.73,0 l0,11 l-7,7 l-104.73,0 " class="box inline_expression_label"></path><g><text x="-33" y="340" class="inline_expression-text alt-text anchor-start "><tspan>alt: reCaptcha valid</tspan></text></g></g><g><rect width="184" height="34" x="352" y="385" rx="6" ry="6" class="box rbox"></rect><g><text x="444" y="406.5" class="box-text rbox-text "><tspan>check hostname, error codes</tspan></text></g></g><g><rect width="184" height="34" x="352" y="423" rx="6" ry="6" class="box rbox"></rect><g><text x="444" y="444.5" class="box-text rbox-text "><tspan>do regular login processing</tspan></text></g></g><g><path d="M160,690 l367,0 l0,9 l9,0 m-9,-9 l9,9 l0,123 l-376,0 l0,-132 z" class="box note"></path><g><text x="348" y="703.5" class="box-text note-text "><tspan>Treating this as an error will mean your log in won't work when</tspan></text><text x="348" y="722.5" class="box-text note-text "><tspan>the reCaptcha service is down.</tspan></text><text x="348" y="760.5" class="box-text note-text "><tspan>It depends on the gig what you actually do here:</tspan></text><text x="348" y="798.5" class="box-text note-text "><tspan>- safety before everything shop: throw an error</tspan></text><text x="348" y="817.5" class="box-text note-text "><tspan>- acceptable risk vs revenue shop: do regular login</tspan></text></g></g></g><g id="mscgenjsreplaceme_watermark"></g></g></svg>