<svg version="1.1" id="mscgenjs__svg" class="mscgenjs__svg" xmlns="http://www.w3.org/2000/svg" xmlns:xlink="http://www.w3.org/1999/xlink" width="784" height="901.9100036621094" viewBox="0 0 784 901.9100036621094"><defs><style type="text/css">svg.mscgenjs__svg{font-family:Helvetica,sans-serif;font-size:12px;font-weight:normal;font-style:normal;text-decoration:none;background-color:white;stroke:black;stroke-width:2}.mscgenjs__svg path, .mscgenjs__svg rect{fill:none}.mscgenjs__svg .label-text-background{fill:white;stroke:white;stroke-width:0}.mscgenjs__svg .bglayer{fill:white;stroke:white;stroke-width:0}.mscgenjs__svg line{}.mscgenjs__svg .return, .mscgenjs__svg .comment{stroke-dasharray:5,3}.mscgenjs__svg .inline_expression_divider{stroke-dasharray:10,5}.mscgenjs__svg text{color:inherit;stroke:none;text-anchor:middle}.mscgenjs__svg text.anchor-start{text-anchor:start}.mscgenjs__svg .arrow-marker{overflow:visible}.mscgenjs__svg .arrow-style{stroke-width:1}.mscgenjs__svg .arcrow, .mscgenjs__svg .arcrowomit, .mscgenjs__svg .emphasised{stroke-linecap:butt}.mscgenjs__svg .arcrowomit{stroke-dasharray:2,2}.mscgenjs__svg .box, .mscgenjs__svg .entity{fill:white;stroke-linejoin:round}.mscgenjs__svg .inherit{stroke:inherit;color:inherit}.mscgenjs__svg .inherit-fill{fill:inherit}.mscgenjs__svg .watermark{font-size:48pt;font-weight:bold;opacity:0.14}.mscgenjs__svg text.entity-text{font-weight:bold;}.mscgenjs__svg text.return-text{font-style:italic}.mscgenjs__svg path.note{fill:#FFFFCC}.mscgenjs__svg rect.label-text-background{opacity:0.9}.mscgenjs__svg line.comment,.mscgenjs__svg rect.inline_expression,.mscgenjs__svg .inline_expression_divider,.mscgenjs__svg .inline_expression_label{stroke:grey}</style><marker orient="auto" id="mscgenjs__svgcallback-black" class="arrow-marker" viewBox="0 0 10 10" refX="9" refY="3" markerUnits="strokeWidth" markerWidth="10" markerHeight="10"><path d="M 1,1 l 8,2 l-8,2" class="arrow-style" style="stroke-dasharray:100,1;stroke:black"></path></marker><marker orient="auto" id="mscgenjs__svgcallback-l-black" class="arrow-marker" viewBox="0 0 10 10" refX="9" refY="3" markerUnits="strokeWidth" markerWidth="10" markerHeight="10"><path d="M17,1 l-8,2 l 8,2" class="arrow-style" style="stroke-dasharray:100,1;stroke:black"></path></marker><marker orient="auto" id="mscgenjs__svglost-black" class="arrow-marker" viewBox="0 0 10 10" refX="9" refY="3" markerUnits="strokeWidth" markerWidth="10" markerHeight="10"><path d="M7,0 l5,6 M7,6 l5,-6" class="arrow-style" style="stroke-dasharray:100,1;stroke:black"></path></marker><marker orient="auto" id="mscgenjs__svgmethod-black" class="arrow-marker" viewBox="0 0 10 10" refX="9" refY="3" markerUnits="strokeWidth" markerWidth="10" markerHeight="10"><polygon points="1,1  9,3  1,5" class="arrow-style" stroke="black" fill="black"></polygon></marker><marker orient="auto" id="mscgenjs__svgmethod-l-black" class="arrow-marker" viewBox="0 0 10 10" refX="9" refY="3" markerUnits="strokeWidth" markerWidth="10" markerHeight="10"><polygon points="17,1 9,3 17,5" class="arrow-style" stroke="black" fill="black"></polygon></marker></defs><g id="mscgenjs__svg_body" transform="translate(44,3) scale(1,1)"><g id="mscgenjs__svg_background"><rect width="784" height="901.91" x="-44" y="-3" class="bglayer"></rect></g><g id="mscgenjs__svg_arcspans"><rect width="768" height="553.91" x="-36" y="323" class="box inline_expression alt"></rect></g><g id="mscgenjs__svg_lifelines"><line x1="60" y1="38" x2="60" y2="76" class="arcrow"></line><line x1="252" y1="38" x2="252" y2="76" class="arcrow"></line><line x1="444" y1="38" x2="444" y2="76" class="arcrow"></line><line x1="636" y1="38" x2="636" y2="76" class="arcrow"></line><line x1="60" y1="76" x2="60" y2="114" class="arcrow"></line><line x1="252" y1="76" x2="252" y2="114" class="arcrow"></line><line x1="444" y1="76" x2="444" y2="114" class="arcrow"></line><line x1="636" y1="76" x2="636" y2="114" class="arcrow"></line><line x1="60" y1="114" x2="60" y2="152" class="arcrow"></line><line x1="252" y1="114" x2="252" y2="152" class="arcrow"></line><line x1="444" y1="114" x2="444" y2="152" class="arcrow"></line><line x1="636" y1="114" x2="636" y2="152" class="arcrow"></line><line x1="60" y1="152" x2="60" y2="190" class="arcrow"></line><line x1="252" y1="152" x2="252" y2="190" class="arcrow"></line><line x1="444" y1="152" x2="444" y2="190" class="arcrow"></line><line x1="636" y1="152" x2="636" y2="190" class="arcrow"></line><line x1="60" y1="190" x2="60" y2="228" class="arcrow"></line><line x1="252" y1="190" x2="252" y2="228" class="arcrow"></line><line x1="444" y1="190" x2="444" y2="228" class="arcrow"></line><line x1="636" y1="190" x2="636" y2="228" class="arcrow"></line><line x1="60" y1="228" x2="60" y2="266" class="arcrow"></line><line x1="252" y1="228" x2="252" y2="266" class="arcrow"></line><line x1="444" y1="228" x2="444" y2="266" class="arcrow"></line><line x1="636" y1="228" x2="636" y2="266" class="arcrow"></line><line x1="60" y1="266" x2="60" y2="304" class="arcrow"></line><line x1="252" y1="266" x2="252" y2="304" class="arcrow"></line><line x1="444" y1="266" x2="444" y2="304" class="arcrow"></line><line x1="636" y1="266" x2="636" y2="304" class="arcrow"></line><line x1="60" y1="304" x2="60" y2="342" class="arcrow"></line><line x1="252" y1="304" x2="252" y2="342" class="arcrow"></line><line x1="444" y1="304" x2="444" y2="342" class="arcrow"></line><line x1="636" y1="304" x2="636" y2="342" class="arcrow"></line><line x1="60" y1="342" x2="60" y2="380" class="arcrow"></line><line x1="252" y1="342" x2="252" y2="380" class="arcrow"></line><line x1="444" y1="342" x2="444" y2="380" class="arcrow"></line><line x1="636" y1="342" x2="636" y2="380" class="arcrow"></line><line x1="60" y1="380" x2="60" y2="418" class="arcrow"></line><line x1="252" y1="380" x2="252" y2="418" class="arcrow"></line><line x1="444" y1="380" x2="444" y2="418" class="arcrow"></line><line x1="636" y1="380" x2="636" y2="418" class="arcrow"></line><line x1="60" y1="418" x2="60" y2="456" class="arcrow"></line><line x1="252" y1="418" x2="252" y2="456" class="arcrow"></line><line x1="444" y1="418" x2="444" y2="456" class="arcrow"></line><line x1="636" y1="418" x2="636" y2="456" class="arcrow"></line><line x1="60" y1="456" x2="60" y2="494" class="arcrow"></line><line x1="252" y1="456" x2="252" y2="494" class="arcrow"></line><line x1="444" y1="456" x2="444" y2="494" class="arcrow"></line><line x1="636" y1="456" x2="636" y2="494" class="arcrow"></line><line x1="60" y1="494" x2="60" y2="532" class="arcrow"></line><line x1="252" y1="494" x2="252" y2="532" class="arcrow"></line><line x1="444" y1="494" x2="444" y2="532" class="arcrow"></line><line x1="636" y1="494" x2="636" y2="532" class="arcrow"></line><line x1="60" y1="532" x2="60" y2="570" class="arcrow"></line><line x1="252" y1="532" x2="252" y2="570" class="arcrow"></line><line x1="444" y1="532" x2="444" y2="570" class="arcrow"></line><line x1="636" y1="532" x2="636" y2="570" class="arcrow"></line><line x1="60" y1="570" x2="60" y2="608" class="arcrow"></line><line x1="252" y1="570" x2="252" y2="608" class="arcrow"></line><line x1="444" y1="570" x2="444" y2="608" class="arcrow"></line><line x1="636" y1="570" x2="636" y2="608" class="arcrow"></line><line x1="60" y1="608" x2="60" y2="646" class="arcrow"></line><line x1="252" y1="608" x2="252" y2="646" class="arcrow"></line><line x1="444" y1="608" x2="444" y2="646" class="arcrow"></line><line x1="636" y1="608" x2="636" y2="646" class="arcrow"></line><line x1="60" y1="646" x2="60" y2="684" class="arcrowomit"></line><line x1="252" y1="646" x2="252" y2="684" class="arcrowomit"></line><line x1="444" y1="646" x2="444" y2="684" class="arcrowomit"></line><line x1="636" y1="646" x2="636" y2="684" class="arcrowomit"></line><line x1="60" y1="684" x2="60" y2="781.91" class="arcrow"></line><line x1="252" y1="684" x2="252" y2="781.91" class="arcrow"></line><line x1="444" y1="684" x2="444" y2="781.91" class="arcrow"></line><line x1="636" y1="684" x2="636" y2="781.91" class="arcrow"></line><line x1="60" y1="781.91" x2="60" y2="819.91" class="arcrow"></line><line x1="252" y1="781.91" x2="252" y2="819.91" class="arcrow"></line><line x1="444" y1="781.91" x2="444" y2="819.91" class="arcrow"></line><line x1="636" y1="781.91" x2="636" y2="819.91" class="arcrow"></line><line x1="60" y1="819.91" x2="60" y2="857.91" class="arcrow"></line><line x1="252" y1="819.91" x2="252" y2="857.91" class="arcrow"></line><line x1="444" y1="819.91" x2="444" y2="857.91" class="arcrow"></line><line x1="636" y1="819.91" x2="636" y2="857.91" class="arcrow"></line><line x1="60" y1="857.91" x2="60" y2="895.91" class="arcrow"></line><line x1="252" y1="857.91" x2="252" y2="895.91" class="arcrow"></line><line x1="444" y1="857.91" x2="444" y2="895.91" class="arcrow"></line><line x1="636" y1="857.91" x2="636" y2="895.91" class="arcrow"></line></g><g id="mscgenjs__svg_sequence"><g><g><rect width="120" height="38" class="entity"></rect><g><text x="60" y="22" class="entity-text "><tspan>customer</tspan></text></g></g><g><rect width="120" height="38" x="192" class="entity"></rect><g><text x="252" y="22" class="entity-text "><tspan>client</tspan></text></g></g><g><rect width="120" height="38" x="384" class="entity"></rect><g><text x="444" y="22" class="entity-text "><tspan>server</tspan></text></g></g><g><rect width="120" height="38" x="576" class="entity"></rect><g><text x="636" y="15.5" class="entity-text "><tspan>Google</tspan></text><text x="636" y="28.49" class="entity-text "><tspan>reCaptcha service</tspan></text></g></g></g><g><line x1="60" y1="95" x2="252" y2="95" class="arc directional method" style="stroke:black" marker-end="url(#mscgenjs__svgmethod-black)"></line><g><rect width="117.94" height="11.98" x="97.03" y="81.77" class="label-text-background"></rect><text x="156" y="91" class="directional-text method-text "><tspan>log in with credentials,</tspan></text><rect width="55.34" height="12" x="128.33" y="96.75" class="label-text-background"></rect><text x="156" y="105.99" class="directional-text method-text "><tspan>reCaptcha</tspan></text></g></g><g><line x1="252" y1="133" x2="636" y2="133" class="arc directional method" style="stroke:black" marker-end="url(#mscgenjs__svgmethod-black)"></line><g><rect width="134" height="11.98" x="377" y="119.77" class="label-text-background"></rect><text x="444" y="129" class="directional-text method-text "><tspan>getResponse(reCaptcha)</tspan></text></g></g><g><line x1="636" y1="171" x2="252" y2="171" class="arc directional return" style="stroke:black" marker-end="url(#mscgenjs__svgcallback-black)"></line><g><rect width="108" height="11.98" x="390" y="157.77" class="label-text-background"></rect><text x="444" y="167" class="directional-text return-text "><tspan>reCaptcha response</tspan></text></g></g><g><line x1="252" y1="209" x2="444" y2="209" class="arc directional method" style="stroke:black" marker-end="url(#mscgenjs__svgmethod-black)"></line><g><rect width="155.97" height="11.98" x="270.02" y="195.77" class="label-text-background"></rect><text x="348" y="205" class="directional-text method-text "><tspan>POST credentials, reCaptcha</tspan></text><rect width="49.34" height="12" x="323.33" y="210.75" class="label-text-background"></rect><text x="348" y="219.99" class="directional-text method-text "><tspan>response</tspan></text></g></g><g><line x1="444" y1="247" x2="636" y2="247" class="arc directional method" style="stroke:black" marker-end="url(#mscgenjs__svgmethod-black)"></line><g><rect width="147.31" height="11.98" x="466.34" y="233.77" class="label-text-background"></rect><text x="540" y="243" class="directional-text method-text "><tspan>POST reCaptcha response,</tspan></text><rect width="32.66" height="12" x="523.67" y="248.75" class="label-text-background"></rect><text x="540" y="257.99" class="directional-text method-text "><tspan>secret</tspan></text></g></g><g><line x1="0" y1="285" x2="696" y2="285" class="comment"></line><g><rect width="93.28" height="11.98" x="301.36" y="278.77" class="label-text-background"></rect><text x="348" y="288" class="empty-text comment-row-text "><tspan>this is a comment</tspan></text></g></g><g><line x1="636" y1="361" x2="444" y2="361" class="arc directional return" style="stroke:black" marker-end="url(#mscgenjs__svgcallback-black)"></line><g><rect width="17.34" height="11.98" x="531.33" y="347.77" class="label-text-background"></rect><text x="540" y="357" class="directional-text return-text "><tspan>OK</tspan></text></g></g><g><line x1="-36" y1="475" x2="732" y2="475" class="inline_expression_divider"></line><g><rect width="103.31" height="11.98" x="296.34" y="468.77" class="label-text-background"></rect><text x="348" y="478" class="empty-text comment-row-text "><tspan>reCaptcha not valid</tspan></text></g></g><g><line x1="636" y1="513" x2="444" y2="513" class="arc directional return" style="stroke:black" marker-end="url(#mscgenjs__svgcallback-black)"></line><g><rect width="26" height="11.98" x="527" y="499.77" class="label-text-background"></rect><text x="540" y="509" class="directional-text return-text "><tspan>NOK</tspan></text></g></g><g><line x1="444" y1="551" x2="252" y2="551" class="arc directional return" style="stroke:black" marker-end="url(#mscgenjs__svgcallback-black)"></line><g><rect width="117.22" height="11.98" x="289.39" y="537.77" class="label-text-background"></rect><text x="348" y="547" class="directional-text return-text "><tspan>HTTP 40x 'reCaptcha'</tspan></text></g></g><g><line x1="252" y1="589" x2="60" y2="589" class="arc directional return" style="stroke:black" marker-end="url(#mscgenjs__svgcallback-black)"></line><g><rect width="140.94" height="11.98" x="85.53" y="575.77" class="label-text-background"></rect><text x="156" y="585" class="directional-text return-text "><tspan>sorry dude - captcha didn't</tspan></text><rect width="51.34" height="12" x="130.33" y="590.75" class="label-text-background"></rect><text x="156" y="599.99" class="directional-text return-text "><tspan>check out</tspan></text></g></g><g><line x1="-36" y1="627" x2="732" y2="627" class="inline_expression_divider"></line><g><rect width="143.25" height="11.98" x="276.38" y="620.77" class="label-text-background"></rect><text x="348" y="630" class="empty-text comment-row-text "><tspan>other error and/ or time-out</tspan></text></g></g><g></g><g><line x1="636" y1="665" x2="492" y2="665" class="arc directional lost" style="stroke:black" marker-end="url(#mscgenjs__svglost-black)"></line><g></g></g><g><line x1="444" y1="800.91" x2="252" y2="800.91" class="arc directional return" style="stroke:black" marker-end="url(#mscgenjs__svgcallback-black)"></line><g><rect width="99.25" height="12" x="298.38" y="787.67" class="label-text-background"></rect><text x="348" y="796.91" class="directional-text return-text "><tspan>Error (HTTP 500?)</tspan></text></g></g><g><line x1="252" y1="838.91" x2="60" y2="838.91" class="arc directional return" style="stroke:black" marker-end="url(#mscgenjs__svgcallback-black)"></line><g><rect width="56.66" height="12" x="127.67" y="825.67" class="label-text-background"></rect><text x="156" y="834.91" class="directional-text return-text "><tspan>sorry dude</tspan></text></g></g><g></g></g><g id="mscgenjs__svg_notes"><g><path d="M-35,323 l111.63,0 l0,8.98 l-7,7 l-104.62,0 " class="box inline_expression_label"></path><g><text x="-33" y="335.5" class="inline_expression-text alt-text anchor-start "><tspan>alt: reCaptcha valid</tspan></text></g></g><g><rect width="184" height="34" x="352" y="382" rx="6" ry="6" class="box rbox"></rect><g><text x="444" y="402" class="box-text rbox-text "><tspan>check hostname, error codes</tspan></text></g></g><g><rect width="184" height="34" x="352" y="420" rx="6" ry="6" class="box rbox"></rect><g><text x="444" y="440" class="box-text rbox-text "><tspan>do regular login processing</tspan></text></g></g><g><path d="M160,686.01 l367,0 l0,9 l9,0 m-9,-9 l9,9 l0,84.89 l-376,0 l0,-93.89 z" class="box note"></path><g><text x="348" y="697" class="box-text note-text "><tspan>Treating this as an error will mean your log in won't work when</tspan></text><text x="348" y="709.98" class="box-text note-text "><tspan>the reCaptcha service is down.</tspan></text><text x="348" y="735.95" class="box-text note-text "><tspan>It depends on the gig what you actually do here:</tspan></text><text x="348" y="761.92" class="box-text note-text "><tspan>- safety before everything shop: throw an error</tspan></text><text x="348" y="774.9" class="box-text note-text "><tspan>- acceptable risk vs revenue shop: do regular login</tspan></text></g></g></g><g id="mscgenjs__svg_watermark"></g></g></svg>
