<svg version="1.1" id="mscgen_js-svg-__svg" class="mscgen_js-svg-__svg" xmlns="http://www.w3.org/2000/svg" xmlns:xlink="http://www.w3.org/1999/xlink" width="784" height="964" viewBox="0 0 784 964"><desc id="mscgen_js-svg-__svg__msc_source"></desc><defs><style type="text/css">@import 'https://fonts.googleapis.com/css?family=Gochi+Hand';svg.mscgen_js-svg-__svg{font-family:Helvetica,sans-serif;font-size:12px;font-weight:normal;font-style:normal;text-decoration:none;background-color:white;stroke:black;stroke-width:2;color:black}.mscgen_js-svg-__svg path, .mscgen_js-svg-__svg rect{fill:none;color:black;stroke:black}.mscgen_js-svg-__svg .label-text-background{fill:white;stroke:white;stroke-width:0}.mscgen_js-svg-__svg .bglayer{fill:white;stroke:white;stroke-width:0}.mscgen_js-svg-__svg line{stroke:black}.mscgen_js-svg-__svg .return, .mscgen_js-svg-__svg .comment{stroke-dasharray:5,3}.mscgen_js-svg-__svg .inline_expression_divider{stroke-dasharray:10,5}.mscgen_js-svg-__svg text{color:inherit;stroke:none;text-anchor:middle}.mscgen_js-svg-__svg text.entity-text{text-decoration:underline}.mscgen_js-svg-__svg text.anchor-start{text-anchor:start}.mscgen_js-svg-__svg .arrow-marker{overflow:visible}.mscgen_js-svg-__svg .arrow-style{stroke-width:1}.mscgen_js-svg-__svg .arcrow, .mscgen_js-svg-__svg .arcrowomit, .mscgen_js-svg-__svg .emphasised{stroke-linecap:butt}.mscgen_js-svg-__svg .arcrowomit{stroke-dasharray:2,2;}.mscgen_js-svg-__svg .box, .mscgen_js-svg-__svg .entity{fill:white;stroke-linejoin:round}.mscgen_js-svg-__svg .inherit{stroke:inherit;color:inherit}.mscgen_js-svg-__svg .inherit-fill{fill:inherit}.mscgen_js-svg-__svg .watermark{stroke:black;color:black;fill:black;font-size:48pt;font-weight:bold;opacity:0.14}svg.mscgen_js-svg-__svg{font-family:'Gochi Hand', cursive;font-size:14px;stroke-opacity:0.4;stroke-linecap:round;background-color:transparent}.mscgen_js-svg-__svg text{fill:rgba(0,0,128,0.7)}.mscgen_js-svg-__svg marker polygon{fill:rgba(0,0,255,0.4);stroke-linejoin:round}.mscgen_js-svg-__svg line, .mscgen_js-svg-__svg path, .mscgen_js-svg-__svg rect, .mscgen_js-svg-__svg polygon{stroke:blue !important}.mscgen_js-svg-__svg text.entity-text{font-weight:bold;text-decoration:none}.mscgen_js-svg-__svg text.return-text{font-style:italic}.mscgen_js-svg-__svg path.note{fill:#FFFFCC;}.mscgen_js-svg-__svg .label-text-background{opacity:0}.mscgen_js-svg-__svg .comment,.mscgen_js-svg-__svg .inline_expression,.mscgen_js-svg-__svg .inline_expression_divider,.mscgen_js-svg-__svg .inline_expression_label{stroke:black}</style><marker orient="auto" id="mscgen_js-svg-__svgcallback-black" class="arrow-marker" viewBox="0 0 10 10" refX="9" refY="3" markerUnits="strokeWidth" markerWidth="10" markerHeight="10"><path d="M 1,1 l 8,2 l-8,2" class="arrow-style" style="stroke-dasharray:100,1;stroke:black"></path></marker><marker orient="auto" id="mscgen_js-svg-__svgcallback-l-black" class="arrow-marker" viewBox="0 0 10 10" refX="9" refY="3" markerUnits="strokeWidth" markerWidth="10" markerHeight="10"><path d="M17,1 l-8,2 l 8,2" class="arrow-style" style="stroke-dasharray:100,1;stroke:black"></path></marker><marker orient="auto" id="mscgen_js-svg-__svglost-black" class="arrow-marker" viewBox="0 0 10 10" refX="9" refY="3" markerUnits="strokeWidth" markerWidth="10" markerHeight="10"><path d="M7,0 l5,6 M7,6 l5,-6" class="arrow-style" style="stroke-dasharray:100,1;stroke:black"></path></marker><marker orient="auto" id="mscgen_js-svg-__svgmethod-black" class="arrow-marker" viewBox="0 0 10 10" refX="9" refY="3" markerUnits="strokeWidth" markerWidth="10" markerHeight="10"><polygon points="1,1  9,3  1,5" class="arrow-style" stroke="black" fill="black"></polygon></marker><marker orient="auto" id="mscgen_js-svg-__svgmethod-l-black" class="arrow-marker" viewBox="0 0 10 10" refX="9" refY="3" markerUnits="strokeWidth" markerWidth="10" markerHeight="10"><polygon points="17,1 9,3 17,5" class="arrow-style" stroke="black" fill="black"></polygon></marker><g id="mscgen_js-svg-__svg__defs"><g id="mscgen_js-svg-__svgentities"><g id="mscgen_js-svg-__svgcustomer"><path d="M0,0 S38,1  120,0 L120,0 S119,18  120,38 L120,38 S84,36  0,38 L0,38 S0,16  0,0 z" class="entity"></path><g><text x="60" y="23" class="entity-text "><tspan>customer</tspan></text></g></g><g id="mscgen_js-svg-__svgclient"><path d="M192,0 S228,2  312,0 L312,0 S313,16  312,38 L312,38 S279,40  192,38 L192,38 S191,22  192,0 z" class="entity"></path><g><text x="252" y="23" class="entity-text "><tspan>client</tspan></text></g></g><g id="mscgen_js-svg-__svgserver"><path d="M384,0 S418,-1  504,0 L504,0 S501,19  504,38 L504,38 S468,36  384,38 L384,38 S387,21  384,0 z" class="entity"></path><g><text x="444" y="23" class="entity-text "><tspan>server</tspan></text></g></g><g id="mscgen_js-svg-__svggoogle"><path d="M576,0 S611,1  696,0 L696,0 S697,19  696,38 L696,38 S659,37  576,38 L576,38 S576,22  576,0 z" class="entity"></path><g><text x="636" y="14.5" class="entity-text "><tspan>Google</tspan></text><text x="636" y="31.5" class="entity-text "><tspan>reCaptcha service</tspan></text></g></g></g><g id="mscgen_js-svg-__svgarcrow"><path d="M60,-19 L60,-18 S62,1  60,19 " class="arcrow"></path><path d="M252,-19 L252,-18 S254,2  252,19 " class="arcrow"></path><path d="M444,-19 L444,-18 S442,-2  444,19 " class="arcrow"></path><path d="M636,-19 L636,-18 S636,1  636,19 " class="arcrow"></path></g><g id="mscgen_js-svg-__svg0_0"><path d="M60,0 L61,0 S94,0  130,0  S163,-2  252,0 " class="arc directional method" style="stroke:black" marker-end="url(#mscgen_js-svg-__svgmethod-black)"></path><g><path d="M156,-17 S192,-19  226,-17  S259,-20  302.53125,-17 L302.53125,-17 S301.531,-10  302.53125,-1 L302.53125,-1 S265.531,-3  232.531,-1  S196.531,-4  156,-1 L156,-1 S154,-8  156,-17 z" class="label-text-background"></path><text x="156" y="-5" class="directional-text method-text "><tspan>log in with credentials,</tspan></text><path d="M156,2 S189.406,1  220.8125,2 L220.8125,2 S218.813,12  220.8125,18 L220.8125,18 S186.406,20  156,18 L156,18 S155,11  156,2 z" class="label-text-background"></path><text x="156" y="14" class="directional-text method-text "><tspan>reCaptcha</tspan></text></g></g><g id="mscgen_js-svg-__svgarcrow_0"><path d="M60,-22 L60,-21 S63,3  60,22 " class="arcrow"></path><path d="M252,-22 L252,-21 S254,-2  252,22 " class="arcrow"></path><path d="M444,-22 L444,-21 S443,-2  444,22 " class="arcrow"></path><path d="M636,-22 L636,-21 S634,3  636,22 " class="arcrow"></path></g><g id="mscgen_js-svg-__svg1_0"><path d="M252,0 L253,0 S290,3  322,0  S355,1  392,0  S425,2  462,0  S496,3  532,0  S568,-2  636,0 " class="arc directional method" style="stroke:black" marker-end="url(#mscgen_js-svg-__svgmethod-black)"></path><g><path d="M444,-17 S477,-18  514,-17  S547,-15  600.296875,-17 L600.296875,-17 S600.297,-11  600.296875,-1 L600.296875,-1 S566.297,-3  530.297,-1  S495.297,0  444,-1 L444,-1 S442,-12  444,-17 z" class="label-text-background"></path><text x="444" y="-5" class="directional-text method-text "><tspan>getResponse(reCaptcha)</tspan></text></g></g><g id="mscgen_js-svg-__svgarcrow_1"><path d="M60,-19 L60,-18 S61,-3  60,19 " class="arcrow"></path><path d="M252,-19 L252,-18 S250,3  252,19 " class="arcrow"></path><path d="M444,-19 L444,-18 S442,3  444,19 " class="arcrow"></path><path d="M636,-19 L636,-18 S634,-1  636,19 " class="arcrow"></path></g><g id="mscgen_js-svg-__svg2_0"><path d="M636,0 L635,0 S598,2  566,0  S529,-2  496,0  S460,1  426,0  S392,1  356,0  S321,2  252,0 " class="arc directional return" style="stroke:black" marker-end="url(#mscgen_js-svg-__svgcallback-black)"></path><g><path d="M444,-17 S477,-16  568.765625,-17 L568.765625,-17 S565.766,-9  568.765625,-1 L568.765625,-1 S535.766,-3  444,-1 L444,-1 S442,-6  444,-17 z" class="label-text-background"></path><text x="444" y="-5" class="directional-text return-text "><tspan>reCaptcha response</tspan></text></g></g><g id="mscgen_js-svg-__svgarcrow_2"><path d="M60,-19 L60,-18 S62,-1  60,19 " class="arcrow"></path><path d="M252,-19 L252,-18 S254,3  252,19 " class="arcrow"></path><path d="M444,-19 L444,-18 S444,1  444,19 " class="arcrow"></path><path d="M636,-19 L636,-18 S634,-2  636,19 " class="arcrow"></path></g><g id="mscgen_js-svg-__svg3_0"><path d="M252,0 L253,0 S287,-2  322,0  S354,0  444,0 " class="arc directional method" style="stroke:black" marker-end="url(#mscgen_js-svg-__svgmethod-black)"></path><g><path d="M348,-17 S385,-14  418,-17  S453,-19  533.140625,-17 L533.140625,-17 S531.141,-8  533.140625,-1 L533.140625,-1 S498.141,-4  463.141,-1  S426.141,-4  348,-1 L348,-1 S347,-11  348,-17 z" class="label-text-background"></path><text x="348" y="-5" class="directional-text method-text "><tspan>POST credentials, reCaptcha</tspan></text><path d="M348,2 S375.977,5  403.953125,2 L403.953125,2 S402.953,9  403.953125,18 L403.953125,18 S373.977,16  348,18 L348,18 S350,12  348,2 z" class="label-text-background"></path><text x="348" y="14" class="directional-text method-text "><tspan>response</tspan></text></g></g><g id="mscgen_js-svg-__svgarcrow_3"><path d="M60,-21 L60,-20 S59,-2  60,21 " class="arcrow"></path><path d="M252,-21 L252,-20 S249,2  252,21 " class="arcrow"></path><path d="M444,-21 L444,-20 S442,-3  444,21 " class="arcrow"></path><path d="M636,-21 L636,-20 S635,2  636,21 " class="arcrow"></path></g><g id="mscgen_js-svg-__svg4_0"><path d="M444,0 L445,0 S477,3  514,0  S551,2  636,0 " class="arc directional method" style="stroke:black" marker-end="url(#mscgen_js-svg-__svgmethod-black)"></path><g><path d="M540,-17 S572,-14  610,-17  S648,-16  711.859375,-17 L711.859375,-17 S714.859,-12  711.859375,-1 L711.859375,-1 S677.859,-3  641.859,-1  S603.859,-3  540,-1 L540,-1 S541,-11  540,-17 z" class="label-text-background"></path><text x="540" y="-5" class="directional-text method-text "><tspan>POST reCaptcha response,</tspan></text><path d="M540,2 S560.633,1  577.265625,2 L577.265625,2 S580.266,12  577.265625,18 L577.265625,18 S557.633,17  540,18 L540,18 S542,11  540,2 z" class="label-text-background"></path><text x="540" y="14" class="directional-text method-text "><tspan>secret</tspan></text></g></g><g id="mscgen_js-svg-__svgarcrow_4"><path d="M60,-21 L60,-20 S60,0  60,21 " class="arcrow"></path><path d="M252,-21 L252,-20 S251,-1  252,21 " class="arcrow"></path><path d="M444,-21 L444,-20 S441,-3  444,21 " class="arcrow"></path><path d="M636,-21 L636,-20 S637,-3  636,21 " class="arcrow"></path></g><g id="mscgen_js-svg-__svg5_0"><path d="M0,0 L1,0 S33,2  70,0  S106,2  140,0  S175,0  210,0  S246,1  280,0  S313,2  350,0  S383,-1  420,0  S453,-1  490,0  S522,-2  560,0  S593,-1  696,0 " class="comment"></path><g id="mscgen_js-svg-__svg5_0_txt"><g id="mscgen_js-svg-__svg5_0_txt_lbl"><path d="M348,-8 S384,-10  460.34375,-8 L460.34375,-8 S460.344,1  460.34375,8 L460.34375,8 S422.344,7  348,8 L348,8 S349,-1  348,-8 z" class="label-text-background"></path><text x="348" y="4" class="empty-text comment-row-text "><tspan>this is a comment</tspan></text></g></g></g><g id="mscgen_js-svg-__svgarcrow_5"><path d="M60,-19 L60,-18 S59,0  60,19 " class="arcrow"></path><path d="M252,-19 L252,-18 S250,0  252,19 " class="arcrow"></path><path d="M444,-19 L444,-18 S446,2  444,19 " class="arcrow"></path><path d="M636,-19 L636,-18 S634,-2  636,19 " class="arcrow"></path></g><g id="mscgen_js-svg-__svg6_0_label"><g><path d="M-35,1 L99.1875,1 L99.1875,13 L92.1875,20 L-35,20 z" class="box inline_expression_label" style="stroke:transparent!important;"></path><path d="M99.1875,0 S97.188,8.5  99.1875,13 L99.1875,13 S94.688,17.5  92.1875,20 L92.1875,20 S56.188,18  -36,20 L-36,20 " class="box inline_expression_label" style="fill:transparent;stroke:black;"></path></g><g><text x="-33" y="13.5" class="inline_expression-text alt-text anchor-start "><tspan>alt: reCaptcha valid</tspan></text></g></g><g id="mscgen_js-svg-__svgarcrow_6"><path d="M60,-19 L60,-18 S60,-2  60,19 " class="arcrow"></path><path d="M252,-19 L252,-18 S254,2  252,19 " class="arcrow"></path><path d="M444,-19 L444,-18 S441,0  444,19 " class="arcrow"></path><path d="M636,-19 L636,-18 S634,2  636,19 " class="arcrow"></path></g><g id="mscgen_js-svg-__svg7_0"><path d="M636,0 L635,0 S603,2  566,0  S534,2  444,0 " class="arc directional return" style="stroke:black" marker-end="url(#mscgen_js-svg-__svgcallback-black)"></path><g><path d="M540,-17 S552.547,-19  563.09375,-17 L563.09375,-17 S565.094,-12  563.09375,-1 L563.09375,-1 S549.547,-4  540,-1 L540,-1 S539,-11  540,-17 z" class="label-text-background"></path><text x="540" y="-5" class="directional-text return-text "><tspan>OK</tspan></text></g></g><g id="mscgen_js-svg-__svgarcrow_7"><path d="M60,-19 L60,-18 S60,0  60,19 " class="arcrow"></path><path d="M252,-19 L252,-18 S255,0  252,19 " class="arcrow"></path><path d="M444,-19 L444,-18 S444,-1  444,19 " class="arcrow"></path><path d="M636,-19 L636,-18 S635,1  636,19 " class="arcrow"></path></g><g id="mscgen_js-svg-__svg8_0"><path d="M352,-11 S352,-17  358,-17 S396,-18  428,-17  S463,-16  530,-17 L530,-17 S536,-17  536,-11 S537,0  536,11 L536,11 S536,17  530,17 S495,18  460,17  S428,16  358,17 L358,17 S352,17  352,11 S352,1  352,-11 z" class="box rbox"></path><g><text x="444" y="4" class="box-text rbox-text "><tspan>check hostname, error codes</tspan></text></g></g><g id="mscgen_js-svg-__svgarcrow_8"><path d="M60,-20 L60,-19 S59,1  60,20 " class="arcrow"></path><path d="M252,-20 L252,-19 S250,0  252,20 " class="arcrow"></path><path d="M444,-20 L444,-19 S444,-2  444,20 " class="arcrow"></path><path d="M636,-20 L636,-19 S634,1  636,20 " class="arcrow"></path></g><g id="mscgen_js-svg-__svg9_0"><path d="M352,-11 S352,-17  358,-17 S390,-19  428,-17  S463,-19  530,-17 L530,-17 S536,-17  536,-11 S539,-2  536,11 L536,11 S536,17  530,17 S496,20  460,17  S425,17  358,17 L358,17 S352,17  352,11 S353,-3  352,-11 z" class="box rbox"></path><g><text x="444" y="4" class="box-text rbox-text "><tspan>do regular login processing</tspan></text></g></g><g id="mscgen_js-svg-__svgarcrow_9"><path d="M60,-21.5 L60,-20.5 S60,3  60,21.5 " class="arcrow"></path><path d="M252,-21.5 L252,-20.5 S255,-2  252,21.5 " class="arcrow"></path><path d="M444,-21.5 L444,-20.5 S443,1  444,21.5 " class="arcrow"></path><path d="M636,-21.5 L636,-20.5 S636,1  636,21.5 " class="arcrow"></path></g><g id="mscgen_js-svg-__svg10_0"><path d="M-36,0 L-35,0 S1,1  34,0  S66,3  104,0  S142,2  174,0  S209,0  244,0  S280,0  314,0  S347,-2  384,0  S417,1  454,0  S490,-1  524,0  S558,0  594,0  S627,3  732,0 " class="inline_expression_divider"></path><g id="mscgen_js-svg-__svg10_0_txt"><g id="mscgen_js-svg-__svg10_0_txt_lbl"><path d="M348,-8 S384,-7  473.21875,-8 L473.21875,-8 S475.219,-1  473.21875,8 L473.21875,8 S438.219,7  348,8 L348,8 S347,0  348,-8 z" class="label-text-background"></path><text x="348" y="4" class="empty-text comment-row-text "><tspan>reCaptcha not valid</tspan></text></g></g></g><g id="mscgen_js-svg-__svgarcrow_10"><path d="M60,-19 L60,-18 S62,2  60,19 " class="arcrow"></path><path d="M252,-19 L252,-18 S250,2  252,19 " class="arcrow"></path><path d="M444,-19 L444,-18 S441,-3  444,19 " class="arcrow"></path><path d="M636,-19 L636,-18 S636,1  636,19 " class="arcrow"></path></g><g id="mscgen_js-svg-__svg11_0"><path d="M636,0 L635,0 S600,0  566,0  S529,1  444,0 " class="arc directional return" style="stroke:black" marker-end="url(#mscgen_js-svg-__svgcallback-black)"></path><g><path d="M540,-17 S558.32,-15  574.640625,-17 L574.640625,-17 S571.641,-6  574.640625,-1 L574.640625,-1 S560.32,0  540,-1 L540,-1 S542,-10  540,-17 z" class="label-text-background"></path><text x="540" y="-5" class="directional-text return-text "><tspan>NOK</tspan></text></g></g><g id="mscgen_js-svg-__svgarcrow_11"><path d="M60,-19 L60,-18 S60,-2  60,19 " class="arcrow"></path><path d="M252,-19 L252,-18 S251,-1  252,19 " class="arcrow"></path><path d="M444,-19 L444,-18 S445,3  444,19 " class="arcrow"></path><path d="M636,-19 L636,-18 S635,-2  636,19 " class="arcrow"></path></g><g id="mscgen_js-svg-__svg12_0"><path d="M444,0 L443,0 S411,-3  374,0  S340,-2  252,0 " class="arc directional return" style="stroke:black" marker-end="url(#mscgen_js-svg-__svgcallback-black)"></path><g><path d="M348,-17 S383,-14  418,-17  S454,-14  490.53125,-17 L490.53125,-17 S490.531,-8  490.53125,-1 L490.53125,-1 S454.531,-4  420.531,-1  S384.531,-2  348,-1 L348,-1 S347,-7  348,-17 z" class="label-text-background"></path><text x="348" y="-5" class="directional-text return-text "><tspan>HTTP 40x 'reCaptcha'</tspan></text></g></g><g id="mscgen_js-svg-__svgarcrow_12"><path d="M60,-19 L60,-18 S59,-2  60,19 " class="arcrow"></path><path d="M252,-19 L252,-18 S250,0  252,19 " class="arcrow"></path><path d="M444,-19 L444,-18 S443,2  444,19 " class="arcrow"></path><path d="M636,-19 L636,-18 S636,1  636,19 " class="arcrow"></path></g><g id="mscgen_js-svg-__svg13_0"><path d="M252,0 L251,0 S219,2  182,0  S145,-1  60,0 " class="arc directional return" style="stroke:black" marker-end="url(#mscgen_js-svg-__svgcallback-black)"></path><g><path d="M156,-17 S194,-20  226,-17  S263,-18  325.859375,-17 L325.859375,-17 S322.859,-9  325.859375,-1 L325.859375,-1 S292.859,-1  255.859,-1  S223.859,-2  156,-1 L156,-1 S155,-7  156,-17 z" class="label-text-background"></path><text x="156" y="-5" class="directional-text return-text "><tspan>sorry dude - captcha didn't</tspan></text><path d="M156,2 S188.859,2  217.71875,2 L217.71875,2 S215.719,10  217.71875,18 L217.71875,18 S183.859,21  156,18 L156,18 S158,11  156,2 z" class="label-text-background"></path><text x="156" y="14" class="directional-text return-text "><tspan>check out</tspan></text></g></g><g id="mscgen_js-svg-__svgarcrow_13"><path d="M60,-22.5 L60,-21.5 S59,2  60,22.5 " class="arcrow"></path><path d="M252,-22.5 L252,-21.5 S255,-1  252,22.5 " class="arcrow"></path><path d="M444,-22.5 L444,-21.5 S443,-2  444,22.5 " class="arcrow"></path><path d="M636,-22.5 L636,-21.5 S636,-1  636,22.5 " class="arcrow"></path></g><g id="mscgen_js-svg-__svg14_0"><path d="M-36,0 L-35,0 S-4,-1  34,0  S72,-2  104,0  S136,-2  174,0  S210,3  244,0  S279,2  314,0  S351,0  384,0  S420,1  454,0  S491,2  524,0  S562,-1  594,0  S630,2  732,0 " class="inline_expression_divider"></path><g id="mscgen_js-svg-__svg14_0_txt"><g id="mscgen_js-svg-__svg14_0_txt_lbl"><path d="M348,-8 S384,-10  418,-8  S452,-8  522.96875,-8 L522.96875,-8 S521.969,-1  522.96875,8 L522.96875,8 S486.969,6  452.969,8  S418.969,9  348,8 L348,8 S350,-3  348,-8 z" class="label-text-background"></path><text x="348" y="4" class="empty-text comment-row-text "><tspan>other error and/ or time-out</tspan></text></g></g></g><g id="mscgen_js-svg-__svgarcrow_14"><path d="M60,-19 L60,-18 S63,2  60,19 " class="arcrow"></path><path d="M252,-19 L252,-18 S252,0  252,19 " class="arcrow"></path><path d="M444,-19 L444,-18 S446,-1  444,19 " class="arcrow"></path><path d="M636,-19 L636,-18 S633,-1  636,19 " class="arcrow"></path></g><g id="mscgen_js-svg-__svg15_0"><g id="mscgen_js-svg-__svg15_0_lbl"></g></g><g id="mscgen_js-svg-__svg15_1"><path d="M636,0 L635,0 S602,1  566,0  S529,0  492,0 " class="arc directional lost" style="stroke:black" marker-end="url(#mscgen_js-svg-__svglost-black)"></path><g></g></g><g id="mscgen_js-svg-__svgarcrow_15"><path d="M60,-19 L60,-18 S62,-1  60,19 " class="arcrowomit"></path><path d="M252,-19 L252,-18 S253,3  252,19 " class="arcrowomit"></path><path d="M444,-19 L444,-18 S441,3  444,19 " class="arcrowomit"></path><path d="M636,-19 L636,-18 S636,3  636,19 " class="arcrowomit"></path></g><g id="mscgen_js-svg-__svg16_0"><g><path d="M160,-61 S196,-59  230,-61  S267,-60  300,-61  S333,-61  370,-61  S402,-64  440,-61  S478,-62  527,-61 L527,-61 S531.5,-53.5  536,-52 L536,-52 S536,-16  536,61 L536,61 S503,63  466,61  S429,59  396,61  S363,64  326,61  S288,61  256,61  S219,58  160,61 L160,61 S159,27  160,-61 L160,-61 z" class="box note"></path><path d="M527,-61 S527,-57.5  527,-52 L527,-52 S532.5,-52  536,-52 L536,-52 " class="box note" style="fill:transparent;"></path></g><g><text x="348" y="-47" class="box-text note-text "><tspan>Treating this as an error will mean your log in won't work when</tspan></text><text x="348" y="-30" class="box-text note-text "><tspan>the reCaptcha service is down.</tspan></text><text x="348" y="4" class="box-text note-text "><tspan>It depends on the gig what you actually do here:</tspan></text><text x="348" y="38" class="box-text note-text "><tspan>- safety before everything shop: throw an error</tspan></text><text x="348" y="55" class="box-text note-text "><tspan>- acceptable risk vs revenue shop: do regular login</tspan></text></g></g><g id="mscgen_js-svg-__svgarcrow_16"><path d="M60,-66 L60,-65 S62,-28  60,66 " class="arcrow"></path><path d="M252,-66 L252,-65 S255,-29  252,66 " class="arcrow"></path><path d="M444,-66 L444,-65 S444,-31  444,66 " class="arcrow"></path><path d="M636,-66 L636,-65 S638,-31  636,66 " class="arcrow"></path></g><g id="mscgen_js-svg-__svg17_0"><path d="M444,0 L443,0 S412,-2  374,0  S338,-1  252,0 " class="arc directional return" style="stroke:black" marker-end="url(#mscgen_js-svg-__svgcallback-black)"></path><g><path d="M348,-17 S382,-20  471.46875,-17 L471.46875,-17 S472.469,-6  471.46875,-1 L471.46875,-1 S435.469,-2  348,-1 L348,-1 S345,-10  348,-17 z" class="label-text-background"></path><text x="348" y="-5" class="directional-text return-text "><tspan>Error (HTTP 500?)</tspan></text></g></g><g id="mscgen_js-svg-__svgarcrow_17"><path d="M60,-19 L60,-18 S62,-1  60,19 " class="arcrow"></path><path d="M252,-19 L252,-18 S253,-3  252,19 " class="arcrow"></path><path d="M444,-19 L444,-18 S444,2  444,19 " class="arcrow"></path><path d="M636,-19 L636,-18 S636,-2  636,19 " class="arcrow"></path></g><g id="mscgen_js-svg-__svg18_0"><path d="M252,0 L251,0 S217,-2  182,0  S144,3  60,0 " class="arc directional return" style="stroke:black" marker-end="url(#mscgen_js-svg-__svgcallback-black)"></path><g><path d="M156,-17 S187.984,-15  223.96875,-17 L223.96875,-17 S225.969,-8  223.96875,-1 L223.96875,-1 S188.984,0  156,-1 L156,-1 S155,-10  156,-17 z" class="label-text-background"></path><text x="156" y="-5" class="directional-text return-text "><tspan>sorry dude</tspan></text></g></g><g id="mscgen_js-svg-__svgarcrow_18"><path d="M60,-19 L60,-18 S63,2  60,19 " class="arcrow"></path><path d="M252,-19 L252,-18 S252,0  252,19 " class="arcrow"></path><path d="M444,-19 L444,-18 S444,-3  444,19 " class="arcrow"></path><path d="M636,-19 L636,-18 S638,1  636,19 " class="arcrow"></path></g><g id="mscgen_js-svg-__svg19_0"><g id="mscgen_js-svg-__svg19_0_lbl"></g></g><g id="mscgen_js-svg-__svgarcrow_19"><path d="M60,-19 L60,-18 S62,0  60,19 " class="arcrow"></path><path d="M252,-19 L252,-18 S253,1  252,19 " class="arcrow"></path><path d="M444,-19 L444,-18 S443,0  444,19 " class="arcrow"></path><path d="M636,-19 L636,-18 S635,-2  636,19 " class="arcrow"></path></g><g id="mscgen_js-svg-__svg6_0"><path d="M-36,0 S1,0  34,0  S70,-3  104,0  S140,1  174,0  S207,0  244,0  S281,-2  314,0  S349,-1  384,0  S416,-1  454,0  S487,1  524,0  S561,-2  594,0  S628,2  732,0 L732,0 S733,36  732,70  S730,103  732,140  S733,173  732,210  S731,243  732,280  S732,317  732,350  S730,386  732,420  S734,455  732,490  S732,526  732,602 L732,602 S699,605  662,602  S627,604  592,602  S557,599  522,602  S487,601  452,602  S416,600  382,602  S349,602  312,602  S277,604  242,602  S208,604  172,602  S140,604  102,602  S67,601  -36,602 L-36,602 S-36,568  -36,532  S-35,495  -36,462  S-38,429  -36,392  S-36,358  -36,322  S-39,290  -36,252  S-39,215  -36,182  S-37,148  -36,112  S-35,76  -36,0 z" class="box inline_expression alt"></path></g></g></defs><g id="mscgen_js-svg-__svg__body" transform="translate(44,3) scale(1,1)"><g id="mscgen_js-svg-__svg__background"><path d="M-44,-3 S-11,-2  26,-3  S60,-3  96,-3  S131,-2  166,-3  S202,-2  236,-3  S274,-3  306,-3  S339,0  376,-3  S412,0  446,-3  S484,-4  516,-3  S551,-1  586,-3  S620,-6  656,-3  S693,-2  740,-3 L740,-3 S739,32  740,67  S743,101  740,137  S742,172  740,207  S737,241  740,277  S741,312  740,347  S743,381  740,417  S738,451  740,487  S740,524  740,557  S738,594  740,627  S740,659  740,697  S743,732  740,767  S740,804  740,837  S741,872  740,961 L740,961 S707,961  670,961  S637,961  600,961  S565,959  530,961  S495,963  460,961  S426,963  390,961  S354,964  320,961  S288,958  250,961  S215,961  180,961  S147,958  110,961  S74,964  40,961  S4,958  -44,961 L-44,961 S-44,924  -44,891  S-45,854  -44,821  S-43,786  -44,751  S-46,714  -44,681  S-42,648  -44,611  S-41,578  -44,541  S-46,506  -44,471  S-44,435  -44,401  S-42,368  -44,331  S-44,294  -44,261  S-43,226  -44,191  S-44,155  -44,121  S-44,84  -44,-3 z" class="bglayer"></path></g><g id="mscgen_js-svg-__svg__arcspanlayer"><use x="0" y="337" xlink:href="#mscgen_js-svg-__svg6_0"></use></g><g id="mscgen_js-svg-__svg__lifelinelayer"><use x="0" y="57" xlink:href="#mscgen_js-svg-__svgarcrow"></use><use x="0" y="98" xlink:href="#mscgen_js-svg-__svgarcrow_0"></use><use x="0" y="139" xlink:href="#mscgen_js-svg-__svgarcrow_1"></use><use x="0" y="177" xlink:href="#mscgen_js-svg-__svgarcrow_2"></use><use x="0" y="217" xlink:href="#mscgen_js-svg-__svgarcrow_3"></use><use x="0" y="259" xlink:href="#mscgen_js-svg-__svgarcrow_4"></use><use x="0" y="299" xlink:href="#mscgen_js-svg-__svgarcrow_5"></use><use x="0" y="337" xlink:href="#mscgen_js-svg-__svgarcrow_6"></use><use x="0" y="375" xlink:href="#mscgen_js-svg-__svgarcrow_7"></use><use x="0" y="414" xlink:href="#mscgen_js-svg-__svgarcrow_8"></use><use x="0" y="455.5" xlink:href="#mscgen_js-svg-__svgarcrow_9"></use><use x="0" y="496" xlink:href="#mscgen_js-svg-__svgarcrow_10"></use><use x="0" y="534" xlink:href="#mscgen_js-svg-__svgarcrow_11"></use><use x="0" y="572" xlink:href="#mscgen_js-svg-__svgarcrow_12"></use><use x="0" y="613.5" xlink:href="#mscgen_js-svg-__svgarcrow_13"></use><use x="0" y="655" xlink:href="#mscgen_js-svg-__svgarcrow_14"></use><use x="0" y="693" xlink:href="#mscgen_js-svg-__svgarcrow_15"></use><use x="0" y="778" xlink:href="#mscgen_js-svg-__svgarcrow_16"></use><use x="0" y="863" xlink:href="#mscgen_js-svg-__svgarcrow_17"></use><use x="0" y="901" xlink:href="#mscgen_js-svg-__svgarcrow_18"></use><use x="0" y="939" xlink:href="#mscgen_js-svg-__svgarcrow_19"></use></g><g id="mscgen_js-svg-__svg__sequencelayer"><use x="0" y="0" xlink:href="#mscgen_js-svg-__svgentities"></use><use x="0" y="98" xlink:href="#mscgen_js-svg-__svg0_0"></use><use x="0" y="139" xlink:href="#mscgen_js-svg-__svg1_0"></use><use x="0" y="177" xlink:href="#mscgen_js-svg-__svg2_0"></use><use x="0" y="217" xlink:href="#mscgen_js-svg-__svg3_0"></use><use x="0" y="259" xlink:href="#mscgen_js-svg-__svg4_0"></use><use x="0" y="299" xlink:href="#mscgen_js-svg-__svg5_0"></use><use x="0" y="375" xlink:href="#mscgen_js-svg-__svg7_0"></use><use x="0" y="496" xlink:href="#mscgen_js-svg-__svg10_0"></use><use x="0" y="534" xlink:href="#mscgen_js-svg-__svg11_0"></use><use x="0" y="572" xlink:href="#mscgen_js-svg-__svg12_0"></use><use x="0" y="613.5" xlink:href="#mscgen_js-svg-__svg13_0"></use><use x="0" y="655" xlink:href="#mscgen_js-svg-__svg14_0"></use><use x="0" y="693" xlink:href="#mscgen_js-svg-__svg15_0"></use><use x="0" y="693" xlink:href="#mscgen_js-svg-__svg15_1"></use><use x="0" y="863" xlink:href="#mscgen_js-svg-__svg17_0"></use><use x="0" y="901" xlink:href="#mscgen_js-svg-__svg18_0"></use><use x="0" y="939" xlink:href="#mscgen_js-svg-__svg19_0"></use></g><g id="mscgen_js-svg-__svg__notelayer"><use x="0" y="337" xlink:href="#mscgen_js-svg-__svg6_0_label"></use><use x="0" y="414" xlink:href="#mscgen_js-svg-__svg8_0"></use><use x="0" y="455.5" xlink:href="#mscgen_js-svg-__svg9_0"></use><use x="0" y="778" xlink:href="#mscgen_js-svg-__svg16_0"></use></g><g id="mscgen_js-svg-__svg__watermark"></g></g></svg>
