<!DOCTYPE svg [<!ENTITY nbsp "&#160;">]><svg version="1.1" id="mscgenjsreplaceme" class="mscgenjsreplaceme" xmlns="http://www.w3.org/2000/svg" xmlns:xlink="http://www.w3.org/1999/xlink" width="784" height="934" viewBox="0 0 784 934"><desc>

# Generated by mscgen_js - https://sverweij.github.io/mscgen_js
{"precomment":["/*\n * a possible re-Captcha integration, assuming the client has\n * the re-Captcha widget embedded in the site\n *\n * Please refer to https://developers.google.com/recaptcha/intro\n * if you're serious about implementing re-Captcha\n */","\n","\n"],"meta":{"extendedOptions":false,"extendedArcTypes":true,"extendedFeatures":true},"options":{"wordwraparcs":true,"hscale":"1.2"},"entities":[{"name":"customer"},{"name":"client"},{"name":"server"},{"name":"google","label":"Google reCaptcha service"}],"arcs":[[{"kind":"=&gt;","from":"customer","to":"client","label":"log in with credentials, reCaptcha"}],[{"kind":"=&gt;","from":"client","to":"google","label":"getResponse(reCaptcha)"}],[{"kind":"&gt;&gt;","from":"google","to":"client","label":"reCaptcha response"}],[{"kind":"=&gt;","from":"client","to":"server","label":"POST credentials, reCaptcha response"}],[{"kind":"=&gt;","from":"server","to":"google","label":"POST reCaptcha response, secret"}],[{"kind":"---","label":"this is a comment"}],[{"kind":"alt","from":"customer","to":"google","arcs":[[{"kind":"&gt;&gt;","from":"google","to":"server","label":"OK"}],[{"kind":"rbox","from":"server","to":"server","label":"check hostname, error codes"}],[{"kind":"rbox","from":"server","to":"server","label":"do regular login processing"}],[{"kind":"---","label":"reCaptcha not valid"}],[{"kind":"&gt;&gt;","from":"google","to":"server","label":"NOK"}],[{"kind":"&gt;&gt;","from":"server","to":"client","label":"HTTP 40x 'reCaptcha'"}],[{"kind":"&gt;&gt;","from":"client","to":"customer","label":"sorry dude - captcha didn't check out"}],[{"kind":"---","label":"other error and/ or time-out"}],[{"kind":"..."},{"kind":"-x","from":"google","to":"server"}],[{"kind":"note","from":"server","to":"client","label":"Treating this as an error will mean your log in won't work when the reCaptcha service is down.\\n\\nIt depends on the gig what you actually do here:\\n\\n- safety before everything shop: throw an error\\n- acceptable risk vs revenue shop: do regular login"}],[{"kind":"&gt;&gt;","from":"server","to":"client","label":"Error (HTTP 500?)"}],[{"kind":"&gt;&gt;","from":"client","to":"customer","label":"sorry dude"}]],"label":"reCaptcha valid"}]]}</desc><defs><style type="text/css">svg.mscgenjsreplaceme{font-family:Helvetica,sans-serif;font-size:12px;font-weight:normal;font-style:normal;text-decoration:none;background-color:white;stroke:black;stroke-width:2}.mscgenjsreplaceme path, .mscgenjsreplaceme rect{fill:none}.mscgenjsreplaceme .label-text-background{fill:white;stroke:white;stroke-width:0}.mscgenjsreplaceme .bglayer{fill:white;stroke:white;stroke-width:0}.mscgenjsreplaceme line{}.mscgenjsreplaceme .return, .mscgenjsreplaceme .comment{stroke-dasharray:5,3}.mscgenjsreplaceme .inline_expression_divider{stroke-dasharray:10,5}.mscgenjsreplaceme text{color:inherit;stroke:none;text-anchor:middle}.mscgenjsreplaceme text.anchor-start{text-anchor:start}.mscgenjsreplaceme .arrow-marker{overflow:visible}.mscgenjsreplaceme .arrow-style{stroke-width:1}.mscgenjsreplaceme .arcrow, .mscgenjsreplaceme .arcrowomit, .mscgenjsreplaceme .emphasised{stroke-linecap:butt}.mscgenjsreplaceme .arcrowomit{stroke-dasharray:2,2}.mscgenjsreplaceme .box, .mscgenjsreplaceme .entity{fill:white;stroke-linejoin:round}.mscgenjsreplaceme .inherit{stroke:inherit;color:inherit}.mscgenjsreplaceme .inherit-fill{fill:inherit}.mscgenjsreplaceme .watermark{font-size:48pt;font-weight:bold;opacity:0.14}</style><marker orient="auto" id="mscgenjsreplacemecallback-black" class="arrow-marker" viewBox="0 0 10 10" refX="9" refY="3" markerUnits="strokeWidth" markerWidth="10" markerHeight="10"><path d="M 1,1 l 8,2 l-8,2" class="arrow-style" style="stroke-dasharray:100,1;stroke:black"></path></marker><marker orient="auto" id="mscgenjsreplacemecallback-l-black" class="arrow-marker" viewBox="0 0 10 10" refX="9" refY="3" markerUnits="strokeWidth" markerWidth="10" markerHeight="10"><path d="M17,1 l-8,2 l 8,2" class="arrow-style" style="stroke-dasharray:100,1;stroke:black"></path></marker><marker orient="auto" id="mscgenjsreplacemelost-black" class="arrow-marker" viewBox="0 0 10 10" refX="9" refY="3" markerUnits="strokeWidth" markerWidth="10" markerHeight="10"><path d="M7,0 l5,6 M7,6 l5,-6" class="arrow-style" style="stroke-dasharray:100,1;stroke:black"></path></marker><marker orient="auto" id="mscgenjsreplacememethod-black" class="arrow-marker" viewBox="0 0 10 10" refX="9" refY="3" markerUnits="strokeWidth" markerWidth="10" markerHeight="10"><polygon points="1,1  9,3  1,5" class="arrow-style" stroke="black" fill="black"></polygon></marker><marker orient="auto" id="mscgenjsreplacememethod-l-black" class="arrow-marker" viewBox="0 0 10 10" refX="9" refY="3" markerUnits="strokeWidth" markerWidth="10" markerHeight="10"><polygon points="17,1 9,3 17,5" class="arrow-style" stroke="black" fill="black"></polygon></marker></defs><g id="mscgenjsreplaceme_body" transform="translate(44,3) scale(1,1)"><g id="mscgenjsreplaceme_background"><rect width="784" height="934" x="-44" y="-3" class="bglayer"></rect></g><g id="mscgenjsreplaceme_arcspans"><rect width="768" height="586" x="-36" y="323" class="box inline_expression alt"></rect></g><g id="mscgenjsreplaceme_lifelines"><line x1="60" y1="38" x2="60" y2="76" class="arcrow"></line><line x1="252" y1="38" x2="252" y2="76" class="arcrow"></line><line x1="444" y1="38" x2="444" y2="76" class="arcrow"></line><line x1="636" y1="38" x2="636" y2="76" class="arcrow"></line><line x1="60" y1="76" x2="60" y2="114" class="arcrow"></line><line x1="252" y1="76" x2="252" y2="114" class="arcrow"></line><line x1="444" y1="76" x2="444" y2="114" class="arcrow"></line><line x1="636" y1="76" x2="636" y2="114" class="arcrow"></line><line x1="60" y1="114" x2="60" y2="152" class="arcrow"></line><line x1="252" y1="114" x2="252" y2="152" class="arcrow"></line><line x1="444" y1="114" x2="444" y2="152" class="arcrow"></line><line x1="636" y1="114" x2="636" y2="152" class="arcrow"></line><line x1="60" y1="152" x2="60" y2="190" class="arcrow"></line><line x1="252" y1="152" x2="252" y2="190" class="arcrow"></line><line x1="444" y1="152" x2="444" y2="190" class="arcrow"></line><line x1="636" y1="152" x2="636" y2="190" class="arcrow"></line><line x1="60" y1="190" x2="60" y2="228" class="arcrow"></line><line x1="252" y1="190" x2="252" y2="228" class="arcrow"></line><line x1="444" y1="190" x2="444" y2="228" class="arcrow"></line><line x1="636" y1="190" x2="636" y2="228" class="arcrow"></line><line x1="60" y1="228" x2="60" y2="266" class="arcrow"></line><line x1="252" y1="228" x2="252" y2="266" class="arcrow"></line><line x1="444" y1="228" x2="444" y2="266" class="arcrow"></line><line x1="636" y1="228" x2="636" y2="266" class="arcrow"></line><line x1="60" y1="266" x2="60" y2="304" class="arcrow"></line><line x1="252" y1="266" x2="252" y2="304" class="arcrow"></line><line x1="444" y1="266" x2="444" y2="304" class="arcrow"></line><line x1="636" y1="266" x2="636" y2="304" class="arcrow"></line><line x1="60" y1="304" x2="60" y2="342" class="arcrow"></line><line x1="252" y1="304" x2="252" y2="342" class="arcrow"></line><line x1="444" y1="304" x2="444" y2="342" class="arcrow"></line><line x1="636" y1="304" x2="636" y2="342" class="arcrow"></line><line x1="60" y1="342" x2="60" y2="380" class="arcrow"></line><line x1="252" y1="342" x2="252" y2="380" class="arcrow"></line><line x1="444" y1="342" x2="444" y2="380" class="arcrow"></line><line x1="636" y1="342" x2="636" y2="380" class="arcrow"></line><line x1="60" y1="380" x2="60" y2="418" class="arcrow"></line><line x1="252" y1="380" x2="252" y2="418" class="arcrow"></line><line x1="444" y1="380" x2="444" y2="418" class="arcrow"></line><line x1="636" y1="380" x2="636" y2="418" class="arcrow"></line><line x1="60" y1="418" x2="60" y2="456" class="arcrow"></line><line x1="252" y1="418" x2="252" y2="456" class="arcrow"></line><line x1="444" y1="418" x2="444" y2="456" class="arcrow"></line><line x1="636" y1="418" x2="636" y2="456" class="arcrow"></line><line x1="60" y1="456" x2="60" y2="494" class="arcrow"></line><line x1="252" y1="456" x2="252" y2="494" class="arcrow"></line><line x1="444" y1="456" x2="444" y2="494" class="arcrow"></line><line x1="636" y1="456" x2="636" y2="494" class="arcrow"></line><line x1="60" y1="494" x2="60" y2="532" class="arcrow"></line><line x1="252" y1="494" x2="252" y2="532" class="arcrow"></line><line x1="444" y1="494" x2="444" y2="532" class="arcrow"></line><line x1="636" y1="494" x2="636" y2="532" class="arcrow"></line><line x1="60" y1="532" x2="60" y2="570" class="arcrow"></line><line x1="252" y1="532" x2="252" y2="570" class="arcrow"></line><line x1="444" y1="532" x2="444" y2="570" class="arcrow"></line><line x1="636" y1="532" x2="636" y2="570" class="arcrow"></line><line x1="60" y1="570" x2="60" y2="608" class="arcrow"></line><line x1="252" y1="570" x2="252" y2="608" class="arcrow"></line><line x1="444" y1="570" x2="444" y2="608" class="arcrow"></line><line x1="636" y1="570" x2="636" y2="608" class="arcrow"></line><line x1="60" y1="608" x2="60" y2="646" class="arcrow"></line><line x1="252" y1="608" x2="252" y2="646" class="arcrow"></line><line x1="444" y1="608" x2="444" y2="646" class="arcrow"></line><line x1="636" y1="608" x2="636" y2="646" class="arcrow"></line><line x1="60" y1="646" x2="60" y2="684" class="arcrowomit"></line><line x1="252" y1="646" x2="252" y2="684" class="arcrowomit"></line><line x1="444" y1="646" x2="444" y2="684" class="arcrowomit"></line><line x1="636" y1="646" x2="636" y2="684" class="arcrowomit"></line><line x1="60" y1="684" x2="60" y2="814" class="arcrow"></line><line x1="252" y1="684" x2="252" y2="814" class="arcrow"></line><line x1="444" y1="684" x2="444" y2="814" class="arcrow"></line><line x1="636" y1="684" x2="636" y2="814" class="arcrow"></line><line x1="60" y1="814" x2="60" y2="852" class="arcrow"></line><line x1="252" y1="814" x2="252" y2="852" class="arcrow"></line><line x1="444" y1="814" x2="444" y2="852" class="arcrow"></line><line x1="636" y1="814" x2="636" y2="852" class="arcrow"></line><line x1="60" y1="852" x2="60" y2="890" class="arcrow"></line><line x1="252" y1="852" x2="252" y2="890" class="arcrow"></line><line x1="444" y1="852" x2="444" y2="890" class="arcrow"></line><line x1="636" y1="852" x2="636" y2="890" class="arcrow"></line><line x1="60" y1="890" x2="60" y2="928" class="arcrow"></line><line x1="252" y1="890" x2="252" y2="928" class="arcrow"></line><line x1="444" y1="890" x2="444" y2="928" class="arcrow"></line><line x1="636" y1="890" x2="636" y2="928" class="arcrow"></line></g><g id="mscgenjsreplaceme_sequence"><g><g><rect width="120" height="38" class="entity"></rect><g><text x="60" y="23.25" class="entity-text "><tspan>customer</tspan></text></g></g><g><rect width="120" height="38" x="192" class="entity"></rect><g><text x="252" y="23.25" class="entity-text "><tspan>client</tspan></text></g></g><g><rect width="120" height="38" x="384" class="entity"></rect><g><text x="444" y="23.25" class="entity-text "><tspan>server</tspan></text></g></g><g><rect width="120" height="38" x="576" class="entity"></rect><g><text x="636" y="14.25" class="entity-text "><tspan>Google</tspan></text><text x="636" y="32.25" class="entity-text "><tspan>reCaptcha service</tspan></text></g></g></g><g><line x1="60" y1="95" x2="252" y2="95" class="arc directional method" style="stroke:black" marker-end="url(#mscgenjsreplacememethod-black)"></line><g><rect width="118.06" height="14" x="96.97" y="78.75" class="label-text-background"></rect><text x="156" y="89.75" class="directional-text method-text "><tspan>log in with credentials,</tspan></text><rect width="55.38" height="14" x="128.31" y="98.75" class="label-text-background"></rect><text x="156" y="109.75" class="directional-text method-text "><tspan>reCaptcha</tspan></text></g></g><g><line x1="252" y1="133" x2="636" y2="133" class="arc directional method" style="stroke:black" marker-end="url(#mscgenjsreplacememethod-black)"></line><g><rect width="134.09" height="14" x="376.95" y="116.75" class="label-text-background"></rect><text x="444" y="127.75" class="directional-text method-text "><tspan>getResponse(reCaptcha)</tspan></text></g></g><g><line x1="636" y1="171" x2="252" y2="171" class="arc directional return" style="stroke:black" marker-end="url(#mscgenjsreplacemecallback-black)"></line><g><rect width="108.09" height="14" x="389.95" y="154.75" class="label-text-background"></rect><text x="444" y="165.75" class="directional-text return-text "><tspan>reCaptcha response</tspan></text></g></g><g><line x1="252" y1="209" x2="444" y2="209" class="arc directional method" style="stroke:black" marker-end="url(#mscgenjsreplacememethod-black)"></line><g><rect width="156.09" height="14" x="269.95" y="192.75" class="label-text-background"></rect><text x="348" y="203.75" class="directional-text method-text "><tspan>POST credentials, reCaptcha</tspan></text><rect width="49.38" height="14" x="323.31" y="212.75" class="label-text-background"></rect><text x="348" y="223.75" class="directional-text method-text "><tspan>response</tspan></text></g></g><g><line x1="444" y1="247" x2="636" y2="247" class="arc directional method" style="stroke:black" marker-end="url(#mscgenjsreplacememethod-black)"></line><g><rect width="147.41" height="14" x="466.3" y="230.75" class="label-text-background"></rect><text x="540" y="241.75" class="directional-text method-text "><tspan>POST reCaptcha response,</tspan></text><rect width="32.69" height="14" x="523.66" y="250.75" class="label-text-background"></rect><text x="540" y="261.75" class="directional-text method-text "><tspan>secret</tspan></text></g></g><g><line x1="0" y1="285" x2="696" y2="285" class="comment"></line><g><rect width="93.38" height="14" x="301.31" y="278.25" class="label-text-background"></rect><text x="348" y="289.25" class="empty-text comment-row-text "><tspan>this is a comment</tspan></text></g></g><g><line x1="636" y1="361" x2="444" y2="361" class="arc directional return" style="stroke:black" marker-end="url(#mscgenjsreplacemecallback-black)"></line><g><rect width="17.34" height="14" x="531.33" y="344.75" class="label-text-background"></rect><text x="540" y="355.75" class="directional-text return-text "><tspan>OK</tspan></text></g></g><g><line x1="-36" y1="475" x2="732" y2="475" class="inline_expression_divider"></line><g><rect width="103.41" height="14" x="296.3" y="468.25" class="label-text-background"></rect><text x="348" y="479.25" class="empty-text comment-row-text "><tspan>reCaptcha not valid</tspan></text></g></g><g><line x1="636" y1="513" x2="444" y2="513" class="arc directional return" style="stroke:black" marker-end="url(#mscgenjsreplacemecallback-black)"></line><g><rect width="26.03" height="14" x="526.98" y="496.75" class="label-text-background"></rect><text x="540" y="507.75" class="directional-text return-text "><tspan>NOK</tspan></text></g></g><g><line x1="444" y1="551" x2="252" y2="551" class="arc directional return" style="stroke:black" marker-end="url(#mscgenjsreplacemecallback-black)"></line><g><rect width="117.31" height="14" x="289.34" y="534.75" class="label-text-background"></rect><text x="348" y="545.75" class="directional-text return-text "><tspan>HTTP 40x 'reCaptcha'</tspan></text></g></g><g><line x1="252" y1="589" x2="60" y2="589" class="arc directional return" style="stroke:black" marker-end="url(#mscgenjsreplacemecallback-black)"></line><g><rect width="141.06" height="14" x="85.47" y="572.75" class="label-text-background"></rect><text x="156" y="583.75" class="directional-text return-text "><tspan>sorry dude - captcha didn't</tspan></text><rect width="51.38" height="14" x="130.31" y="592.75" class="label-text-background"></rect><text x="156" y="603.75" class="directional-text return-text "><tspan>check out</tspan></text></g></g><g><line x1="-36" y1="627" x2="732" y2="627" class="inline_expression_divider"></line><g><rect width="143.41" height="14" x="276.3" y="620.25" class="label-text-background"></rect><text x="348" y="631.25" class="empty-text comment-row-text "><tspan>other error and/ or time-out</tspan></text></g></g><g></g><g><line x1="636" y1="665" x2="492" y2="665" class="arc directional lost" style="stroke:black" marker-end="url(#mscgenjsreplacemelost-black)"></line><g></g></g><g><line x1="444" y1="833" x2="252" y2="833" class="arc directional return" style="stroke:black" marker-end="url(#mscgenjsreplacemecallback-black)"></line><g><rect width="99.38" height="14" x="298.31" y="816.75" class="label-text-background"></rect><text x="348" y="827.75" class="directional-text return-text "><tspan>Error (HTTP 500?)</tspan></text></g></g><g><line x1="252" y1="871" x2="60" y2="871" class="arc directional return" style="stroke:black" marker-end="url(#mscgenjsreplacemecallback-black)"></line><g><rect width="56.72" height="14" x="127.64" y="854.75" class="label-text-background"></rect><text x="156" y="865.75" class="directional-text return-text "><tspan>sorry dude</tspan></text></g></g><g></g></g><g id="mscgenjsreplaceme_notes"><g><path d="M-35,323 l111.73,0 l0,11 l-7,7 l-104.73,0 " class="box inline_expression_label"></path><g><text x="-33" y="336.75" class="inline_expression-text alt-text anchor-start "><tspan>alt: reCaptcha valid</tspan></text></g></g><g><rect width="184" height="34" x="352" y="382" rx="6" ry="6" class="box rbox"></rect><g><text x="444" y="403.25" class="box-text rbox-text "><tspan>check hostname, error codes</tspan></text></g></g><g><rect width="184" height="34" x="352" y="420" rx="6" ry="6" class="box rbox"></rect><g><text x="444" y="441.25" class="box-text rbox-text "><tspan>do regular login processing</tspan></text></g></g><g><path d="M160,686 l367,0 l0,9 l9,0 m-9,-9 l9,9 l0,117 l-376,0 l0,-126 z" class="box note"></path><g><text x="348" y="699.25" class="box-text note-text "><tspan>Treating this as an error will mean your log in won't work when</tspan></text><text x="348" y="717.25" class="box-text note-text "><tspan>the reCaptcha service is down.</tspan></text><text x="348" y="753.25" class="box-text note-text "><tspan>It depends on the gig what you actually do here:</tspan></text><text x="348" y="789.25" class="box-text note-text "><tspan>- safety before everything shop: throw an error</tspan></text><text x="348" y="807.25" class="box-text note-text "><tspan>- acceptable risk vs revenue shop: do regular login</tspan></text></g></g></g><g id="mscgenjsreplaceme_watermark"></g></g></svg>