<svg version="1.1" id="mscgenjsreplaceme" class="mscgenjsreplaceme" xmlns="http://www.w3.org/2000/svg" xmlns:xlink="http://www.w3.org/1999/xlink" width="784" height="916" viewBox="0 0 784 916"><desc>

# Generated by mscgen_js - https://sverweij.github.io/mscgen_js
{
  "precomment": [
    "/*\n * a possible re-Captcha integration, assuming the client has\n * the re-Captcha widget embedded in the site\n *\n * Please refer to https://developers.google.com/recaptcha/intro\n * if you're serious about implementing re-Captcha\n */",
    "\n",
    "\n"
  ],
  "meta": {
    "extendedOptions": false,
    "extendedArcTypes": true,
    "extendedFeatures": true
  },
  "options": {
    "wordwraparcs": true,
    "hscale": "1.2"
  },
  "entities": [
    {
      "name": "customer"
    },
    {
      "name": "client"
    },
    {
      "name": "server"
    },
    {
      "name": "google",
      "label": "Google reCaptcha service"
    }
  ],
  "arcs": [
    [
      {
        "kind": "=&gt;",
        "from": "customer",
        "to": "client",
        "label": "log in with credentials, reCaptcha"
      }
    ],
    [
      {
        "kind": "=&gt;",
        "from": "client",
        "to": "google",
        "label": "getResponse(reCaptcha)"
      }
    ],
    [
      {
        "kind": "&gt;&gt;",
        "from": "google",
        "to": "client",
        "label": "reCaptcha response"
      }
    ],
    [
      {
        "kind": "=&gt;",
        "from": "client",
        "to": "server",
        "label": "POST credentials, reCaptcha response"
      }
    ],
    [
      {
        "kind": "=&gt;",
        "from": "server",
        "to": "google",
        "label": "POST reCaptcha response, secret"
      }
    ],
    [
      {
        "kind": "---",
        "label": "this is a comment"
      }
    ],
    [
      {
        "kind": "alt",
        "from": "customer",
        "to": "google",
        "arcs": [
          [
            {
              "kind": "&gt;&gt;",
              "from": "google",
              "to": "server",
              "label": "OK"
            }
          ],
          [
            {
              "kind": "rbox",
              "from": "server",
              "to": "server",
              "label": "check hostname, error codes"
            }
          ],
          [
            {
              "kind": "rbox",
              "from": "server",
              "to": "server",
              "label": "do regular login processing"
            }
          ],
          [
            {
              "kind": "---",
              "label": "reCaptcha not valid"
            }
          ],
          [
            {
              "kind": "&gt;&gt;",
              "from": "google",
              "to": "server",
              "label": "NOK"
            }
          ],
          [
            {
              "kind": "&gt;&gt;",
              "from": "server",
              "to": "client",
              "label": "HTTP 40x 'reCaptcha'"
            }
          ],
          [
            {
              "kind": "&gt;&gt;",
              "from": "client",
              "to": "customer",
              "label": "sorry dude - captcha didn't check out"
            }
          ],
          [
            {
              "kind": "---",
              "label": "other error and/ or time-out"
            }
          ],
          [
            {
              "kind": "..."
            },
            {
              "kind": "-x",
              "from": "google",
              "to": "server"
            }
          ],
          [
            {
              "kind": "note",
              "from": "server",
              "to": "client",
              "label": "Treating this as an error will mean your log in won't work when the reCaptcha service is down.\\n\\nIt depends on the gig what you actually do here:\\n\\n- safety before everything shop: throw an error\\n- acceptable risk vs revenue shop: do regular login"
            }
          ],
          [
            {
              "kind": "&gt;&gt;",
              "from": "server",
              "to": "client",
              "label": "Error (HTTP 500?)"
            }
          ],
          [
            {
              "kind": "&gt;&gt;",
              "from": "client",
              "to": "customer",
              "label": "sorry dude"
            }
          ]
        ],
        "label": "reCaptcha valid"
      }
    ]
  ]
}</desc><defs><style type="text/css">svg.mscgenjsreplaceme{font-family:Helvetica,sans-serif;font-size:12px;font-weight:normal;font-style:normal;text-decoration:none;background-color:white;stroke:black;stroke-width:2}.mscgenjsreplaceme path, .mscgenjsreplaceme rect{fill:none}.mscgenjsreplaceme .label-text-background{fill:white;stroke:white;stroke-width:0}.mscgenjsreplaceme .bglayer{fill:white;stroke:white;stroke-width:0}.mscgenjsreplaceme line{}.mscgenjsreplaceme .return, .mscgenjsreplaceme .comment{stroke-dasharray:5,3}.mscgenjsreplaceme .inline_expression_divider{stroke-dasharray:10,5}.mscgenjsreplaceme text{color:inherit;stroke:none;text-anchor:middle}.mscgenjsreplaceme text.anchor-start{text-anchor:start}.mscgenjsreplaceme .arrow-marker{overflow:visible}.mscgenjsreplaceme .arrow-style{stroke-width:1}.mscgenjsreplaceme .arcrow, .mscgenjsreplaceme .arcrowomit, .mscgenjsreplaceme .emphasised{stroke-linecap:butt}.mscgenjsreplaceme .arcrowomit{stroke-dasharray:2,2}.mscgenjsreplaceme .box, .mscgenjsreplaceme .entity{fill:white;stroke-linejoin:round}.mscgenjsreplaceme .inherit{stroke:inherit;color:inherit}.mscgenjsreplaceme .inherit-fill{fill:inherit}.mscgenjsreplaceme .watermark{font-size:48pt;font-weight:bold;opacity:0.14}.mscgenjsreplaceme text.entity-text{font-weight:bold;}.mscgenjsreplaceme text.return-text{font-style:italic}.mscgenjsreplaceme path.note{fill:#FFFFCC}.mscgenjsreplaceme rect.label-text-background{opacity:0.9}.mscgenjsreplaceme line.comment,.mscgenjsreplaceme rect.inline_expression,.mscgenjsreplaceme .inline_expression_divider,.mscgenjsreplaceme .inline_expression_label{stroke:grey}</style><marker orient="auto" id="mscgenjsreplacemecallback-black" class="arrow-marker" viewBox="0 0 10 10" refX="9" refY="3" markerUnits="strokeWidth" markerWidth="10" markerHeight="10"><path d="M 1,1 l 8,2 l-8,2" class="arrow-style" style="stroke-dasharray:100,1;stroke:black"></path></marker><marker orient="auto" id="mscgenjsreplacemecallback-l-black" class="arrow-marker" viewBox="0 0 10 10" refX="9" refY="3" markerUnits="strokeWidth" markerWidth="10" markerHeight="10"><path d="M17,1 l-8,2 l 8,2" class="arrow-style" style="stroke-dasharray:100,1;stroke:black"></path></marker><marker orient="auto" id="mscgenjsreplacemelost-black" class="arrow-marker" viewBox="0 0 10 10" refX="9" refY="3" markerUnits="strokeWidth" markerWidth="10" markerHeight="10"><path d="M7,0 l5,6 M7,6 l5,-6" class="arrow-style" style="stroke-dasharray:100,1;stroke:black"></path></marker><marker orient="auto" id="mscgenjsreplacememethod-black" class="arrow-marker" viewBox="0 0 10 10" refX="9" refY="3" markerUnits="strokeWidth" markerWidth="10" markerHeight="10"><polygon points="1,1  9,3  1,5" class="arrow-style" stroke="black" fill="black"></polygon></marker><marker orient="auto" id="mscgenjsreplacememethod-l-black" class="arrow-marker" viewBox="0 0 10 10" refX="9" refY="3" markerUnits="strokeWidth" markerWidth="10" markerHeight="10"><polygon points="17,1 9,3 17,5" class="arrow-style" stroke="black" fill="black"></polygon></marker></defs><g id="mscgenjsreplaceme_body" transform="translate(44,3) scale(1,1)"><g id="mscgenjsreplaceme_background"><rect width="784" height="916" x="-44" y="-3" class="bglayer"></rect></g><g id="mscgenjsreplaceme_arcspans"><rect width="768" height="568" x="-36" y="323" class="box inline_expression alt"></rect></g><g id="mscgenjsreplaceme_lifelines"><line x1="60" y1="38" x2="60" y2="76" class="arcrow"></line><line x1="252" y1="38" x2="252" y2="76" class="arcrow"></line><line x1="444" y1="38" x2="444" y2="76" class="arcrow"></line><line x1="636" y1="38" x2="636" y2="76" class="arcrow"></line><line x1="60" y1="76" x2="60" y2="114" class="arcrow"></line><line x1="252" y1="76" x2="252" y2="114" class="arcrow"></line><line x1="444" y1="76" x2="444" y2="114" class="arcrow"></line><line x1="636" y1="76" x2="636" y2="114" class="arcrow"></line><line x1="60" y1="114" x2="60" y2="152" class="arcrow"></line><line x1="252" y1="114" x2="252" y2="152" class="arcrow"></line><line x1="444" y1="114" x2="444" y2="152" class="arcrow"></line><line x1="636" y1="114" x2="636" y2="152" class="arcrow"></line><line x1="60" y1="152" x2="60" y2="190" class="arcrow"></line><line x1="252" y1="152" x2="252" y2="190" class="arcrow"></line><line x1="444" y1="152" x2="444" y2="190" class="arcrow"></line><line x1="636" y1="152" x2="636" y2="190" class="arcrow"></line><line x1="60" y1="190" x2="60" y2="228" class="arcrow"></line><line x1="252" y1="190" x2="252" y2="228" class="arcrow"></line><line x1="444" y1="190" x2="444" y2="228" class="arcrow"></line><line x1="636" y1="190" x2="636" y2="228" class="arcrow"></line><line x1="60" y1="228" x2="60" y2="266" class="arcrow"></line><line x1="252" y1="228" x2="252" y2="266" class="arcrow"></line><line x1="444" y1="228" x2="444" y2="266" class="arcrow"></line><line x1="636" y1="228" x2="636" y2="266" class="arcrow"></line><line x1="60" y1="266" x2="60" y2="304" class="arcrow"></line><line x1="252" y1="266" x2="252" y2="304" class="arcrow"></line><line x1="444" y1="266" x2="444" y2="304" class="arcrow"></line><line x1="636" y1="266" x2="636" y2="304" class="arcrow"></line><line x1="60" y1="304" x2="60" y2="342" class="arcrow"></line><line x1="252" y1="304" x2="252" y2="342" class="arcrow"></line><line x1="444" y1="304" x2="444" y2="342" class="arcrow"></line><line x1="636" y1="304" x2="636" y2="342" class="arcrow"></line><line x1="60" y1="342" x2="60" y2="380" class="arcrow"></line><line x1="252" y1="342" x2="252" y2="380" class="arcrow"></line><line x1="444" y1="342" x2="444" y2="380" class="arcrow"></line><line x1="636" y1="342" x2="636" y2="380" class="arcrow"></line><line x1="60" y1="380" x2="60" y2="418" class="arcrow"></line><line x1="252" y1="380" x2="252" y2="418" class="arcrow"></line><line x1="444" y1="380" x2="444" y2="418" class="arcrow"></line><line x1="636" y1="380" x2="636" y2="418" class="arcrow"></line><line x1="60" y1="418" x2="60" y2="456" class="arcrow"></line><line x1="252" y1="418" x2="252" y2="456" class="arcrow"></line><line x1="444" y1="418" x2="444" y2="456" class="arcrow"></line><line x1="636" y1="418" x2="636" y2="456" class="arcrow"></line><line x1="60" y1="456" x2="60" y2="494" class="arcrow"></line><line x1="252" y1="456" x2="252" y2="494" class="arcrow"></line><line x1="444" y1="456" x2="444" y2="494" class="arcrow"></line><line x1="636" y1="456" x2="636" y2="494" class="arcrow"></line><line x1="60" y1="494" x2="60" y2="532" class="arcrow"></line><line x1="252" y1="494" x2="252" y2="532" class="arcrow"></line><line x1="444" y1="494" x2="444" y2="532" class="arcrow"></line><line x1="636" y1="494" x2="636" y2="532" class="arcrow"></line><line x1="60" y1="532" x2="60" y2="570" class="arcrow"></line><line x1="252" y1="532" x2="252" y2="570" class="arcrow"></line><line x1="444" y1="532" x2="444" y2="570" class="arcrow"></line><line x1="636" y1="532" x2="636" y2="570" class="arcrow"></line><line x1="60" y1="570" x2="60" y2="608" class="arcrow"></line><line x1="252" y1="570" x2="252" y2="608" class="arcrow"></line><line x1="444" y1="570" x2="444" y2="608" class="arcrow"></line><line x1="636" y1="570" x2="636" y2="608" class="arcrow"></line><line x1="60" y1="608" x2="60" y2="646" class="arcrow"></line><line x1="252" y1="608" x2="252" y2="646" class="arcrow"></line><line x1="444" y1="608" x2="444" y2="646" class="arcrow"></line><line x1="636" y1="608" x2="636" y2="646" class="arcrow"></line><line x1="60" y1="646" x2="60" y2="684" class="arcrowomit"></line><line x1="252" y1="646" x2="252" y2="684" class="arcrowomit"></line><line x1="444" y1="646" x2="444" y2="684" class="arcrowomit"></line><line x1="636" y1="646" x2="636" y2="684" class="arcrowomit"></line><line x1="60" y1="684" x2="60" y2="796" class="arcrow"></line><line x1="252" y1="684" x2="252" y2="796" class="arcrow"></line><line x1="444" y1="684" x2="444" y2="796" class="arcrow"></line><line x1="636" y1="684" x2="636" y2="796" class="arcrow"></line><line x1="60" y1="796" x2="60" y2="834" class="arcrow"></line><line x1="252" y1="796" x2="252" y2="834" class="arcrow"></line><line x1="444" y1="796" x2="444" y2="834" class="arcrow"></line><line x1="636" y1="796" x2="636" y2="834" class="arcrow"></line><line x1="60" y1="834" x2="60" y2="872" class="arcrow"></line><line x1="252" y1="834" x2="252" y2="872" class="arcrow"></line><line x1="444" y1="834" x2="444" y2="872" class="arcrow"></line><line x1="636" y1="834" x2="636" y2="872" class="arcrow"></line><line x1="60" y1="872" x2="60" y2="910" class="arcrow"></line><line x1="252" y1="872" x2="252" y2="910" class="arcrow"></line><line x1="444" y1="872" x2="444" y2="910" class="arcrow"></line><line x1="636" y1="872" x2="636" y2="910" class="arcrow"></line></g><g id="mscgenjsreplaceme_sequence"><g><g><rect width="120" height="38" class="entity"></rect><g><text x="60" y="22.5" class="entity-text "><tspan>customer</tspan></text></g></g><g><rect width="120" height="38" x="192" class="entity"></rect><g><text x="252" y="22.5" class="entity-text "><tspan>client</tspan></text></g></g><g><rect width="120" height="38" x="384" class="entity"></rect><g><text x="444" y="22.5" class="entity-text "><tspan>server</tspan></text></g></g><g><rect width="120" height="38" x="576" class="entity"></rect><g><text x="636" y="15" class="entity-text "><tspan>Google</tspan></text><text x="636" y="30" class="entity-text "><tspan>reCaptcha service</tspan></text></g></g></g><g><line x1="60" y1="95" x2="252" y2="95" class="arc directional method" style="stroke:black" marker-end="url(#mscgenjsreplacememethod-black)"></line><g><rect width="118.05" height="14" x="96.97" y="79.5" class="label-text-background"></rect><text x="156" y="90.5" class="directional-text method-text "><tspan>log in with credentials,</tspan></text><rect width="55.36" height="14" x="128.31" y="96.5" class="label-text-background"></rect><text x="156" y="107.5" class="directional-text method-text "><tspan>reCaptcha</tspan></text></g></g><g><line x1="252" y1="133" x2="636" y2="133" class="arc directional method" style="stroke:black" marker-end="url(#mscgenjsreplacememethod-black)"></line><g><rect width="134.06" height="14" x="376.95" y="117.5" class="label-text-background"></rect><text x="444" y="128.5" class="directional-text method-text "><tspan>getResponse(reCaptcha)</tspan></text></g></g><g><line x1="636" y1="171" x2="252" y2="171" class="arc directional return" style="stroke:black" marker-end="url(#mscgenjsreplacemecallback-black)"></line><g><rect width="108.36" height="14" x="389.95" y="155.5" class="label-text-background"></rect><text x="444" y="166.5" class="directional-text return-text "><tspan>reCaptcha response</tspan></text></g></g><g><line x1="252" y1="209" x2="444" y2="209" class="arc directional method" style="stroke:black" marker-end="url(#mscgenjsreplacememethod-black)"></line><g><rect width="156.06" height="14" x="269.95" y="193.5" class="label-text-background"></rect><text x="348" y="204.5" class="directional-text method-text "><tspan>POST credentials, reCaptcha</tspan></text><rect width="49.36" height="14" x="323.31" y="210.5" class="label-text-background"></rect><text x="348" y="221.5" class="directional-text method-text "><tspan>response</tspan></text></g></g><g><line x1="444" y1="247" x2="636" y2="247" class="arc directional method" style="stroke:black" marker-end="url(#mscgenjsreplacememethod-black)"></line><g><rect width="147.39" height="14" x="466.3" y="231.5" class="label-text-background"></rect><text x="540" y="242.5" class="directional-text method-text "><tspan>POST reCaptcha response,</tspan></text><rect width="32.67" height="14" x="523.66" y="248.5" class="label-text-background"></rect><text x="540" y="259.5" class="directional-text method-text "><tspan>secret</tspan></text></g></g><g><line x1="0" y1="285" x2="696" y2="285" class="comment"></line><g><rect width="93.36" height="14" x="301.31" y="277.5" class="label-text-background"></rect><text x="348" y="288.5" class="empty-text comment-row-text "><tspan>this is a comment</tspan></text></g></g><g><line x1="636" y1="361" x2="444" y2="361" class="arc directional return" style="stroke:black" marker-end="url(#mscgenjsreplacemecallback-black)"></line><g><rect width="19.02" height="14" x="531.33" y="345.5" class="label-text-background"></rect><text x="540" y="356.5" class="directional-text return-text "><tspan>OK</tspan></text></g></g><g><line x1="-36" y1="475" x2="732" y2="475" class="inline_expression_divider"></line><g><rect width="103.39" height="14" x="296.3" y="467.5" class="label-text-background"></rect><text x="348" y="478.5" class="empty-text comment-row-text "><tspan>reCaptcha not valid</tspan></text></g></g><g><line x1="636" y1="513" x2="444" y2="513" class="arc directional return" style="stroke:black" marker-end="url(#mscgenjsreplacemecallback-black)"></line><g><rect width="27.67" height="14" x="526.98" y="497.5" class="label-text-background"></rect><text x="540" y="508.5" class="directional-text return-text "><tspan>NOK</tspan></text></g></g><g><line x1="444" y1="551" x2="252" y2="551" class="arc directional return" style="stroke:black" marker-end="url(#mscgenjsreplacemecallback-black)"></line><g><rect width="118.8" height="14" x="289.34" y="535.5" class="label-text-background"></rect><text x="348" y="546.5" class="directional-text return-text "><tspan>HTTP 40x 'reCaptcha'</tspan></text></g></g><g><line x1="252" y1="589" x2="60" y2="589" class="arc directional return" style="stroke:black" marker-end="url(#mscgenjsreplacemecallback-black)"></line><g><rect width="142.08" height="14" x="85.47" y="573.5" class="label-text-background"></rect><text x="156" y="584.5" class="directional-text return-text "><tspan>sorry dude - captcha didn't</tspan></text><rect width="52.41" height="14" x="130.31" y="590.5" class="label-text-background"></rect><text x="156" y="601.5" class="directional-text return-text "><tspan>check out</tspan></text></g></g><g><line x1="-36" y1="627" x2="732" y2="627" class="inline_expression_divider"></line><g><rect width="143.39" height="14" x="276.3" y="619.5" class="label-text-background"></rect><text x="348" y="630.5" class="empty-text comment-row-text "><tspan>other error and/ or time-out</tspan></text></g></g><g></g><g><line x1="636" y1="665" x2="492" y2="665" class="arc directional lost" style="stroke:black" marker-end="url(#mscgenjsreplacemelost-black)"></line><g></g></g><g><line x1="444" y1="815" x2="252" y2="815" class="arc directional return" style="stroke:black" marker-end="url(#mscgenjsreplacemecallback-black)"></line><g><rect width="99.38" height="14" x="298.31" y="799.5" class="label-text-background"></rect><text x="348" y="810.5" class="directional-text return-text "><tspan>Error (HTTP 500?)</tspan></text></g></g><g><line x1="252" y1="853" x2="60" y2="853" class="arc directional return" style="stroke:black" marker-end="url(#mscgenjsreplacemecallback-black)"></line><g><rect width="56.98" height="14" x="127.64" y="837.5" class="label-text-background"></rect><text x="156" y="848.5" class="directional-text return-text "><tspan>sorry dude</tspan></text></g></g><g></g></g><g id="mscgenjsreplaceme_notes"><g><path d="M-35,323 l111.72,0 l0,11 l-7,7 l-104.72,0 " class="box inline_expression_label"></path><g><text x="-33" y="336" class="inline_expression-text alt-text anchor-start "><tspan>alt: reCaptcha valid</tspan></text></g></g><g><rect width="184" height="34" x="352" y="382" rx="6" ry="6" class="box rbox"></rect><g><text x="444" y="402.5" class="box-text rbox-text "><tspan>check hostname, error codes</tspan></text></g></g><g><rect width="184" height="34" x="352" y="420" rx="6" ry="6" class="box rbox"></rect><g><text x="444" y="440.5" class="box-text rbox-text "><tspan>do regular login processing</tspan></text></g></g><g><path d="M160,686 l367,0 l0,9 l9,0 m-9,-9 l9,9 l0,99 l-376,0 l0,-108 z" class="box note"></path><g><text x="348" y="698.5" class="box-text note-text "><tspan>Treating this as an error will mean your log in won't work when</tspan></text><text x="348" y="713.5" class="box-text note-text "><tspan>the reCaptcha service is down.</tspan></text><text x="348" y="743.5" class="box-text note-text "><tspan>It depends on the gig what you actually do here:</tspan></text><text x="348" y="773.5" class="box-text note-text "><tspan>- safety before everything shop: throw an error</tspan></text><text x="348" y="788.5" class="box-text note-text "><tspan>- acceptable risk vs revenue shop: do regular login</tspan></text></g></g></g><g id="mscgenjsreplaceme_watermark"></g></g></svg>